<?xml version="1.0" encoding="UTF-8" standalone="no"?>
<!DOCTYPE svg PUBLIC "-//W3C//DTD SVG 1.1//EN" "http://www.w3.org/Graphics/SVG/1.1/DTD/svg11.dtd">
<svg version="1.1" xmlns="http://www.w3.org/2000/svg" xmlns:xlink="http://www.w3.org/1999/xlink" preserveAspectRatio="xMidYMid meet" viewBox="0 0 352 488" width="352" height="488"><defs><path d="M131.56 270.44C103.02 288.18 87.17 298.03 84 300C84 300 68 308 36 324C36 324 20.37 339.71 11.59 362.73C4.56 381.18 4 405.76 4 420C4 420 4 484 4 484C38.4 484 313.6 484 348 484C348 484 348 460 348 420C348 420 348 348 316 324C316 324 244 284 244 284C241.33 282.09 228 272.52 204 255.3C204 252.41 204 237.98 204 212L131.56 260C131.56 266.26 131.56 269.74 131.56 270.44Z" id="a31hw1JFAX"></path><path d="M131.56 270.44C103.02 288.18 87.17 298.03 84 300C84 300 68 308 36 324C36 324 20.37 339.71 11.59 362.73C4.56 381.18 4 405.76 4 420C4 420 4 484 4 484C38.4 484 313.6 484 348 484C348 484 348 460 348 420C348 420 348 348 316 324C316 324 244 284 244 284C241.33 282.09 228 272.52 204 255.3C204 252.41 204 237.98 204 212L131.56 260C131.56 266.26 131.56 269.74 131.56 270.44Z" id="g6EPArM8M"></path><path d="M204 255.3C204 256.9 204 269.7 204 271.3C228 288.52 241.33 298.09 244 300C244 300 284 316 316 340C316 340 348 396 348 436C348 430.99 348 425.68 348 420C348 380 348 348 316 324C284 300 258.4 292 244 284C241.33 282.09 228 272.52 204 255.3Z" id="a1D5DJgagh"></path><path d="M204 255.3C204 256.9 204 269.7 204 271.3C228 288.52 241.33 298.09 244 300C244 300 284 316 316 340C316 340 348 396 348 436C348 430.99 348 425.68 348 420C348 380 348 348 316 324C284 300 258.4 292 244 284C241.33 282.09 228 272.52 204 255.3Z" id="b1ocpm812B"></path><path d="M36 324C4 340 4 388 4 420C4 421.6 4 434.4 4 436C4 404 4 356 36 340C49.63 333.18 60.18 327.91 68 324C68 320.8 68 311.2 68 308C60.18 311.91 49.63 317.18 36 324Z" id="b1qO6J4Lal"></path><path d="M36 324C4 340 4 388 4 420C4 421.6 4 434.4 4 436C4 404 4 356 36 340C49.63 333.18 60.18 327.91 68 324C68 320.8 68 311.2 68 308C60.18 311.91 49.63 317.18 36 324Z" id="a3ATGxiT1V"></path><path d="M348 484C348 484 348 478.34 348 468C325.07 468 210.4 468 4 468C4 469.07 4 474.4 4 484C218.05 484 332.71 484 348 484Z" id="d1Cs0jW4XD"></path><path d="M348 484C348 484 348 478.34 348 468C325.07 468 210.4 468 4 468C4 469.07 4 474.4 4 484C218.05 484 332.71 484 348 484Z" id="e5iUP2aEpk"></path><path d="M156 348C121.66 348 105.36 335.96 99.74 320.66C98.69 322.49 93.45 331.6 84 348C84 357.07 84 402.4 84 484C175.2 484 225.87 484 236 484C235.2 395.6 234.7 340.35 234.5 318.25C219.82 335.46 191.05 348 156 348Z" id="a1VC8lp383"></path><path d="M156 348C121.66 348 105.36 335.96 99.74 320.66C98.69 322.49 93.45 331.6 84 348C84 357.07 84 402.4 84 484C175.2 484 225.87 484 236 484C235.2 395.6 234.7 340.35 234.5 318.25C219.82 335.46 191.05 348 156 348Z" id="b6mW6Hd9E8"></path><path d="M84 484L236 484L235.86 468L84 468L84 484Z" id="awOBZBmxM"></path><path d="M84 484L236 484L235.86 468L84 468L84 484Z" id="a32XHnjHu"></path><path d="M139.87 254.5L123.56 260C123.56 266.26 123.56 269.74 123.56 270.44C109.42 282.21 101.57 288.75 100 290.06C92 316 100 348 156 348C212 348 252 316 244 284C241.33 282.09 228 272.52 204 255.3C204 254.26 204 249.06 204 239.7L139.87 254.5Z" id="b4ffJNwt8X"></path><path d="M139.87 254.5L123.56 260C123.56 266.26 123.56 269.74 123.56 270.44C109.42 282.21 101.57 288.75 100 290.06C92 316 100 348 156 348C212 348 252 316 244 284C241.33 282.09 228 272.52 204 255.3C204 254.26 204 249.06 204 239.7L139.87 254.5Z" id="a4bmo7kedT"></path><path d="M96.99 313.16C101.14 311.64 105.74 313.76 107.26 317.91C113.96 336.17 137.46 340.01 156 340.01C186.5 340.01 214.25 329.69 228.4 313.07C231.26 309.7 236.32 309.3 239.68 312.17C243.04 315.03 243.45 320.09 240.58 323.45C223.22 343.83 191.59 356 156 356C113.18 356 97.7 338.28 92.24 323.42C90.72 319.27 92.84 314.68 96.99 313.16Z" id="bmxjl9g5K"></path><path d="M96.99 313.16C101.14 311.64 105.74 313.76 107.26 317.91C113.96 336.17 137.46 340.01 156 340.01C186.5 340.01 214.25 329.69 228.4 313.07C231.26 309.7 236.32 309.3 239.68 312.17C243.04 315.03 243.45 320.09 240.58 323.45C223.22 343.83 191.59 356 156 356C113.18 356 97.7 338.28 92.24 323.42C90.72 319.27 92.84 314.68 96.99 313.16Z" id="b9zx5tiI0"></path><path d="M131.56 324L204 324L204 197.92L131.56 260L131.56 324Z" id="g1poGwAFma"></path><path d="M131.56 324L204 324L204 197.92L131.56 260L131.56 324Z" id="b9mXF6vre"></path><path d="M52.03 116C52.03 116 38.5 106.42 46.11 96.28C53.71 86.14 61.32 89.1 61.32 89.1C61.32 89.1 44.42 82.76 49.91 69.66C55.41 56.55 68.03 59.09 68.03 59.09C68.03 59.09 53.71 48.1 65.96 36.27C78.22 24.44 89.63 33.74 89.63 33.74C89.63 33.74 85.51 18.52 100.03 12.61C114.56 6.7 121.32 18.94 121.32 18.94C121.32 18.94 124.1 5.42 140.03 4.15C155.97 2.89 164.03 16.41 164.03 16.41C164.03 16.41 172.87 5.42 188.93 9.22C204.99 13.02 204.03 26.55 204.03 26.55C204.03 26.55 221.89 16.83 234.15 27.82C246.4 38.8 238.37 50.22 238.37 50.22C238.37 50.22 256.96 47.68 261.61 59.51C266.26 71.34 258.65 77.68 258.65 77.68C258.65 77.68 273.02 80.22 275.55 93.31C278.09 106.41 267.11 109.37 267.11 109.37C267.11 109.37 280.43 119.78 275.94 131.99C271.44 144.2 262.72 144.2 262.72 144.2C262.72 144.2 270.66 161.91 251.43 169.24C249.09 171.12 230.37 186.12 228.03 188C228.03 188 232.22 198.99 227.24 205.22C227.24 205.22 230.53 220.36 217.28 225.14C204.03 229.91 204.03 229.92 204.03 229.92C176.83 211.94 95.23 157.98 68.03 140C64.83 135.2 44.03 132 52.03 116Z" id="a1SlOuelkn"></path><path d="M52.03 116C52.03 116 38.5 106.42 46.11 96.28C53.71 86.14 61.32 89.1 61.32 89.1C61.32 89.1 44.42 82.76 49.91 69.66C55.41 56.55 68.03 59.09 68.03 59.09C68.03 59.09 53.71 48.1 65.96 36.27C78.22 24.44 89.63 33.74 89.63 33.74C89.63 33.74 85.51 18.52 100.03 12.61C114.56 6.7 121.32 18.94 121.32 18.94C121.32 18.94 124.1 5.42 140.03 4.15C155.97 2.89 164.03 16.41 164.03 16.41C164.03 16.41 172.87 5.42 188.93 9.22C204.99 13.02 204.03 26.55 204.03 26.55C204.03 26.55 221.89 16.83 234.15 27.82C246.4 38.8 238.37 50.22 238.37 50.22C238.37 50.22 256.96 47.68 261.61 59.51C266.26 71.34 258.65 77.68 258.65 77.68C258.65 77.68 273.02 80.22 275.55 93.31C278.09 106.41 267.11 109.37 267.11 109.37C267.11 109.37 280.43 119.78 275.94 131.99C271.44 144.2 262.72 144.2 262.72 144.2C262.72 144.2 270.66 161.91 251.43 169.24C249.09 171.12 230.37 186.12 228.03 188C228.03 188 232.22 198.99 227.24 205.22C227.24 205.22 230.53 220.36 217.28 225.14C204.03 229.91 204.03 229.92 204.03 229.92C176.83 211.94 95.23 157.98 68.03 140C64.83 135.2 44.03 132 52.03 116Z" id="a1xu16wzQr"></path><path d="M100 28.61C114.53 22.7 121.29 34.94 121.29 34.94C121.29 34.94 124.06 21.42 140 20.15C155.94 18.89 164 32.41 164 32.41C164 32.41 172.84 21.42 188.9 25.22C204.95 29.03 204 42.55 204 42.55C204 42.55 221.86 32.83 234.11 43.82C236.23 45.72 237.72 47.63 238.77 49.5C240.25 46.87 244.58 37.2 234.11 27.82C221.86 16.83 204 26.55 204 26.55C204 26.55 204.95 13.03 188.9 9.22C172.84 5.42 164 16.41 164 16.41C164 16.41 155.94 2.89 140 4.15C124.06 5.42 121.29 18.94 121.29 18.94C121.29 18.94 114.53 6.69 100 12.61C85.47 18.53 89.59 33.74 89.59 33.74C89.59 33.74 78.18 24.44 65.93 36.27C58.49 43.46 60.85 50.31 63.85 54.6C64.44 53.83 65.12 53.06 65.93 52.27C78.18 40.44 84.86 50.24 89.59 49.74C91.67 45.51 85.47 34.52 100 28.61Z" id="a2NBFiircc"></path><path d="M100 28.61C114.53 22.7 121.29 34.94 121.29 34.94C121.29 34.94 124.06 21.42 140 20.15C155.94 18.89 164 32.41 164 32.41C164 32.41 172.84 21.42 188.9 25.22C204.95 29.03 204 42.55 204 42.55C204 42.55 221.86 32.83 234.11 43.82C236.23 45.72 237.72 47.63 238.77 49.5C240.25 46.87 244.58 37.2 234.11 27.82C221.86 16.83 204 26.55 204 26.55C204 26.55 204.95 13.03 188.9 9.22C172.84 5.42 164 16.41 164 16.41C164 16.41 155.94 2.89 140 4.15C124.06 5.42 121.29 18.94 121.29 18.94C121.29 18.94 114.53 6.69 100 12.61C85.47 18.53 89.59 33.74 89.59 33.74C89.59 33.74 78.18 24.44 65.93 36.27C58.49 43.46 60.85 50.31 63.85 54.6C64.44 53.83 65.12 53.06 65.93 52.27C78.18 40.44 84.86 50.24 89.59 49.74C91.67 45.51 85.47 34.52 100 28.61Z" id="a1rCycdBUz"></path><path d="M68 204C68 230.51 89.49 252 116 252C120 252 152 252 156 252C186.93 252 212 226.93 212 196C212 195.47 212 192.8 212 188C221.6 188 226.93 188 228 188C241.26 188 252 177.26 252 164C252 162.4 252 149.6 252 148C252 134.74 241.26 124 228 124C226.93 124 221.6 124 212 124C210.4 121.33 202.4 108 188 84L68 84C68 158.67 68 198.67 68 204Z" id="j1ywc6Jx88"></path><path d="M68 204C68 230.51 89.49 252 116 252C120 252 152 252 156 252C186.93 252 212 226.93 212 196C212 195.47 212 192.8 212 188C221.6 188 226.93 188 228 188C241.26 188 252 177.26 252 164C252 162.4 252 149.6 252 148C252 134.74 241.26 124 228 124C226.93 124 221.6 124 212 124C210.4 121.33 202.4 108 188 84L68 84C68 158.67 68 198.67 68 204Z" id="f3fSZOSHZ5"></path><path d="M180 204C171.78 194.06 152 196 108 196C76 196 68 220 76 236C76 236 84 260 124 260C204 260 197.57 236 197.57 236C195.65 234.4 188 236 188 228C186.4 223.2 187.22 212.71 180 204ZM108 228C100 228 100 236 92 236C84 236 84 206.14 108 206.14C124 206.14 164 201.96 164 216C164 224 164 236 148 236C132 236 132 228 124 228C116 228 116 228 108 228Z" id="b1D8rE2ksA"></path><path d="M180 204C171.78 194.06 152 196 108 196C76 196 68 220 76 236C76 236 84 260 124 260C204 260 197.57 236 197.57 236C195.65 234.4 188 236 188 228C186.4 223.2 187.22 212.71 180 204ZM108 228C100 228 100 236 92 236C84 236 84 206.14 108 206.14C124 206.14 164 201.96 164 216C164 224 164 236 148 236C132 236 132 228 124 228C116 228 116 228 108 228Z" id="a5KiRdtL0p"></path><path d="M69.18 225.77C69.04 223.57 70.71 221.66 72.91 221.52C75.24 221.29 77.02 223.05 77.17 225.26C77.37 228.36 78.2 231.46 79.58 234.21C80.09 235.58 87.67 256 124 256C134.5 256 144.06 255.57 152.45 254.74C154.62 254.5 156.61 256.12 156.82 258.31C157.04 260.5 155.44 262.47 153.24 262.69C144.6 263.56 134.77 264 124 264C81.61 264 72.57 238.36 72.21 237.26C70.58 234.1 69.46 229.94 69.18 225.77Z" id="d5iBAdW2xu"></path><path d="M69.18 225.77C69.04 223.57 70.71 221.66 72.91 221.52C75.24 221.29 77.02 223.05 77.17 225.26C77.37 228.36 78.2 231.46 79.58 234.21C80.09 235.58 87.67 256 124 256C134.5 256 144.06 255.57 152.45 254.74C154.62 254.5 156.61 256.12 156.82 258.31C157.04 260.5 155.44 262.47 153.24 262.69C144.6 263.56 134.77 264 124 264C81.61 264 72.57 238.36 72.21 237.26C70.58 234.1 69.46 229.94 69.18 225.77Z" id="c2q53kwiN3"></path><path d="M204 148C204 148 196 124 196 124C172 108 164 84 164 84C108 76 84 84 84 84C76 108 68 116 68 116C68 113.9 66.04 116.32 65.25 103.24C64.84 96.35 64.84 84.6 65.25 68C80.72 68 204.52 68 220 68C220 93.6 220 109.6 220 116C216.8 122.4 212 148 204 148Z" id="aIqvoxEB1"></path><path d="M204 148C204 148 196 124 196 124C172 108 164 84 164 84C108 76 84 84 84 84C76 108 68 116 68 116C68 113.9 66.04 116.32 65.25 103.24C64.84 96.35 64.84 84.6 65.25 68C80.72 68 204.52 68 220 68C220 93.6 220 109.6 220 116C216.8 122.4 212 148 204 148Z" id="a2ogdZnhsp"></path><path d="M64 204C64 195.2 64 124.8 64 116C64 113.79 65.79 112 68 112C70.21 112 72 113.79 72 116C72 124.8 72 195.2 72 204C72 210.83 73.52 217.39 76.53 223.47C77.51 225.46 76.7 227.86 74.71 228.83C74.15 229.11 73.54 229.24 72.95 229.24C71.48 229.24 70.06 228.42 69.36 227.02C65.81 219.82 64 212.08 64 204Z" id="dBPfSD8EH"></path><path d="M64 204C64 195.2 64 124.8 64 116C64 113.79 65.79 112 68 112C70.21 112 72 113.79 72 116C72 124.8 72 195.2 72 204C72 210.83 73.52 217.39 76.53 223.47C77.51 225.46 76.7 227.86 74.71 228.83C74.15 229.11 73.54 229.24 72.95 229.24C71.48 229.24 70.06 228.42 69.36 227.02C65.81 219.82 64 212.08 64 204Z" id="bLN4pEnfk"></path><path d="M208 188C208 185.79 209.79 184 212 184C213.6 184 226.4 184 228 184C239.02 184 248 175.03 248 164C248 162.4 248 149.6 248 148C248 136.97 239.02 128 228 128C227.2 128 220.8 128 220 128C217.79 128 216 126.21 216 124C216 121.79 217.79 120 220 120C220.8 120 227.2 120 228 120C243.44 120 256 132.56 256 148C256 149.6 256 162.4 256 164C256 179.44 243.44 192 228 192C224.8 192 213.6 192 212 192C209.79 192 208 190.21 208 188Z" id="b2bwzOqbOS"></path><path d="M208 188C208 185.79 209.79 184 212 184C213.6 184 226.4 184 228 184C239.02 184 248 175.03 248 164C248 162.4 248 149.6 248 148C248 136.97 239.02 128 228 128C227.2 128 220.8 128 220 128C217.79 128 216 126.21 216 124C216 121.79 217.79 120 220 120C220.8 120 227.2 120 228 120C243.44 120 256 132.56 256 148C256 149.6 256 162.4 256 164C256 179.44 243.44 192 228 192C224.8 192 213.6 192 212 192C209.79 192 208 190.21 208 188Z" id="asKfVu22S"></path><path d="M96 220C96 217.79 97.79 216 100 216C104 216 136 216 140 216C143.22 216 143.95 213.8 144 211.95C144.06 209.78 145.83 208.02 148 208.02C148.02 208.02 148.03 208.02 148.05 208.03C150.24 208.06 152 209.82 152 212C152 216.82 148.81 224 140 224C132 224 104 224 100 224C97.79 224 96 222.21 96 220Z" id="azup0LGYg"></path><path d="M96 220C96 217.79 97.79 216 100 216C104 216 136 216 140 216C143.22 216 143.95 213.8 144 211.95C144.06 209.78 145.83 208.02 148 208.02C148.02 208.02 148.03 208.02 148.05 208.03C150.24 208.06 152 209.82 152 212C152 216.82 148.81 224 140 224C132 224 104 224 100 224C97.79 224 96 222.21 96 220Z" id="b1ZEGJUk1Q"></path><path d="M96.42 138.21C97.42 136.24 99.81 135.42 101.79 136.42C103.77 137.41 104.57 139.81 103.58 141.78C97.11 154.73 88 175.14 88 180C88 182.41 95.22 184 100 184C102.21 184 104 185.79 104 188C104 190.21 102.21 192 100 192C90.78 192 80 188.86 80 180C80 171.49 93.68 143.7 96.42 138.21Z" id="c3mOCO3oNZ"></path><path d="M96.42 138.21C97.42 136.24 99.81 135.42 101.79 136.42C103.77 137.41 104.57 139.81 103.58 141.78C97.11 154.73 88 175.14 88 180C88 182.41 95.22 184 100 184C102.21 184 104 185.79 104 188C104 190.21 102.21 192 100 192C90.78 192 80 188.86 80 180C80 171.49 93.68 143.7 96.42 138.21Z" id="bhAqwKxyc"></path><path d="M136 140C136 137.79 137.79 136 140 136C142.21 136 144 137.79 144 140C144 142.4 144 161.6 144 164C144 166.21 142.21 168 140 168C137.79 168 136 166.21 136 164C136 161.6 136 142.4 136 140Z" id="grzQVEKYh"></path><path d="M136 140C136 137.79 137.79 136 140 136C142.21 136 144 137.79 144 140C144 142.4 144 161.6 144 164C144 166.21 142.21 168 140 168C137.79 168 136 166.21 136 164C136 161.6 136 142.4 136 140Z" id="b1FOyqyQHg"></path><path d="M80 140C80 137.79 81.79 136 84 136C86.21 136 88 137.79 88 140C88 142.4 88 161.6 88 164C88 166.21 86.21 168 84 168C81.79 168 80 166.21 80 164C80 161.6 80 142.4 80 140Z" id="cKF9BTqZR"></path><path d="M80 140C80 137.79 81.79 136 84 136C86.21 136 88 137.79 88 140C88 142.4 88 161.6 88 164C88 166.21 86.21 168 84 168C81.79 168 80 166.21 80 164C80 161.6 80 142.4 80 140Z" id="bfy6NQyHX"></path><path d="M126.8 126.86C125.22 128.37 122.69 128.36 121.15 126.79C119.62 125.23 119.62 122.73 121.16 121.18C121.34 120.99 140.29 102.65 166.82 129.18C168.38 130.74 168.38 133.27 166.82 134.83C166.05 135.61 165.02 136 164 136C162.98 136 161.95 135.61 161.17 134.83C140.46 114.14 127.34 126.33 126.8 126.86Z" id="gLfMAOrkJ"></path><path d="M126.8 126.86C125.22 128.37 122.69 128.36 121.15 126.79C119.62 125.23 119.62 122.73 121.16 121.18C121.34 120.99 140.29 102.65 166.82 129.18C168.38 130.74 168.38 133.27 166.82 134.83C166.05 135.61 165.02 136 164 136C162.98 136 161.95 135.61 161.17 134.83C140.46 114.14 127.34 126.33 126.8 126.86Z" id="g1xTYNoN91"></path><path d="M70.44 126.18C68.7 127.55 66.18 127.22 64.82 125.49C63.46 123.74 63.78 121.24 65.51 119.88C77.94 110.14 90.12 116.47 94.82 121.17C96.38 122.73 96.38 125.26 94.82 126.82C94.05 127.61 93.02 128 92 128C90.98 128 89.97 127.62 89.18 126.84C88.3 125.98 80.2 118.58 70.44 126.18Z" id="d6gScWQXEp"></path><path d="M70.44 126.18C68.7 127.55 66.18 127.22 64.82 125.49C63.46 123.74 63.78 121.24 65.51 119.88C77.94 110.14 90.12 116.47 94.82 121.17C96.38 122.73 96.38 125.26 94.82 126.82C94.05 127.61 93.02 128 92 128C90.98 128 89.97 127.62 89.18 126.84C88.3 125.98 80.2 118.58 70.44 126.18Z" id="b2lyKHpa1P"></path><path d="M264 388C264 385.79 265.79 384 268 384C270.21 384 272 385.79 272 388C272 397.6 272 474.4 272 484C272 486.21 270.21 488 268 488C265.79 488 264 486.21 264 484C264 474.4 264 397.6 264 388Z" id="eBV9IJQf5"></path><path d="M264 388C264 385.79 265.79 384 268 384C270.21 384 272 385.79 272 388C272 397.6 272 474.4 272 484C272 486.21 270.21 488 268 488C265.79 488 264 486.21 264 484C264 474.4 264 397.6 264 388Z" id="a4H4C3updB"></path><path d="M32 388C32 385.79 33.79 384 36 384C38.21 384 40 385.79 40 388C40 397.6 40 474.4 40 484C40 486.21 38.21 488 36 488C33.79 488 32 486.21 32 484C32 474.4 32 397.6 32 388Z" id="b1sXiF9VTS"></path><path d="M32 388C32 385.79 33.79 384 36 384C38.21 384 40 385.79 40 388C40 397.6 40 474.4 40 484C40 486.21 38.21 488 36 488C33.79 488 32 486.21 32 484C32 474.4 32 397.6 32 388Z" id="b2AXMlbKf8"></path><path d="M249.98 165.51C254.75 163.69 257.9 161.02 259.34 157.59C261.68 152.03 259.06 145.89 259.03 145.82C258.5 144.59 258.61 143.15 259.35 142.02C260.09 140.89 261.34 140.2 262.69 140.2C262.86 140.19 268.75 139.82 272.15 130.61C275.58 121.32 264.71 112.6 264.6 112.51C263.42 111.58 262.86 110.04 263.16 108.56C263.46 107.08 264.58 105.9 266.03 105.5C267.22 105.15 273.3 102.9 271.59 94.06C269.62 83.9 258.38 81.7 257.9 81.61C256.38 81.33 255.14 80.18 254.75 78.69C254.36 77.18 254.86 75.59 256.05 74.6C256.55 74.14 261.26 69.65 257.85 60.96C254.45 52.3 239.04 54.14 238.87 54.16C237.3 54.4 235.74 53.64 234.91 52.28C234.09 50.92 234.14 49.2 235.06 47.9C235.64 47.05 240.63 39.03 231.43 30.78C221.41 21.79 206.06 29.95 205.9 30.05C204.62 30.74 203.06 30.68 201.83 29.9C200.6 29.1 199.9 27.7 200.01 26.25C200.06 25.24 200.18 15.98 187.98 13.09C174.73 9.96 167.4 18.54 167.1 18.92C166.26 19.93 164.98 20.46 163.7 20.37C162.41 20.26 161.23 19.55 160.56 18.44C160.29 17.99 153.42 7.16 140.31 8.12C127.7 9.13 125.29 19.32 125.19 19.76C124.83 21.38 123.5 22.62 121.86 22.87C120.22 23.04 118.58 22.32 117.78 20.86C117.27 19.96 112.26 11.95 101.51 16.3C90.7 20.7 93.15 31.47 93.46 32.7C93.9 34.37 93.21 36.14 91.75 37.08C90.3 38 88.42 37.91 87.07 36.82C86.2 36.14 78.02 30.18 68.71 39.14C66.06 41.7 64.84 44.22 64.99 46.82C65.28 51.81 70.39 55.87 70.44 55.91C71.92 57.05 72.42 59.05 71.65 60.74C70.88 62.43 69.04 63.4 67.22 63.01C66.26 62.84 57.6 61.55 53.56 71.2C52.58 73.53 52.52 75.61 53.37 77.56C55.52 82.54 62.62 85.32 62.69 85.35C62.71 85.36 62.73 85.36 62.74 85.37C64.78 86.17 65.81 88.47 65.02 90.53C64.24 92.59 61.93 93.64 59.88 92.84C59.86 92.84 59.85 92.83 59.83 92.82C59.66 92.77 54.77 91.35 49.27 98.67C48.01 100.36 47.55 101.97 47.83 103.75C48.47 107.79 52.83 111.69 54.32 112.74C55.93 113.88 56.47 116.02 55.58 117.79C54.21 120.54 54.01 123.02 54.98 125.37C57.38 131.15 66.11 135.15 69.27 136.2C71.37 136.9 72.5 139.17 71.8 141.26C71.1 143.35 68.86 144.48 66.74 143.79C66.14 143.59 51.86 138.73 47.59 128.42C46.12 124.87 45.99 121.04 47.21 117.22C44.58 114.8 40.79 110.46 39.94 104.99C39.33 101.1 40.34 97.26 42.88 93.87C45.42 90.48 48.02 88.3 50.46 86.92C48.7 85.24 47.09 83.18 46.02 80.74C44.32 76.79 44.38 72.42 46.19 68.11C49.35 60.59 54.74 57.05 59.77 55.65C58.35 53.32 57.19 50.48 57.01 47.28C56.73 42.28 58.8 37.61 63.17 33.4C70.99 25.83 79.11 25.35 85.1 27.08C85.6 20.55 88.82 12.85 98.5 8.91C108.13 4.98 115.5 7.73 120.14 11.55C123.38 6.38 129.49 0.98 139.7 0.18C152.27 -0.78 160.46 5.97 164.51 10.5C169.02 7 177.63 2.42 189.84 5.34C200.89 7.95 205.66 14.93 207.32 20.82C214.29 18.38 226.88 15.95 236.81 24.85C244.91 32.1 245.81 40.13 244.44 46.03C251.32 46.34 261.58 48.5 265.33 58.06C268.38 65.82 267.04 71.74 265.1 75.58C270.36 77.86 277.58 82.72 279.48 92.56C281.21 101.48 277.76 107.14 273.78 110.31C277.98 115.1 283.3 123.6 279.7 133.38C276.57 141.87 271.53 145.5 267.75 147.06C268.49 150.53 268.87 155.58 266.79 160.59C264.48 166.18 259.79 170.34 252.86 172.98C252.36 173.17 251.88 173.25 251.41 173.25C249.8 173.25 248.28 172.27 247.67 170.67C246.89 168.61 247.92 166.3 249.98 165.51Z" id="f1RNjAxVaw"></path><path d="M249.98 165.51C254.75 163.69 257.9 161.02 259.34 157.59C261.68 152.03 259.06 145.89 259.03 145.82C258.5 144.59 258.61 143.15 259.35 142.02C260.09 140.89 261.34 140.2 262.69 140.2C262.86 140.19 268.75 139.82 272.15 130.61C275.58 121.32 264.71 112.6 264.6 112.51C263.42 111.58 262.86 110.04 263.16 108.56C263.46 107.08 264.58 105.9 266.03 105.5C267.22 105.15 273.3 102.9 271.59 94.06C269.62 83.9 258.38 81.7 257.9 81.61C256.38 81.33 255.14 80.18 254.75 78.69C254.36 77.18 254.86 75.59 256.05 74.6C256.55 74.14 261.26 69.65 257.85 60.96C254.45 52.3 239.04 54.14 238.87 54.16C237.3 54.4 235.74 53.64 234.91 52.28C234.09 50.92 234.14 49.2 235.06 47.9C235.64 47.05 240.63 39.03 231.43 30.78C221.41 21.79 206.06 29.95 205.9 30.05C204.62 30.74 203.06 30.68 201.83 29.9C200.6 29.1 199.9 27.7 200.01 26.25C200.06 25.24 200.18 15.98 187.98 13.09C174.73 9.96 167.4 18.54 167.1 18.92C166.26 19.93 164.98 20.46 163.7 20.37C162.41 20.26 161.23 19.55 160.56 18.44C160.29 17.99 153.42 7.16 140.31 8.12C127.7 9.13 125.29 19.32 125.19 19.76C124.83 21.38 123.5 22.62 121.86 22.87C120.22 23.04 118.58 22.32 117.78 20.86C117.27 19.96 112.26 11.95 101.51 16.3C90.7 20.7 93.15 31.47 93.46 32.7C93.9 34.37 93.21 36.14 91.75 37.08C90.3 38 88.42 37.91 87.07 36.82C86.2 36.14 78.02 30.18 68.71 39.14C66.06 41.7 64.84 44.22 64.99 46.82C65.28 51.81 70.39 55.87 70.44 55.91C71.92 57.05 72.42 59.05 71.65 60.74C70.88 62.43 69.04 63.4 67.22 63.01C66.26 62.84 57.6 61.55 53.56 71.2C52.58 73.53 52.52 75.61 53.37 77.56C55.52 82.54 62.62 85.32 62.69 85.35C62.71 85.36 62.73 85.36 62.74 85.37C64.78 86.17 65.81 88.47 65.02 90.53C64.24 92.59 61.93 93.64 59.88 92.84C59.86 92.84 59.85 92.83 59.83 92.82C59.66 92.77 54.77 91.35 49.27 98.67C48.01 100.36 47.55 101.97 47.83 103.75C48.47 107.79 52.83 111.69 54.32 112.74C55.93 113.88 56.47 116.02 55.58 117.79C54.21 120.54 54.01 123.02 54.98 125.37C57.38 131.15 66.11 135.15 69.27 136.2C71.37 136.9 72.5 139.17 71.8 141.26C71.1 143.35 68.86 144.48 66.74 143.79C66.14 143.59 51.86 138.73 47.59 128.42C46.12 124.87 45.99 121.04 47.21 117.22C44.58 114.8 40.79 110.46 39.94 104.99C39.33 101.1 40.34 97.26 42.88 93.87C45.42 90.48 48.02 88.3 50.46 86.92C48.7 85.24 47.09 83.18 46.02 80.74C44.32 76.79 44.38 72.42 46.19 68.11C49.35 60.59 54.74 57.05 59.77 55.65C58.35 53.32 57.19 50.48 57.01 47.28C56.73 42.28 58.8 37.61 63.17 33.4C70.99 25.83 79.11 25.35 85.1 27.08C85.6 20.55 88.82 12.85 98.5 8.91C108.13 4.98 115.5 7.73 120.14 11.55C123.38 6.38 129.49 0.98 139.7 0.18C152.27 -0.78 160.46 5.97 164.51 10.5C169.02 7 177.63 2.42 189.84 5.34C200.89 7.95 205.66 14.93 207.32 20.82C214.29 18.38 226.88 15.95 236.81 24.85C244.91 32.1 245.81 40.13 244.44 46.03C251.32 46.34 261.58 48.5 265.33 58.06C268.38 65.82 267.04 71.74 265.1 75.58C270.36 77.86 277.58 82.72 279.48 92.56C281.21 101.48 277.76 107.14 273.78 110.31C277.98 115.1 283.3 123.6 279.7 133.38C276.57 141.87 271.53 145.5 267.75 147.06C268.49 150.53 268.87 155.58 266.79 160.59C264.48 166.18 259.79 170.34 252.86 172.98C252.36 173.17 251.88 173.25 251.41 173.25C249.8 173.25 248.28 172.27 247.67 170.67C246.89 168.61 247.92 166.3 249.98 165.51Z" id="e3QDrfTaKC"></path><path d="M200 228C200 225.98 201.51 224.27 203.52 224.03C204.02 223.97 206.54 223.67 211.07 223.12C213.96 222.08 215.57 221.5 215.89 221.38C225.72 217.83 223.4 206.55 223.3 206.06C223.04 204.9 223.33 203.66 224.08 202.72C226.98 199.1 225.14 191.72 224.26 189.42C223.47 187.36 224.5 185.05 226.57 184.26C228.62 183.45 230.94 184.5 231.74 186.58C232.22 187.83 236.02 198.41 231.42 206.14C232.27 212.99 230.58 224.58 218.6 228.9C218.07 229.09 213.87 230.6 213.34 230.79C213.06 230.9 212.78 230.96 212.48 230.99C212.18 231.03 210.69 231.21 208 231.54C208 243.82 208 250.64 208 252C208 254.21 206.21 256 204 256C201.79 256 200 254.21 200 252C200 249.6 200 230.4 200 228Z" id="bbh3Q9ZoO"></path><path d="M200 228C200 225.98 201.51 224.27 203.52 224.03C204.02 223.97 206.54 223.67 211.07 223.12C213.96 222.08 215.57 221.5 215.89 221.38C225.72 217.83 223.4 206.55 223.3 206.06C223.04 204.9 223.33 203.66 224.08 202.72C226.98 199.1 225.14 191.72 224.26 189.42C223.47 187.36 224.5 185.05 226.57 184.26C228.62 183.45 230.94 184.5 231.74 186.58C232.22 187.83 236.02 198.41 231.42 206.14C232.27 212.99 230.58 224.58 218.6 228.9C218.07 229.09 213.87 230.6 213.34 230.79C213.06 230.9 212.78 230.96 212.48 230.99C212.18 231.03 210.69 231.21 208 231.54C208 243.82 208 250.64 208 252C208 254.21 206.21 256 204 256C201.79 256 200 254.21 200 252C200 249.6 200 230.4 200 228Z" id="bcimEuIMV"></path><path d="M0 484C0 477.6 0 426.4 0 420C0 387.16 0 337.53 34.21 320.42C37.29 318.88 61.97 306.54 65.06 305C67.03 304 69.43 304.82 70.42 306.79C71.42 308.77 70.61 311.18 68.63 312.16C65.55 313.7 40.87 326.04 37.78 327.58C8 342.47 8 389.13 8 420C8 424 8 444 8 480C41.6 480 310.4 480 344 480C344 444 344 424 344 420C344 380.89 344 350 313.6 327.2C295.7 313.78 275.16 302.86 261.08 296.05C259.09 295.09 258.26 292.7 259.22 290.7C260.18 288.72 262.58 287.87 264.55 288.85C278.95 295.8 299.99 306.99 318.39 320.79C352 346 352 380.29 352 420C352 426.4 352 477.6 352 484C352 486.21 350.21 488 348 488C279.2 488 38.4 488 4 488C1.79 488 0 486.21 0 484Z" id="bLdZxWmPa"></path><path d="M0 484C0 477.6 0 426.4 0 420C0 387.16 0 337.53 34.21 320.42C37.29 318.88 61.97 306.54 65.06 305C67.03 304 69.43 304.82 70.42 306.79C71.42 308.77 70.61 311.18 68.63 312.16C65.55 313.7 40.87 326.04 37.78 327.58C8 342.47 8 389.13 8 420C8 424 8 444 8 480C41.6 480 310.4 480 344 480C344 444 344 424 344 420C344 380.89 344 350 313.6 327.2C295.7 313.78 275.16 302.86 261.08 296.05C259.09 295.09 258.26 292.7 259.22 290.7C260.18 288.72 262.58 287.87 264.55 288.85C278.95 295.8 299.99 306.99 318.39 320.79C352 346 352 380.29 352 420C352 426.4 352 477.6 352 484C352 486.21 350.21 488 348 488C279.2 488 38.4 488 4 488C1.79 488 0 486.21 0 484Z" id="c5DPb4LTjP"></path><path d="M224.17 401.12C213.52 440.86 197.42 484 197.42 484C201.28 484 232.14 484 236 484C236 484 268 460 284 412C280.8 408.8 255.2 383.2 252 380C252 380 268 380 300 364C300 364 268 308 260 284C260 284 236 252 204 252C210.4 269.6 236 284 236 340C233.63 352.22 232.53 369.9 224.17 401.12Z" id="b1yXMLKCU"></path><path d="M224.17 401.12C213.52 440.86 197.42 484 197.42 484C201.28 484 232.14 484 236 484C236 484 268 460 284 412C280.8 408.8 255.2 383.2 252 380C252 380 268 380 300 364C300 364 268 308 260 284C260 284 236 252 204 252C210.4 269.6 236 284 236 340C233.63 352.22 232.53 369.9 224.17 401.12Z" id="b4tXP6xwyF"></path><path d="M197.42 484C201.28 484 232.14 484 236 484C236 484 243.1 478.62 252.27 468C242.62 468 208.82 468 203.99 468C200.09 477.92 198.73 480.8 197.42 484Z" id="gCZDj4gMO"></path><path d="M197.42 484C201.28 484 232.14 484 236 484C236 484 243.1 478.62 252.27 468C242.62 468 208.82 468 203.99 468C200.09 477.92 198.73 480.8 197.42 484Z" id="b2pvvqqNid"></path><path d="M204 252C204 252 210.28 258.3 217.28 270.17C244.29 278.42 268 308 268 308C273.38 324.13 268 308 260 284C248.8 277.6 236 252 204 252Z" id="c2qB8aCiT"></path><path d="M204 252C204 252 210.28 258.3 217.28 270.17C244.29 278.42 268 308 268 308C273.38 324.13 268 308 260 284C248.8 277.6 236 252 204 252Z" id="b5OIN8yS7j"></path><path d="M194.09 486.18C193.35 485.05 193.23 483.63 193.77 482.38C194.15 481.52 232 394.5 232 340C232 286.46 201.48 255.14 201.17 254.83C200.02 253.68 199.69 251.97 200.31 250.47C200.94 248.98 202.38 248 204 248C237.62 248 262.17 280.22 263.2 281.6C263.46 281.94 263.66 282.33 263.79 282.74C271.58 306.09 303.15 361.46 303.47 362.02C304.02 362.97 304.14 364.11 303.82 365.16C303.5 366.22 302.77 367.09 301.78 367.58C282.35 377.3 268.6 381.26 260.54 382.89C263.16 385.52 284.2 406.55 286.82 409.18C287.9 410.25 288.27 411.83 287.79 413.27C271.58 461.9 239.74 486.19 238.4 487.21C237.7 487.72 236.86 488 236 488C228.29 488 201.29 488 197.43 488C196.08 488 194.82 487.32 194.09 486.18ZM279.42 413.06C276.39 410.04 252.2 385.86 249.18 382.83C248.03 381.69 247.69 379.97 248.31 378.47C248.92 376.98 250.38 376 252 376C252.13 376 266.44 375.7 294.42 362.27C287.18 349.41 263.62 306.94 256.42 285.93C253.7 282.5 236.36 261.78 213.39 256.99C223.09 269.92 240 298.44 240 340C240 388.66 212.01 459.54 203.48 480C209.7 480 231.49 480 234.6 480C239.95 475.58 265.41 453.05 279.42 413.06Z" id="a1cHN76MHs"></path><path d="M194.09 486.18C193.35 485.05 193.23 483.63 193.77 482.38C194.15 481.52 232 394.5 232 340C232 286.46 201.48 255.14 201.17 254.83C200.02 253.68 199.69 251.97 200.31 250.47C200.94 248.98 202.38 248 204 248C237.62 248 262.17 280.22 263.2 281.6C263.46 281.94 263.66 282.33 263.79 282.74C271.58 306.09 303.15 361.46 303.47 362.02C304.02 362.97 304.14 364.11 303.82 365.16C303.5 366.22 302.77 367.09 301.78 367.58C282.35 377.3 268.6 381.26 260.54 382.89C263.16 385.52 284.2 406.55 286.82 409.18C287.9 410.25 288.27 411.83 287.79 413.27C271.58 461.9 239.74 486.19 238.4 487.21C237.7 487.72 236.86 488 236 488C228.29 488 201.29 488 197.43 488C196.08 488 194.82 487.32 194.09 486.18ZM279.42 413.06C276.39 410.04 252.2 385.86 249.18 382.83C248.03 381.69 247.69 379.97 248.31 378.47C248.92 376.98 250.38 376 252 376C252.13 376 266.44 375.7 294.42 362.27C287.18 349.41 263.62 306.94 256.42 285.93C253.7 282.5 236.36 261.78 213.39 256.99C223.09 269.92 240 298.44 240 340C240 388.66 212.01 459.54 203.48 480C209.7 480 231.49 480 234.6 480C239.95 475.58 265.41 453.05 279.42 413.06Z" id="h8cv3XMU"></path><path d="M97.37 479.33C93.88 479.33 71.49 484 68 484C68 484 44 457.07 36 402.54C39.2 400.28 64.8 382.25 68 380C68 380 52 380 36 364C36 364 58.7 309.3 84 284C100 268 131.56 262.44 131.56 262.44C123.65 282.75 99.75 284 91.75 364C92.87 387.07 96.25 456.26 97.37 479.33Z" id="c9IJXwLjs3"></path><path d="M97.37 479.33C93.88 479.33 71.49 484 68 484C68 484 44 457.07 36 402.54C39.2 400.28 64.8 382.25 68 380C68 380 52 380 36 364C36 364 58.7 309.3 84 284C100 268 131.56 262.44 131.56 262.44C123.65 282.75 99.75 284 91.75 364C92.87 387.07 96.25 456.26 97.37 479.33Z" id="c110ppqXpX"></path><path d="M68 484C71.49 484 99.4 484 102.89 484C102.89 484 100.38 478.62 97.58 468C89.52 468 65.36 468 57.31 468C63.27 478.66 65.86 480.8 68 484Z" id="anhw3WQgY"></path><path d="M68 484C71.49 484 99.4 484 102.89 484C102.89 484 100.38 478.62 97.58 468C89.52 468 65.36 468 57.31 468C63.27 478.66 65.86 480.8 68 484Z" id="d1wbSJT8F6"></path><path d="M84 284C78.05 289.95 72.26 297.56 66.85 305.67C81 297.78 100.21 289.9 114.02 284.64C123.21 268.22 128.05 266.88 131.56 262.44C122.05 266.75 100 268 84 284Z" id="e1lGsQhCo"></path><path d="M84 284C78.05 289.95 72.26 297.56 66.85 305.67C81 297.78 100.21 289.9 114.02 284.64C123.21 268.22 128.05 266.88 131.56 262.44C122.05 266.75 100 268 84 284Z" id="bVdKrPDbS"></path><path d="M65.02 486.66C64 485.52 40.13 458.2 32.04 403.12C31.82 401.62 32.46 400.14 33.7 399.27C36.12 397.56 55.53 383.9 57.95 382.19C51.32 380.17 42.22 375.89 33.18 366.83C32.03 365.69 31.69 363.97 32.31 362.47C33.26 360.21 55.62 306.74 81.18 281.18C97.87 264.47 129.53 258.74 130.86 258.51C132.74 258.22 134.55 259.2 135.26 260.94C135.98 262.68 135.38 264.68 133.83 265.74C133.53 265.95 103.66 287.7 95.98 364.41C88.18 442.4 106.32 481.91 106.5 482.3C107.09 483.54 107 484.99 106.26 486.14C105.53 487.3 104.26 488 102.89 488C95.91 488 71.49 488 68 488C66.86 488 65.78 487.51 65.02 486.66ZM88.02 363.6C93.26 311.15 108.48 283.19 118.9 269.77C108.83 272.89 95.33 278.32 86.82 286.83C65.42 308.23 45.53 352.1 40.77 363.03C54.6 375.7 67.88 376 68.02 376C69.75 376.02 71.29 377.16 71.81 378.82C72.33 380.47 71.72 382.28 70.3 383.28C67.31 385.39 43.33 402.28 40.33 404.39C47.34 448.82 65.29 474.1 69.9 480C75.32 480 94.29 480 97 480C92.11 466.22 81.62 427.65 88.02 363.6Z" id="a5rZ6Ouyzg"></path><path d="M65.02 486.66C64 485.52 40.13 458.2 32.04 403.12C31.82 401.62 32.46 400.14 33.7 399.27C36.12 397.56 55.53 383.9 57.95 382.19C51.32 380.17 42.22 375.89 33.18 366.83C32.03 365.69 31.69 363.97 32.31 362.47C33.26 360.21 55.62 306.74 81.18 281.18C97.87 264.47 129.53 258.74 130.86 258.51C132.74 258.22 134.55 259.2 135.26 260.94C135.98 262.68 135.38 264.68 133.83 265.74C133.53 265.95 103.66 287.7 95.98 364.41C88.18 442.4 106.32 481.91 106.5 482.3C107.09 483.54 107 484.99 106.26 486.14C105.53 487.3 104.26 488 102.89 488C95.91 488 71.49 488 68 488C66.86 488 65.78 487.51 65.02 486.66ZM88.02 363.6C93.26 311.15 108.48 283.19 118.9 269.77C108.83 272.89 95.33 278.32 86.82 286.83C65.42 308.23 45.53 352.1 40.77 363.03C54.6 375.7 67.88 376 68.02 376C69.75 376.02 71.29 377.16 71.81 378.82C72.33 380.47 71.72 382.28 70.3 383.28C67.31 385.39 43.33 402.28 40.33 404.39C47.34 448.82 65.29 474.1 69.9 480C75.32 480 94.29 480 97 480C92.11 466.22 81.62 427.65 88.02 363.6Z" id="hHOL0W3mj"></path><path d="M188 401.66C180.1 409.56 175.71 413.95 174.83 414.82C173.27 416.38 170.74 416.38 169.18 414.82C168.3 413.95 163.91 409.56 156 401.66C148.1 409.56 143.71 413.95 142.83 414.82C141.27 416.38 138.74 416.38 137.18 414.82C136.3 413.95 131.91 409.56 124 401.66C116.1 409.56 111.71 413.95 110.83 414.82C109.27 416.38 106.74 416.38 105.18 414.82C103.62 413.26 103.62 410.73 105.18 409.17C106.78 407.57 119.58 394.77 121.18 393.17C122.74 391.61 125.27 391.61 126.83 393.17C127.71 394.05 132.1 398.44 140 406.34C147.9 398.44 152.29 394.05 153.17 393.17C154.73 391.61 157.26 391.61 158.82 393.17C159.7 394.05 164.09 398.44 171.99 406.34C179.89 398.44 184.28 394.05 185.16 393.17C186.72 391.61 189.26 391.61 190.82 393.17C192.42 394.77 205.22 407.57 206.82 409.17C208.38 410.73 208.38 413.26 206.82 414.82C206.05 415.61 205.02 416 204 416C202.98 416 201.95 415.61 201.17 414.83C200.29 413.95 195.9 409.56 188 401.66Z" id="aluKeUPny"></path><path d="M188 401.66C180.1 409.56 175.71 413.95 174.83 414.82C173.27 416.38 170.74 416.38 169.18 414.82C168.3 413.95 163.91 409.56 156 401.66C148.1 409.56 143.71 413.95 142.83 414.82C141.27 416.38 138.74 416.38 137.18 414.82C136.3 413.95 131.91 409.56 124 401.66C116.1 409.56 111.71 413.95 110.83 414.82C109.27 416.38 106.74 416.38 105.18 414.82C103.62 413.26 103.62 410.73 105.18 409.17C106.78 407.57 119.58 394.77 121.18 393.17C122.74 391.61 125.27 391.61 126.83 393.17C127.71 394.05 132.1 398.44 140 406.34C147.9 398.44 152.29 394.05 153.17 393.17C154.73 391.61 157.26 391.61 158.82 393.17C159.7 394.05 164.09 398.44 171.99 406.34C179.89 398.44 184.28 394.05 185.16 393.17C186.72 391.61 189.26 391.61 190.82 393.17C192.42 394.77 205.22 407.57 206.82 409.17C208.38 410.73 208.38 413.26 206.82 414.82C206.05 415.61 205.02 416 204 416C202.98 416 201.95 415.61 201.17 414.83C200.29 413.95 195.9 409.56 188 401.66Z" id="b4yYVSo2rl"></path><path d="M188 433.66C180.1 441.56 175.71 445.95 174.83 446.82C173.27 448.38 170.74 448.38 169.18 446.82C168.3 445.95 163.91 441.56 156 433.66C148.1 441.56 143.71 445.95 142.83 446.82C141.27 448.38 138.74 448.38 137.18 446.82C136.3 445.95 131.91 441.56 124 433.66C116.1 441.56 111.71 445.95 110.83 446.82C109.27 448.38 106.74 448.38 105.18 446.82C103.62 445.26 103.62 442.73 105.18 441.17C106.78 439.57 119.58 426.77 121.18 425.17C122.74 423.61 125.27 423.61 126.83 425.17C127.71 426.05 132.1 430.44 140 438.34C147.9 430.44 152.29 426.05 153.17 425.17C154.73 423.61 157.26 423.61 158.82 425.17C159.7 426.05 164.09 430.44 171.99 438.34C179.89 430.44 184.28 426.05 185.16 425.17C186.72 423.61 189.26 423.61 190.82 425.17C192.42 426.77 205.22 439.57 206.82 441.17C208.38 442.73 208.38 445.26 206.82 446.82C206.05 447.61 205.02 448 204 448C202.98 448 201.95 447.61 201.17 446.83C200.29 445.95 195.9 441.56 188 433.66Z" id="b3G103BF5w"></path><path d="M188 433.66C180.1 441.56 175.71 445.95 174.83 446.82C173.27 448.38 170.74 448.38 169.18 446.82C168.3 445.95 163.91 441.56 156 433.66C148.1 441.56 143.71 445.95 142.83 446.82C141.27 448.38 138.74 448.38 137.18 446.82C136.3 445.95 131.91 441.56 124 433.66C116.1 441.56 111.71 445.95 110.83 446.82C109.27 448.38 106.74 448.38 105.18 446.82C103.62 445.26 103.62 442.73 105.18 441.17C106.78 439.57 119.58 426.77 121.18 425.17C122.74 423.61 125.27 423.61 126.83 425.17C127.71 426.05 132.1 430.44 140 438.34C147.9 430.44 152.29 426.05 153.17 425.17C154.73 423.61 157.26 423.61 158.82 425.17C159.7 426.05 164.09 430.44 171.99 438.34C179.89 430.44 184.28 426.05 185.16 425.17C186.72 423.61 189.26 423.61 190.82 425.17C192.42 426.77 205.22 439.57 206.82 441.17C208.38 442.73 208.38 445.26 206.82 446.82C206.05 447.61 205.02 448 204 448C202.98 448 201.95 447.61 201.17 446.83C200.29 445.95 195.9 441.56 188 433.66Z" id="c7EFy6aN"></path><path d="M0 484C0 477.6 0 426.4 0 420C0 387.16 0 337.53 34.21 320.42C36.91 319.07 58.57 308.24 61.27 306.89C68.19 296.11 74.88 287.46 81.17 281.18C97.86 264.47 129.52 258.74 130.86 258.51C133.02 258.03 135.1 259.58 135.49 261.75C135.87 263.92 134.42 266 132.25 266.38C131.94 266.44 101.73 271.93 86.82 286.83C80.78 292.89 74.25 301.39 67.42 312.12C67.03 312.73 66.49 313.22 65.84 313.55C63.03 314.96 40.59 326.18 37.78 327.58C8 342.47 8 389.13 8 420C8 424 8 444 8 480C41.6 480 310.4 480 344 480C344 444 344 424 344 420C344 380.89 344 350 313.6 327.2C295.83 313.87 275.52 303.05 261.61 296.32C260.73 295.89 260.04 295.16 259.66 294.26C258.4 291.25 257.28 288.42 256.42 285.93C253.34 282.06 231.51 256 204 256C201.79 256 200 254.21 200 252C200 249.79 201.79 248 204 248C237.62 248 262.17 280.22 263.2 281.6C263.46 281.94 263.66 282.33 263.8 282.74C264.5 284.85 265.42 287.24 266.47 289.78C280.64 296.71 300.7 307.53 318.4 320.8C352 346 352 380.29 352 420C352 426.4 352 477.6 352 484C352 486.21 350.21 488 348 488C279.2 488 38.4 488 4 488C1.79 488 0 486.21 0 484Z" id="b1nzWSpSam"></path><path d="M0 484C0 477.6 0 426.4 0 420C0 387.16 0 337.53 34.21 320.42C36.91 319.07 58.57 308.24 61.27 306.89C68.19 296.11 74.88 287.46 81.17 281.18C97.86 264.47 129.52 258.74 130.86 258.51C133.02 258.03 135.1 259.58 135.49 261.75C135.87 263.92 134.42 266 132.25 266.38C131.94 266.44 101.73 271.93 86.82 286.83C80.78 292.89 74.25 301.39 67.42 312.12C67.03 312.73 66.49 313.22 65.84 313.55C63.03 314.96 40.59 326.18 37.78 327.58C8 342.47 8 389.13 8 420C8 424 8 444 8 480C41.6 480 310.4 480 344 480C344 444 344 424 344 420C344 380.89 344 350 313.6 327.2C295.83 313.87 275.52 303.05 261.61 296.32C260.73 295.89 260.04 295.16 259.66 294.26C258.4 291.25 257.28 288.42 256.42 285.93C253.34 282.06 231.51 256 204 256C201.79 256 200 254.21 200 252C200 249.79 201.79 248 204 248C237.62 248 262.17 280.22 263.2 281.6C263.46 281.94 263.66 282.33 263.8 282.74C264.5 284.85 265.42 287.24 266.47 289.78C280.64 296.71 300.7 307.53 318.4 320.8C352 346 352 380.29 352 420C352 426.4 352 477.6 352 484C352 486.21 350.21 488 348 488C279.2 488 38.4 488 4 488C1.79 488 0 486.21 0 484Z" id="d2oQrwb4We"></path><path d="M128 260C128 257.79 129.79 256 132 256C134.21 256 136 257.79 136 260C136 265.6 136 310.4 136 316C136 318.21 134.21 320 132 320C129.79 320 128 318.21 128 316C128 310.4 128 265.6 128 260Z" id="aLEZVw4b3"></path><path d="M128 260C128 257.79 129.79 256 132 256C134.21 256 136 257.79 136 260C136 265.6 136 310.4 136 316C136 318.21 134.21 320 132 320C129.79 320 128 318.21 128 316C128 310.4 128 265.6 128 260Z" id="d30R4Ptc53"></path></defs><g><g><g><use xlink:href="#a31hw1JFAX" opacity="1" fill="#aad2ff" fill-opacity="1"></use><g><use xlink:href="#a31hw1JFAX" opacity="1" fill-opacity="0" stroke="#000000" stroke-width="1" stroke-opacity="0"></use></g></g><g><use xlink:href="#g6EPArM8M" opacity="1" fill="#000000" fill-opacity="0"></use><g><use xlink:href="#g6EPArM8M" opacity="1" fill-opacity="0" stroke="#000000" stroke-width="1" stroke-opacity="0"></use></g></g><g><use xlink:href="#a1D5DJgagh" opacity="1" fill="#bee6ff" fill-opacity="1"></use><g><use xlink:href="#a1D5DJgagh" opacity="1" fill-opacity="0" stroke="#000000" stroke-width="1" stroke-opacity="0"></use></g></g><g><use xlink:href="#b1ocpm812B" opacity="1" fill="#000000" fill-opacity="0"></use><g><use xlink:href="#b1ocpm812B" opacity="1" fill-opacity="0" stroke="#000000" stroke-width="1" stroke-opacity="0"></use></g></g><g><use xlink:href="#b1qO6J4Lal" opacity="1" fill="#bee6ff" fill-opacity="1"></use><g><use xlink:href="#b1qO6J4Lal" opacity="1" fill-opacity="0" stroke="#000000" stroke-width="1" stroke-opacity="0"></use></g></g><g><use xlink:href="#a3ATGxiT1V" opacity="1" fill="#000000" fill-opacity="0"></use><g><use xlink:href="#a3ATGxiT1V" opacity="1" fill-opacity="0" stroke="#000000" stroke-width="1" stroke-opacity="0"></use></g></g><g><use xlink:href="#d1Cs0jW4XD" opacity="1" fill="#96bef0" fill-opacity="1"></use><g><use xlink:href="#d1Cs0jW4XD" opacity="1" fill-opacity="0" stroke="#000000" stroke-width="1" stroke-opacity="0"></use></g></g><g><use xlink:href="#e5iUP2aEpk" opacity="1" fill="#000000" fill-opacity="0"></use><g><use xlink:href="#e5iUP2aEpk" opacity="1" fill-opacity="0" stroke="#000000" stroke-width="1" stroke-opacity="0"></use></g></g><g><use xlink:href="#a1VC8lp383" opacity="1" fill="#f0f0e6" fill-opacity="1"></use><g><use xlink:href="#a1VC8lp383" opacity="1" fill-opacity="0" stroke="#000000" stroke-width="1" stroke-opacity="0"></use></g></g><g><use xlink:href="#b6mW6Hd9E8" opacity="1" fill="#000000" fill-opacity="0"></use><g><use xlink:href="#b6mW6Hd9E8" opacity="1" fill-opacity="0" stroke="#000000" stroke-width="1" stroke-opacity="0"></use></g></g><g><use xlink:href="#awOBZBmxM" opacity="1" fill="#dcdcd2" fill-opacity="1"></use><g><use xlink:href="#awOBZBmxM" opacity="1" fill-opacity="0" stroke="#000000" stroke-width="1" stroke-opacity="0"></use></g></g><g><use xlink:href="#a32XHnjHu" opacity="1" fill="#000000" fill-opacity="0"></use><g><use xlink:href="#a32XHnjHu" opacity="1" fill-opacity="0" stroke="#000000" stroke-width="1" stroke-opacity="0"></use></g></g><g><use xlink:href="#b4ffJNwt8X" opacity="1" fill="#c88c5a" fill-opacity="1"></use><g><use xlink:href="#b4ffJNwt8X" opacity="1" fill-opacity="0" stroke="#000000" stroke-width="1" stroke-opacity="0"></use></g></g><g><use xlink:href="#a4bmo7kedT" opacity="1" fill="#000000" fill-opacity="0"></use><g><use xlink:href="#a4bmo7kedT" opacity="1" fill-opacity="0" stroke="#000000" stroke-width="1" stroke-opacity="0"></use></g></g><g><use xlink:href="#bmxjl9g5K" opacity="1" fill="#f0dc78" fill-opacity="1"></use><g><use xlink:href="#bmxjl9g5K" opacity="1" fill-opacity="0" stroke="#000000" stroke-width="1" stroke-opacity="0"></use></g></g><g><use xlink:href="#b9zx5tiI0" opacity="1" fill="#000000" fill-opacity="0"></use><g><use xlink:href="#b9zx5tiI0" opacity="1" fill-opacity="0" stroke="#000000" stroke-width="1" stroke-opacity="0"></use></g></g><g><use xlink:href="#g1poGwAFma" opacity="1" fill="#c88c5a" fill-opacity="1"></use><g><use xlink:href="#g1poGwAFma" opacity="1" fill-opacity="0" stroke="#000000" stroke-width="1" stroke-opacity="0"></use></g></g><g><use xlink:href="#b9mXF6vre" opacity="1" fill="#000000" fill-opacity="0"></use><g><use xlink:href="#b9mXF6vre" opacity="1" fill-opacity="0" stroke="#000000" stroke-width="1" stroke-opacity="0"></use></g></g><g><use xlink:href="#a1SlOuelkn" opacity="1" fill="#826ec8" fill-opacity="1"></use><g><use xlink:href="#a1SlOuelkn" opacity="1" fill-opacity="0" stroke="#000000" stroke-width="1" stroke-opacity="0"></use></g></g><g><use xlink:href="#a1xu16wzQr" opacity="1" fill="#000000" fill-opacity="0"></use><g><use xlink:href="#a1xu16wzQr" opacity="1" fill-opacity="0" stroke="#000000" stroke-width="1" stroke-opacity="0"></use></g></g><g><use xlink:href="#a2NBFiircc" opacity="1" fill="#8d7bd4" fill-opacity="1"></use><g><use xlink:href="#a2NBFiircc" opacity="1" fill-opacity="0" stroke="#000000" stroke-width="1" stroke-opacity="0"></use></g></g><g><use xlink:href="#a1rCycdBUz" opacity="1" fill="#000000" fill-opacity="0"></use><g><use xlink:href="#a1rCycdBUz" opacity="1" fill-opacity="0" stroke="#000000" stroke-width="1" stroke-opacity="0"></use></g></g><g><use xlink:href="#j1ywc6Jx88" opacity="1" fill="#e1a271" fill-opacity="1"></use><g><use xlink:href="#j1ywc6Jx88" opacity="1" fill-opacity="0" stroke="#000000" stroke-width="1" stroke-opacity="0"></use></g></g><g><use xlink:href="#f3fSZOSHZ5" opacity="1" fill="#000000" fill-opacity="0"></use><g><use xlink:href="#f3fSZOSHZ5" opacity="1" fill-opacity="0" stroke="#000000" stroke-width="1" stroke-opacity="0"></use></g></g><g><use xlink:href="#b1D8rE2ksA" opacity="1" fill="#826ec8" fill-opacity="1"></use><g><use xlink:href="#b1D8rE2ksA" opacity="1" fill-opacity="0" stroke="#000000" stroke-width="1" stroke-opacity="0"></use></g></g><g><use xlink:href="#a5KiRdtL0p" opacity="1" fill="#000000" fill-opacity="0"></use><g><use xlink:href="#a5KiRdtL0p" opacity="1" fill-opacity="0" stroke="#000000" stroke-width="1" stroke-opacity="0"></use></g></g><g><use xlink:href="#d5iBAdW2xu" opacity="1" fill="#785ae6" fill-opacity="1"></use><g><use xlink:href="#d5iBAdW2xu" opacity="1" fill-opacity="0" stroke="#000000" stroke-width="1" stroke-opacity="0"></use></g></g><g><use xlink:href="#c2q53kwiN3" opacity="1" fill="#000000" fill-opacity="0"></use><g><use xlink:href="#c2q53kwiN3" opacity="1" fill-opacity="0" stroke="#000000" stroke-width="1" stroke-opacity="0"></use></g></g><g><use xlink:href="#aIqvoxEB1" opacity="1" fill="#826ec8" fill-opacity="1"></use><g><use xlink:href="#aIqvoxEB1" opacity="1" fill-opacity="0" stroke="#000000" stroke-width="1" stroke-opacity="0"></use></g></g><g><use xlink:href="#a2ogdZnhsp" opacity="1" fill="#000000" fill-opacity="0"></use><g><use xlink:href="#a2ogdZnhsp" opacity="1" fill-opacity="0" stroke="#000000" stroke-width="1" stroke-opacity="0"></use></g></g><g><use xlink:href="#dBPfSD8EH" opacity="1" fill="#785ae6" fill-opacity="1"></use><g><use xlink:href="#dBPfSD8EH" opacity="1" fill-opacity="0" stroke="#000000" stroke-width="1" stroke-opacity="0"></use></g></g><g><use xlink:href="#bLN4pEnfk" opacity="1" fill="#000000" fill-opacity="0"></use><g><use xlink:href="#bLN4pEnfk" opacity="1" fill-opacity="0" stroke="#000000" stroke-width="1" stroke-opacity="0"></use></g></g><g><use xlink:href="#b2bwzOqbOS" opacity="1" fill="#785ae6" fill-opacity="1"></use><g><use xlink:href="#b2bwzOqbOS" opacity="1" fill-opacity="0" stroke="#000000" stroke-width="1" stroke-opacity="0"></use></g></g><g><use xlink:href="#asKfVu22S" opacity="1" fill="#000000" fill-opacity="0"></use><g><use xlink:href="#asKfVu22S" opacity="1" fill-opacity="0" stroke="#000000" stroke-width="1" stroke-opacity="0"></use></g></g><g><use xlink:href="#azup0LGYg" opacity="1" fill="#785ae6" fill-opacity="1"></use><g><use xlink:href="#azup0LGYg" opacity="1" fill-opacity="0" stroke="#000000" stroke-width="1" stroke-opacity="0"></use></g></g><g><use xlink:href="#b1ZEGJUk1Q" opacity="1" fill="#000000" fill-opacity="0"></use><g><use xlink:href="#b1ZEGJUk1Q" opacity="1" fill-opacity="0" stroke="#000000" stroke-width="1" stroke-opacity="0"></use></g></g><g><use xlink:href="#c3mOCO3oNZ" opacity="1" fill="#785ae6" fill-opacity="1"></use><g><use xlink:href="#c3mOCO3oNZ" opacity="1" fill-opacity="0" stroke="#000000" stroke-width="1" stroke-opacity="0"></use></g></g><g><use xlink:href="#bhAqwKxyc" opacity="1" fill="#000000" fill-opacity="0"></use><g><use xlink:href="#bhAqwKxyc" opacity="1" fill-opacity="0" stroke="#000000" stroke-width="1" stroke-opacity="0"></use></g></g><g><use xlink:href="#grzQVEKYh" opacity="1" fill="#785ae6" fill-opacity="1"></use><g><use xlink:href="#grzQVEKYh" opacity="1" fill-opacity="0" stroke="#000000" stroke-width="1" stroke-opacity="0"></use></g></g><g><use xlink:href="#b1FOyqyQHg" opacity="1" fill="#000000" fill-opacity="0"></use><g><use xlink:href="#b1FOyqyQHg" opacity="1" fill-opacity="0" stroke="#000000" stroke-width="1" stroke-opacity="0"></use></g></g><g><use xlink:href="#cKF9BTqZR" opacity="1" fill="#785ae6" fill-opacity="1"></use><g><use xlink:href="#cKF9BTqZR" opacity="1" fill-opacity="0" stroke="#000000" stroke-width="1" stroke-opacity="0"></use></g></g><g><use xlink:href="#bfy6NQyHX" opacity="1" fill="#000000" fill-opacity="0"></use><g><use xlink:href="#bfy6NQyHX" opacity="1" fill-opacity="0" stroke="#000000" stroke-width="1" stroke-opacity="0"></use></g></g><g><use xlink:href="#gLfMAOrkJ" opacity="1" fill="#785ae6" fill-opacity="1"></use><g><use xlink:href="#gLfMAOrkJ" opacity="1" fill-opacity="0" stroke="#000000" stroke-width="1" stroke-opacity="0"></use></g></g><g><use xlink:href="#g1xTYNoN91" opacity="1" fill="#000000" fill-opacity="0"></use><g><use xlink:href="#g1xTYNoN91" opacity="1" fill-opacity="0" stroke="#000000" stroke-width="1" stroke-opacity="0"></use></g></g><g><use xlink:href="#d6gScWQXEp" opacity="1" fill="#785ae6" fill-opacity="1"></use><g><use xlink:href="#d6gScWQXEp" opacity="1" fill-opacity="0" stroke="#000000" stroke-width="1" stroke-opacity="0"></use></g></g><g><use xlink:href="#b2lyKHpa1P" opacity="1" fill="#000000" fill-opacity="0"></use><g><use xlink:href="#b2lyKHpa1P" opacity="1" fill-opacity="0" stroke="#000000" stroke-width="1" stroke-opacity="0"></use></g></g><g><use xlink:href="#eBV9IJQf5" opacity="1" fill="#82aadc" fill-opacity="1"></use><g><use xlink:href="#eBV9IJQf5" opacity="1" fill-opacity="0" stroke="#000000" stroke-width="1" stroke-opacity="0"></use></g></g><g><use xlink:href="#a4H4C3updB" opacity="1" fill="#000000" fill-opacity="0"></use><g><use xlink:href="#a4H4C3updB" opacity="1" fill-opacity="0" stroke="#000000" stroke-width="1" stroke-opacity="0"></use></g></g><g><use xlink:href="#b1sXiF9VTS" opacity="1" fill="#82aadc" fill-opacity="1"></use><g><use xlink:href="#b1sXiF9VTS" opacity="1" fill-opacity="0" stroke="#000000" stroke-width="1" stroke-opacity="0"></use></g></g><g><use xlink:href="#b2AXMlbKf8" opacity="1" fill="#000000" fill-opacity="0"></use><g><use xlink:href="#b2AXMlbKf8" opacity="1" fill-opacity="0" stroke="#000000" stroke-width="1" stroke-opacity="0"></use></g></g><g><use xlink:href="#f1RNjAxVaw" opacity="1" fill="#785ae6" fill-opacity="1"></use><g><use xlink:href="#f1RNjAxVaw" opacity="1" fill-opacity="0" stroke="#000000" stroke-width="1" stroke-opacity="0"></use></g></g><g><use xlink:href="#e3QDrfTaKC" opacity="1" fill="#000000" fill-opacity="0"></use><g><use xlink:href="#e3QDrfTaKC" opacity="1" fill-opacity="0" stroke="#000000" stroke-width="1" stroke-opacity="0"></use></g></g><g><use xlink:href="#bbh3Q9ZoO" opacity="1" fill="#785ae6" fill-opacity="1"></use><g><use xlink:href="#bbh3Q9ZoO" opacity="1" fill-opacity="0" stroke="#000000" stroke-width="1" stroke-opacity="0"></use></g></g><g><use xlink:href="#bcimEuIMV" opacity="1" fill="#000000" fill-opacity="0"></use><g><use xlink:href="#bcimEuIMV" opacity="1" fill-opacity="0" stroke="#000000" stroke-width="1" stroke-opacity="0"></use></g></g><g><use xlink:href="#bLdZxWmPa" opacity="1" fill="#785ae6" fill-opacity="1"></use><g><use xlink:href="#bLdZxWmPa" opacity="1" fill-opacity="0" stroke="#000000" stroke-width="1" stroke-opacity="0"></use></g></g><g><use xlink:href="#c5DPb4LTjP" opacity="1" fill="#000000" fill-opacity="0"></use><g><use xlink:href="#c5DPb4LTjP" opacity="1" fill-opacity="0" stroke="#000000" stroke-width="1" stroke-opacity="0"></use></g></g><g><use xlink:href="#b1yXMLKCU" opacity="1" fill="#aad2ff" fill-opacity="1"></use><g><use xlink:href="#b1yXMLKCU" opacity="1" fill-opacity="0" stroke="#000000" stroke-width="1" stroke-opacity="0"></use></g></g><g><use xlink:href="#b4tXP6xwyF" opacity="1" fill="#000000" fill-opacity="0"></use><g><use xlink:href="#b4tXP6xwyF" opacity="1" fill-opacity="0" stroke="#000000" stroke-width="1" stroke-opacity="0"></use></g></g><g><use xlink:href="#gCZDj4gMO" opacity="1" fill="#96bef0" fill-opacity="1"></use><g><use xlink:href="#gCZDj4gMO" opacity="1" fill-opacity="0" stroke="#000000" stroke-width="1" stroke-opacity="0"></use></g></g><g><use xlink:href="#b2pvvqqNid" opacity="1" fill="#000000" fill-opacity="0"></use><g><use xlink:href="#b2pvvqqNid" opacity="1" fill-opacity="0" stroke="#000000" stroke-width="1" stroke-opacity="0"></use></g></g><g><use xlink:href="#c2qB8aCiT" opacity="1" fill="#bee6ff" fill-opacity="1"></use><g><use xlink:href="#c2qB8aCiT" opacity="1" fill-opacity="0" stroke="#000000" stroke-width="1" stroke-opacity="0"></use></g></g><g><use xlink:href="#b5OIN8yS7j" opacity="1" fill="#000000" fill-opacity="0"></use><g><use xlink:href="#b5OIN8yS7j" opacity="1" fill-opacity="0" stroke="#000000" stroke-width="1" stroke-opacity="0"></use></g></g><g><use xlink:href="#a1cHN76MHs" opacity="1" fill="#82aadc" fill-opacity="1"></use><g><use xlink:href="#a1cHN76MHs" opacity="1" fill-opacity="0" stroke="#000000" stroke-width="1" stroke-opacity="0"></use></g></g><g><use xlink:href="#h8cv3XMU" opacity="1" fill="#000000" fill-opacity="0"></use><g><use xlink:href="#h8cv3XMU" opacity="1" fill-opacity="0" stroke="#000000" stroke-width="1" stroke-opacity="0"></use></g></g><g><use xlink:href="#c9IJXwLjs3" opacity="1" fill="#aad2ff" fill-opacity="1"></use><g><use xlink:href="#c9IJXwLjs3" opacity="1" fill-opacity="0" stroke="#000000" stroke-width="1" stroke-opacity="0"></use></g></g><g><use xlink:href="#c110ppqXpX" opacity="1" fill="#000000" fill-opacity="0"></use><g><use xlink:href="#c110ppqXpX" opacity="1" fill-opacity="0" stroke="#000000" stroke-width="1" stroke-opacity="0"></use></g></g><g><use xlink:href="#anhw3WQgY" opacity="1" fill="#96bef0" fill-opacity="1"></use><g><use xlink:href="#anhw3WQgY" opacity="1" fill-opacity="0" stroke="#000000" stroke-width="1" stroke-opacity="0"></use></g></g><g><use xlink:href="#d1wbSJT8F6" opacity="1" fill="#000000" fill-opacity="0"></use><g><use xlink:href="#d1wbSJT8F6" opacity="1" fill-opacity="0" stroke="#000000" stroke-width="1" stroke-opacity="0"></use></g></g><g><use xlink:href="#e1lGsQhCo" opacity="1" fill="#bee6ff" fill-opacity="1"></use><g><use xlink:href="#e1lGsQhCo" opacity="1" fill-opacity="0" stroke="#000000" stroke-width="1" stroke-opacity="0"></use></g></g><g><use xlink:href="#bVdKrPDbS" opacity="1" fill="#000000" fill-opacity="0"></use><g><use xlink:href="#bVdKrPDbS" opacity="1" fill-opacity="0" stroke="#000000" stroke-width="1" stroke-opacity="0"></use></g></g><g><use xlink:href="#a5rZ6Ouyzg" opacity="1" fill="#82aadc" fill-opacity="1"></use><g><use xlink:href="#a5rZ6Ouyzg" opacity="1" fill-opacity="0" stroke="#000000" stroke-width="1" stroke-opacity="0"></use></g></g><g><use xlink:href="#hHOL0W3mj" opacity="1" fill="#000000" fill-opacity="0"></use><g><use xlink:href="#hHOL0W3mj" opacity="1" fill-opacity="0" stroke="#000000" stroke-width="1" stroke-opacity="0"></use></g></g><g><use xlink:href="#aluKeUPny" opacity="1" fill="#f0dc78" fill-opacity="1"></use><g><use xlink:href="#aluKeUPny" opacity="1" fill-opacity="0" stroke="#000000" stroke-width="1" stroke-opacity="0"></use></g></g><g><use xlink:href="#b4yYVSo2rl" opacity="1" fill="#000000" fill-opacity="0"></use><g><use xlink:href="#b4yYVSo2rl" opacity="1" fill-opacity="0" stroke="#000000" stroke-width="1" stroke-opacity="0"></use></g></g><g><use xlink:href="#b3G103BF5w" opacity="1" fill="#f0dc78" fill-opacity="1"></use><g><use xlink:href="#b3G103BF5w" opacity="1" fill-opacity="0" stroke="#000000" stroke-width="1" stroke-opacity="0"></use></g></g><g><use xlink:href="#c7EFy6aN" opacity="1" fill="#000000" fill-opacity="0"></use><g><use xlink:href="#c7EFy6aN" opacity="1" fill-opacity="0" stroke="#000000" stroke-width="1" stroke-opacity="0"></use></g></g><g><use xlink:href="#b1nzWSpSam" opacity="1" fill="#785ae6" fill-opacity="1"></use><g><use xlink:href="#b1nzWSpSam" opacity="1" fill-opacity="0" stroke="#000000" stroke-width="1" stroke-opacity="0"></use></g></g><g><use xlink:href="#d2oQrwb4We" opacity="1" fill="#000000" fill-opacity="0"></use><g><use xlink:href="#d2oQrwb4We" opacity="1" fill-opacity="0" stroke="#000000" stroke-width="1" stroke-opacity="0"></use></g></g><g><use xlink:href="#aLEZVw4b3" opacity="1" fill="#785ae6" fill-opacity="1"></use><g><use xlink:href="#aLEZVw4b3" opacity="1" fill-opacity="0" stroke="#000000" stroke-width="1" stroke-opacity="0"></use></g></g><g><use xlink:href="#d30R4Ptc53" opacity="1" fill="#000000" fill-opacity="0"></use><g><use xlink:href="#d30R4Ptc53" opacity="1" fill-opacity="0" stroke="#000000" stroke-width="1" stroke-opacity="0"></use></g></g></g></g></svg>