<?xml version="1.0" encoding="utf-8"?>
<!-- Generator: Adobe Illustrator 19.2.0, SVG Export Plug-In . SVG Version: 6.00 Build 0)  -->
<!DOCTYPE svg PUBLIC "-//W3C//DTD SVG 1.1//EN" "http://www.w3.org/Graphics/SVG/1.1/DTD/svg11.dtd">
<svg version="1.1" id="Layer_1" xmlns="http://www.w3.org/2000/svg" xmlns:xlink="http://www.w3.org/1999/xlink" x="0px" y="0px"
	 viewBox="0 0 276 67" style="enable-background:new 0 0 276 67;" xml:space="preserve">
<style type="text/css">
	.st0{fill:#0280C8;}
</style>
<title>Wawanesa Insurance</title>
<g>
	<path class="st0" d="M134.7,16l-0.7,2.3c-0.8-1.6-2.5-2.5-4.3-2.6c-4.4,0-9.2,5.3-10.9,11.9c-1.7,6.6,0,11.9,4.5,11.9
		c2,0,4-1.7,5.7-4.2l-1,3.4h7.8l7-22.7L134.7,16L134.7,16z M131.6,27.5c-1,2.7-2.1,4.9-3.7,4.9c-1.2,0-1-2.1-0.1-4.9s2.4-5,3.5-5
		C133,22.5,132.6,24.8,131.6,27.5L131.6,27.5z"/>
	<path class="st0" d="M185.9,16l-0.6,2.3c-0.9-1.6-2.5-2.6-4.3-2.6c-4.4,0-9.2,5.3-10.9,11.9s0.1,11.9,4.5,11.9c2,0,4-1.7,5.7-4.2
		l-1,3.4h7.8l7-22.7L185.9,16L185.9,16z M182.8,27.5c-1,2.7-2.1,4.9-3.7,4.9c-1.2,0-1.1-2.1-0.1-4.9s2.4-5,3.6-5
		C184.1,22.5,183.7,24.8,182.8,27.5L182.8,27.5z"/>
	<path class="st0" d="M204.7,25.8c0.1-0.9,0-1.7-0.6-2c-0.7-0.4-2,0.4-2.6,1.8l-0.2,0.6l-3.9,12.6h-8.1l7.1-22.7h8.1l-1,3.3
		c1.9-3.3,5.7-4.9,8.5-3.4c2.8,1.3,2.5,4.2,1.8,7.2l-4.9,15.6h-8.1L204.7,25.8L204.7,25.8z"/>
	<path class="st0" d="M116.7,28.3c-3.5,11.5-11.2,13.6-15,12.5c-2.1-0.7-3.7-2.4-4.4-4.5c-2,3.1-5.4,5.8-9.5,4.5
		c-4.2-1.3-5.1-6-2.8-12.5l8-24.7h7.9l-8.3,26.1c-0.4,1.4-0.2,2.4,1,2.4c1,0,1.9-0.8,2.6-2.4c0.1-0.2,0.2-0.4,0.3-0.6l8.2-25.4h7.9
		l-8.2,26.1c-0.4,1.4-0.2,2.4,1,2.4c1,0,1.9-0.8,2.6-2.4c0.1-0.2,0.1-0.4,0.2-0.6l8.3-25.4h8.2L116.7,28.3L116.7,28.3z"/>
	<path class="st0" d="M267.1,16l-0.7,2.3c-0.8-1.6-2.5-2.6-4.3-2.6c-4.4,0-9.2,5.3-10.9,11.9c-1.7,6.6,0,11.9,4.5,11.9
		c2,0,4-1.7,5.7-4.2l-1,3.4h7.8l7-22.7L267.1,16L267.1,16z M264,27.5c-0.9,2.7-2.1,4.9-3.7,4.9c-1.2,0-1.1-2.1-0.1-4.9s2.4-5,3.6-5
		C265.4,22.5,265,24.8,264,27.5L264,27.5z"/>
	<path class="st0" d="M233.7,28.9c1.7-5.2,1.5-10.9-2.4-12.9c-4.5-2.2-10.8-0.2-14.9,5.7c-4.2,5.9-4.6,13.6-0.1,16.1
		s10.7,1,14.8-4.5l-6-3.1c-0.9,1.7-2.4,2.6-3.3,2c-0.9-0.5-0.9-2-0.3-3.3L233.7,28.9L233.7,28.9z M223.7,23c0.9-1.6,2.1-2,2.9-1.5
		c0.6,0.4,0.8,1.2,0.4,2.7h-3.8C223.4,23.8,223.5,23.4,223.7,23z"/>
	<path class="st0" d="M152.1,34.6c-1.3,2-3.5,4.7-7,4.7c-6.1,0-5.3-6.3-4.2-9.9c1.1-3.6,4.3-13.4,4.3-13.4h7.6l-4.9,15.5
		c-0.3,1,0.1,1.4,0.7,1.4s1.1-0.3,1.7-1.4l5-15.5h7.1l-4.9,15.3c-0.3,0.9,0,1.4,0.7,1.4c0.7,0,1-0.2,1.5-1.2l5.1-15.5h7.4
		c0,0-2.5,8.5-4.6,14.6c-2.1,6.1-5.5,8.5-10.3,8.5C153.9,39.2,152.2,37,152.1,34.6L152.1,34.6z"/>
	<path class="st0" d="M226.8,56.6c1.1-3.5,1-7.2-1.6-8.5c-2.9-1.5-7.1-0.1-9.9,3.8c-2.8,3.9-3.1,9-0.1,10.7s7.1,0.6,9.8-3l-4-2
		c-0.6,1.1-1.6,1.7-2.2,1.3c-0.6-0.3-0.6-1.3-0.2-2.2L226.8,56.6L226.8,56.6z M220.2,52.7c0.6-1,1.4-1.3,1.9-1s0.5,0.8,0.3,1.8
		l-2.5,0C220,53.3,220.1,53,220.2,52.7L220.2,52.7z"/>
	<path class="st0" d="M180.5,47.7l-0.4,1.5c-0.6-1-1.7-1.7-2.9-1.7c-2.9,0-6.1,3.6-7.2,7.9s0,7.9,2.9,7.9c1.3,0,2.6-1.1,3.8-2.8
		l-0.7,2.3h5.2l4.6-15H180.5z M178.4,55.3c-0.6,1.8-1.4,3.2-2.4,3.2c-0.8,0-0.7-1.4-0.1-3.2c0.6-1.8,1.6-3.3,2.4-3.3
		C179.3,52,179.1,53.5,178.4,55.3L178.4,55.3z"/>
	<path class="st0" d="M238.8,28.4c-2.7-2-3.7-4.8-2.3-8.1c1.5-4,5.8-6.4,11.4-5.3c2.6,0.6,3.5,1.2,5.1,2.3l-4.4,5.7
		c-0.3-0.6-0.7-1.1-1.3-1.4c-1.3-0.8-2.7-0.7-3.1,0.1c-0.4,0.9-0.6,1.7,1.5,2.6l0.3,0.1c1.4,0.9,3,1.5,3.6,5.2
		c0,6.8-6.8,10-12.3,8.9c-2.2-0.3-4.2-1.3-5.9-2.8l4.5-5.7c0.3,0.9,0.9,1.6,1.7,2c1.4,0.7,2.9,0.5,3.4-0.4s0.4-1.8-1.3-2.6
		L238.8,28.4L238.8,28.4L238.8,28.4z"/>
	<path class="st0" d="M193.7,54.4c0.1-0.6,0-1.2-0.4-1.4c-0.5-0.2-1.3,0.3-1.7,1.2c-0.1,0.1-0.1,0.2-0.2,0.4l-2.6,8.3h-5.4l4.7-15.1
		h5.4l-0.7,2.2c1.3-2.2,3.8-3.2,5.6-2.3c1.8,0.9,1.7,2.8,1.2,4.8L196.4,63H191L193.7,54.4L193.7,54.4z"/>
	<path class="st0" d="M126.9,54.8c0.1-0.7,0-1.2-0.4-1.4c-0.5-0.2-1.3,0.3-1.7,1.2c-0.1,0.1-0.1,0.2-0.2,0.4l-2.6,8.3h-5.4l4.7-15
		h5.4l-0.7,2.2c1.2-2.2,3.7-3.2,5.6-2.3c1.8,0.9,1.6,2.8,1.2,4.8l-3.2,10.4h-5.4L126.9,54.8L126.9,54.8L126.9,54.8z"/>
	<polygon class="st0" points="115.5,41.9 121.3,41.9 114.4,63.3 108.6,63.3 115.5,41.9 	"/>
	<path class="st0" d="M147.5,48h5.5l-3.1,9.3c-0.2,0.6-0.1,1.1,0.7,1.3c0.6,0.1,1.1-0.3,1.3-0.8l3.3-9.8l5.5,0l-3.2,9.6
		c-1.2,3.4-4.1,5.7-8.5,5.7s-5.7-2.8-4.7-5.7C145.2,54.6,147.5,48,147.5,48L147.5,48L147.5,48z"/>
	<path class="st0" d="M162.3,48c0,0-4.4,13.1-4.9,14.9h5.5c0,0,1.5-4.3,1.8-5.3c0,0,1.3-5.9,5.1-3.8l2-6.2c0,0-2.4-0.4-4.6,1.9
		l0.6-1.5L162.3,48L162.3,48z"/>
	<path class="st0" d="M209.2,53.3c0.1-0.8-0.1-1.4-0.5-1.6c-0.8-0.4-2,0.6-3.1,2.9c-0.9,2-1.3,3.7-0.2,4.2c0.7,0.3,1.7-0.4,2.4-1.7
		l4,1.7c-2.2,4.2-7.2,5.7-10.1,3.9c-2.9-1.8-2.8-6-0.4-10.2c2.6-4.3,7.4-6.1,10.5-4.5c1.8,1,2.3,2.8,2,5L209.2,53.3L209.2,53.3
		L209.2,53.3z"/>
	<path class="st0" d="M0,33c0-1,0.1-1.9,0.2-2.9c3.6,0.3,4.3,2,7.5,2c3.5,0,5.2-2,8.7-2s5.2,2,8.6,2c1.3,0,2.6-0.3,3.9-0.8v2.9
		c-1.2,0.5-2.5,0.8-3.8,0.8c-3.5,0-5.2-2-8.7-2s-5.2,2-8.7,2C4.4,34.9,3.8,33.3,0,33L0,33L0,33z"/>
	<path class="st0" d="M42.4,45.3c-0.8,0-1.5-0.1-2.3-0.3l2.5-2.6c3.3-0.1,3.9-2,8.5-2c4.8,0,5.3,2,8.8,2c2.6,0,4.2-1.1,6.4-1.7
		c-0.2,1.1-0.5,2.1-0.8,3.1c-1.7,0.6-3.3,1.4-5.5,1.4c-3.5,0-4-2-8.8-2C46.5,43.2,45.9,45.3,42.4,45.3L42.4,45.3L42.4,45.3z"/>
	<path class="st0" d="M20.2,2.8c8.5-3.7,18.2-3.7,26.7,0C45.5,3.3,44.4,4,42.4,4c-3.5,0-5.3-2-8.8-2S28.4,4,25,4
		C23.1,4,21.6,3.3,20.2,2.8L20.2,2.8z"/>
	<path class="st0" d="M11.3,8.4c1.8-1.6,3.7-2.9,5.7-4.1c3,0.2,4.7,1.9,7.9,2c3.5,0,5.2-2,8.7-2s5.3,2,8.8,2c3.2,0,3.9-1.7,7.6-2
		c1.8,1,3.4,2.1,5,3.4c-1.2-0.4-2.5-0.6-3.9-0.6c-4.6,0-5.2,2-8.7,2c-3.5,0-5.3-2-8.8-2s-5.2,2-8.6,2s-5.2-2-8.7-2
		C14.3,7.1,12.9,7.8,11.3,8.4L11.3,8.4L11.3,8.4z"/>
	<path class="st0" d="M6.1,14.2c0.7-1,1.4-1.9,2.2-2.8c3.1-0.2,4.8-2,8-2c3.5,0,5.2,2,8.6,2c3.5,0,5.2-2,8.7-2s5.3,2,8.8,2
		c3.5,0,4-2,8.7-2c4.2,0,5.1,1.6,7.6,2c0.8,0.9,1.6,1.9,2.3,2.9c-0.4,0-0.7,0.1-1.1,0.1c-3.5,0-4-2-8.8-2c-4.6,0-5.2,2-8.7,2
		c-3.5,0-5.3-2-8.8-2s-5.2,2-8.6,2c-3.4,0.1-5.2-2-8.7-2s-5.2,2-8.7,2C7.1,14.3,6.6,14.3,6.1,14.2L6.1,14.2L6.1,14.2z"/>
	<path class="st0" d="M3.6,18.4c0.4-0.8,0.8-1.5,1.3-2.3c0.9,0.3,1.8,0.5,2.8,0.5c3.5,0,5.2-2,8.7-2s5.2,2,8.6,2.1
		c3.5,0,5.2-2,8.7-2s5.3,2,8.8,2c3.5,0,4-2,8.7-2c4.8,0,5.3,2,8.8,2c0.8,0,1.6-0.1,2.4-0.3c0.5,0.8,0.9,1.6,1.3,2.4
		c-1.2,0.5-2.4,0.7-3.7,0.8c-3.5,0-4-2-8.8-2c-4.6,0-5.2,2-8.7,2c-3.5,0-5.3-2-8.8-2s-5.2,2-8.6,2s-5.2-2-8.7-2s-5.2,2-8.7,2
		C5.8,19.5,4.8,19,3.6,18.4L3.6,18.4L3.6,18.4z"/>
	<path class="st0" d="M1.7,22.9c0.3-0.9,0.6-1.7,1-2.6c1.7,0.6,2.7,1.4,5,1.4c3.5,0,5.2-2,8.7-2s5.2,2,8.6,2c3.5,0,5.2-2,8.7-2
		s5.3,2,8.8,2c3.5,0,4-2,8.7-2c4.8,0,5.3,2,8.8,2c1.6-0.1,3.2-0.5,4.6-1.1c0.4,0.8,0.7,1.7,1,2.6c-1.8,0.6-3.3,1.4-5.6,1.4
		c-3.5,0-4-2-8.8-2c-4.6,0-5.2,2-8.7,2c-3.5,0-5.3-2-8.8-2s-5.2,2-8.6,2s-5.2-2-8.7-2s-5.2,2-8.7,2C5,24.7,4.1,23.5,1.7,22.9
		L1.7,22.9L1.7,22.9z"/>
	<path class="st0" d="M0.5,27.9c0.2-1,0.4-1.9,0.6-2.8c2.9,0.5,3.7,1.9,6.6,1.9c3.5,0,5.2-2,8.7-2s5.2,2,8.6,2c3.5,0,5.2-2,8.7-2
		s5.3,2,8.8,2c3.5,0,4-2,8.7-2c4.8,0,5.3,2,8.8,2c2.5,0,4.1-1.1,6.1-1.7c0.2,0.9,0.4,1.8,0.6,2.7c-2.3,0.5-4,1.8-6.7,1.8
		c-3.5,0-4-2-8.8-2c-4.6,0-5.2,2-8.7,2c-3.5,0-5.3-2-8.8-2s-5.2,2-8.6,2s-5.2-2-8.7-2s-5.2,2-8.7,2C4.6,29.8,3.8,28.2,0.5,27.9
		L0.5,27.9L0.5,27.9z"/>
	<path class="st0" d="M48.3,63.6c-9.3,4.6-20.2,4.6-29.5,0H48.3z"/>
	<path class="st0" d="M55.3,58.9c-1.1,0.9-2.3,1.8-3.5,2.6H15.3c-1.2-0.8-2.4-1.7-3.5-2.6H55.3z"/>
	<path class="st0" d="M26.7,45.1c-0.6,0.1-1.1,0.2-1.7,0.2c-3.5,0-5.2-2-8.7-2s-5.2,2-8.7,2c-2.7,0-3.6-1.2-6.1-1.7
		c-0.3-1-0.6-2-0.8-3c3.1,0.4,3.9,1.9,6.9,1.9c3.5,0,5.2-2,8.7-2s5.2,2,8.6,2l1.3,1.2c0.2,0.3,0.4,0.7,0.4,1.1
		C26.7,44.8,26.7,45,26.7,45.1L26.7,45.1L26.7,45.1z"/>
	<path class="st0" d="M27.5,37.4l0.2,0.1l1,0.8c-0.5-0.4-1-0.8-1.5-1.2L27.5,37.4L27.5,37.4L27.5,37.4z"/>
	<path class="st0" d="M27,37c0.6-0.1,1.2-0.4,1.8-0.6v1.9l-1-0.8l-0.2-0.1l-0.3-0.2L27,37L27,37L27,37z"/>
	<path class="st0" d="M22.3,39.7c-1.9-0.6-3.5-1.6-6-1.6c-3.5,0-5.2,2-8.7,2c-3.1,0-3.8-1.6-7.3-2c-0.1-1-0.2-1.9-0.3-2.9
		c3.7,0.3,4.4,2,7.6,2c3.5,0,5.2-2,8.7-2c0.6,0,1.1,0.1,1.7,0.1l2,2L22.3,39.7L22.3,39.7L22.3,39.7z"/>
	<path class="st0" d="M38.1,39.1H38v-2.9c0.8,0.3,1.5,0.6,2.3,0.8L38.1,39.1L38.1,39.1z"/>
	<path class="st0" d="M51.1,38.1c-2.9,0-4.2,0.8-5.6,1.4l4-4.2c0.5,0,1-0.1,1.6-0.1c4.8,0,5.3,2,8.8,2c2.9,0,4.6-1.4,7.1-1.9
		c0,1-0.1,2-0.3,2.9c-2.4,0.5-4,1.8-6.8,1.8C56.4,40.1,55.9,38.1,51.1,38.1L51.1,38.1L51.1,38.1z"/>
	<path class="st0" d="M38,31.1c1.3,0.5,2.6,1,4.5,1c3.5,0,4-2,8.7-2c4.8,0,5.3,2,8.8,2c2.9,0,4.6-1.4,7-1.9C67,31.1,67,32.1,67,33
		c-2.6,0.5-4.2,1.9-7.2,1.9c-3.5,0-4-2-8.8-2c-4.6,0-5.2,2-8.7,2c-1.5,0-3.1-0.4-4.5-1L38,31.1L38,31.1L38,31.1z"/>
	<path class="st0" d="M60,54.1c-0.8,1-1.6,2-2.5,2.9H9.6c-0.9-0.9-1.7-1.9-2.5-2.9h21.2v-8.7c0-1-0.3-2-0.8-2.8l-6.3-6.2
		c1.3,0.5,2.7,0.8,4,0.8l4.1,3.5c0,0,1,0.6,1-0.6v-9.4c0,0,3.1-1.4,6.2-0.2v10.7c0,0,0,1.6,1.3,0.3l4.3-4.3c0.9,0,1.7-0.1,2.6-0.3
		c0.6-0.2,1.2-0.5,1.8-0.8l0.2-0.1l-8.9,9.2c-0.4,0.7-0.6,1.5-0.5,2.4v6.5L60,54.1L60,54.1z"/>
	<path class="st0" d="M135.9,57.1c-1.8-1.3-2.5-3.2-1.5-5.4c1-2.7,3.9-4.3,7.6-3.6c1.2,0.2,2.4,0.8,3.3,1.5l-2.9,3.8
		c-0.2-0.4-0.5-0.7-0.8-1c-0.9-0.5-1.8-0.5-2.1,0.1c-0.3,0.6-0.4,1.2,1,1.8l0.2,0.1c0.9,0.6,2,1,2.4,3.5c0,4.5-4.5,6.6-8.1,5.9
		c-1.4-0.2-2.8-0.9-3.8-1.9l2.9-3.8c0.2,0.6,0.6,1.1,1.2,1.3c0.9,0.5,1.9,0.4,2.2-0.3c0.3-0.6,0.3-1.3-0.9-1.8L135.9,57.1
		L135.9,57.1L135.9,57.1z"/>
</g>
</svg>
