<?xml version="1.0" encoding="UTF-8" standalone="no"?>
<!DOCTYPE svg PUBLIC "-//W3C//DTD SVG 1.1//EN" "http://www.w3.org/Graphics/SVG/1.1/DTD/svg11.dtd">
<svg version="1.1" xmlns="http://www.w3.org/2000/svg" xmlns:xlink="http://www.w3.org/1999/xlink" preserveAspectRatio="xMidYMid meet" viewBox="0 0 512 512" width="512" height="512"><defs><path d="M316 308L316 229.92L235.56 276L235.56 316.22L316 308Z" id="bGUQAwpT0"></path><path d="M235.56 316.22C233.37 317.27 217.64 324.59 188 332C121.69 348.58 108 372 108 436C108 440.27 108 461.6 108 500C314.4 500 429.07 500 452 500C452 500 452 476 452 436C452 436 460 356 404 340C348 324 316 308 316 308C299.91 309.64 251.65 314.57 235.56 316.22Z" id="c16JrpdEvy"></path><path d="M171.98 131.66C166.89 131.88 161.57 132 156 132C92 132 76 84 76 52C76 20 108 4 140 12C172 20 164 44 212 44C260 44 324 28 356 60C388 92 359.34 179.25 341.67 211.62C338.71 217.06 340 223.18 340 228C340 252 328.9 251.29 306.46 251.29C279.56 227.36 198.88 155.59 171.98 131.66Z" id="a7m13oyjW8"></path><path d="M212 60C260 60 324 44 356 76C365.1 85.1 369.18 98.76 370.12 114.28C371.53 92.24 368.14 72.14 356 60C324 28 260 44 212 44C164 44 172 20 140 12C108 4 76 20 76 52C76 55.02 76.2 58.22 76.51 61.46C80.58 33.87 110.26 20.57 140 28C172 36 164 60 212 60Z" id="cpYb0r0it"></path><path d="M147.18 135.64C104.5 126.82 104 70.4 104 68C104 65.79 105.79 64 108 64C110.2 64 112 65.79 112 68C112 68.51 112.5 120.3 148.82 127.82C150.98 128.26 152.37 130.38 151.92 132.54C151.52 134.43 149.86 135.73 148.01 135.73C147.74 135.73 147.46 135.7 147.18 135.64Z" id="c5NsUOCQ0J"></path><path d="M311.08 276C311.08 273.53 311.08 253.73 311.08 251.26C311.08 249.07 312.84 247.29 315.02 247.26C330.87 247.03 336 245.49 336 228C336 226.99 335.94 225.93 335.87 224.82C335.62 220.42 335.31 214.93 338.15 209.71C354.98 178.89 383.19 92.86 353.17 62.83C330.31 39.98 289.34 43.06 249.75 46.05C236.47 47.06 223.91 48 212 48C182.17 48 172.5 38.92 163.14 30.14C156.99 24.37 151.19 18.93 139.03 15.89C122.06 11.64 105.07 14.49 93.56 23.46C84.69 30.39 80 40.26 80 52C80 64.69 83.66 128 156 128C161.5 128 166.78 127.88 171.82 127.66C173.98 127.56 175.89 129.28 175.98 131.5C176.08 133.7 174.36 135.57 172.15 135.66C167.01 135.88 161.62 136 156 136C94.07 136 72 92.61 72 52C72 37.91 77.91 25.54 88.64 17.16C102.09 6.67 121.65 3.31 140.97 8.12C155.14 11.66 162.3 18.38 168.61 24.3C177.21 32.38 185.34 40 212 40C223.61 40 236.02 39.06 249.16 38.07C290.56 34.95 333.37 31.71 358.83 57.18C394.22 92.57 361.22 184.18 345.18 213.54C343.43 216.75 343.66 220.63 343.86 224.38C343.93 225.63 344 226.85 344 228C344 250.82 333.46 254.51 319.08 255.15C319.08 257.24 319.08 273.92 319.08 276C319.08 278.21 317.29 280 315.08 280C312.87 280 311.08 278.21 311.08 276Z" id="b6um4dxPq"></path><path d="M172 116C172 183.2 172 220.53 172 228C172 254.51 193.49 276 220 276C224 276 256 276 260 276C286.51 276 316 254.51 316 228C317.6 228 330.4 228 332 228C345.26 228 356 217.26 356 204C356 202.4 356 189.6 356 188C356 174.74 345.26 164 332 164C330.93 164 325.6 164 316 164L276 116L172 116Z" id="c4sbEDX1HK"></path><path d="M324 156C324 196 316 220 300 220C284 220 300 132 276 124C254.09 116.7 225.5 129.4 171.98 131.66C171.98 129.55 171.98 119 171.98 100L324 100C324 129.87 324 148.53 324 156Z" id="b1nMAAF0BC"></path><path d="M155.7 119.1C141.14 104.58 143.91 84.27 144.04 83.42C144.36 81.24 146.32 79.65 148.57 80.04C150.74 80.35 152.26 82.38 151.96 84.56C151.94 84.73 149.68 101.86 161.41 113.5C171.83 123.83 190.02 127.13 215.42 123.35C217.54 122.99 219.64 124.52 219.95 126.72C220.28 128.9 218.78 130.94 216.58 131.26C209.47 132.34 202.83 132.86 196.7 132.86C178.62 132.86 164.87 128.26 155.7 119.1Z" id="g2HuqWwb1A"></path><path d="M184 196C184 193.6 184 174.4 184 172C184 169.79 185.79 168 188 168C190.21 168 192 169.79 192 172C192 174.4 192 193.6 192 196C192 198.21 190.21 200 188 200C185.79 200 184 198.21 184 196Z" id="aKPbdGjfI"></path><path d="M265.17 166.83C244.48 146.15 231.34 158.33 230.8 158.86C229.22 160.38 226.7 160.37 225.15 158.79C223.62 157.23 223.62 154.73 225.17 153.18C225.35 153 244.32 134.67 270.82 161.18C272.38 162.74 272.38 165.27 270.82 166.83C270.05 167.61 269.02 168 268 168C266.98 168 265.95 167.61 265.17 166.83Z" id="djMlnIxC"></path><path d="M193.18 158.84C192.27 157.95 184.18 150.58 174.43 158.18C172.71 159.54 170.18 159.23 168.82 157.49C167.46 155.74 167.77 153.24 169.51 151.87C181.96 142.16 194.13 148.48 198.82 153.17C200.38 154.73 200.38 157.26 198.82 158.82C198.05 159.61 197.02 160 196 160C194.98 160 193.96 159.62 193.18 158.84Z" id="a19PXc8RP"></path><path d="M316 232C313.79 232 312 230.21 312 228C312 225.79 313.79 224 316 224C317.6 224 330.4 224 332 224C343.03 224 352 215.03 352 204C352 202.4 352 189.6 352 188C352 176.97 343.03 168 332 168C331.2 168 324.8 168 324 168C321.79 168 320 166.21 320 164C320 161.79 321.79 160 324 160C324.8 160 331.2 160 332 160C347.44 160 360 172.56 360 188C360 189.6 360 202.4 360 204C360 219.44 347.44 232 332 232C328.8 232 317.6 232 316 232Z" id="b4WsC2kRu9"></path><path d="M220 280C191.33 280 168 256.67 168 228C168 218.4 168 141.6 168 132C168 129.79 169.79 128 172 128C174.21 128 176 129.79 176 132C176 141.6 176 218.4 176 228C176 252.26 195.74 272 220 272C224 272 256 272 260 272C262.21 272 264 273.79 264 276C264 278.21 262.21 280 260 280C252 280 224 280 220 280Z" id="bMSsMkuLU"></path><path d="M204 248C201.79 248 200 246.21 200 244C200 241.79 201.79 240 204 240C208 240 240 240 244 240C247.22 240 247.95 237.8 248 235.95C248.06 233.78 249.83 232.02 252 232.02C252.02 232.02 252.03 232.02 252.05 232.03C254.24 232.06 256 233.82 256 236C256 240.82 252.81 248 244 248C236 248 208 248 204 248Z" id="a45LglJy5L"></path><path d="M240 196C240 193.6 240 174.4 240 172C240 169.79 241.79 168 244 168C246.21 168 248 169.79 248 172C248 174.4 248 193.6 248 196C248 198.21 246.21 200 244 200C241.79 200 240 198.21 240 196Z" id="ajhkW8S3A"></path><path d="M148 172C148 188 148 211.62 172 211.62C180.69 211.62 186.21 208.51 189.74 204.56C191.27 200.02 193.6 194.43 195.94 189.14C196 188.43 196 188 196 188C196.03 188 196.18 188 196.45 188C210.58 188 218.43 188 220 188C220 188 220 212 244 212C276 212 276 188 276 188C278.67 188 292 188 316 188L316 172C226.4 172 170.4 172 148 172Z" id="b1ghJ9A4eC"></path><path d="M216.3 192C214.57 192 200.77 192 199.05 192C196.58 197.62 194.74 202.27 193.54 205.83C193.37 206.34 193.09 206.82 192.72 207.23C187.74 212.79 180.77 215.62 172 215.62C144 215.62 144 187.25 144 172C144 169.79 145.79 168 148 168C164.8 168 299.2 168 316 168C318.21 168 320 169.79 320 172C320 173.6 320 186.4 320 188C320 190.21 318.21 192 316 192C312.35 192 283.14 192 279.49 192C277.88 199.74 271.26 216 244 216C224.63 216 217.73 201.99 216.3 192ZM220 184C222.19 184 223.98 185.79 224 187.98C224.02 190.03 224.7 208 244 208C271.68 208 272 188.82 272 188C272 185.79 273.79 184 276 184C278.4 184 290.4 184 312 184L312 176C216.01 176 162.69 176 152.02 176C152.29 193.65 154.79 207.62 172 207.62C178.07 207.62 182.85 205.88 186.23 202.46C187.55 198.66 189.48 193.87 191.99 188.18C191.99 188.16 192 188 192 187.98C192.02 185.79 193.81 184 196 184C200.8 184 217.6 184 220 184Z" id="d1Gg2XgfXz"></path><path d="M184 212C184 209.5 184.86 204.2 192.34 187.38C193.25 185.35 195.61 184.46 197.62 185.34C199.64 186.24 200.55 188.61 199.66 190.62C192.55 206.61 192 211.02 192 212C192 214.41 199.22 216 204 216C206.21 216 208 217.79 208 220C208 222.21 206.21 224 204 224C194.78 224 184 220.86 184 212Z" id="b1szX5k4dy"></path><path d="M316 324C316 324 348 340 404 356C442.84 367.1 450.89 408.96 452.18 433.58C452.97 420.2 454.25 354.35 404 340C348 324 316 308 316 308C316 311.2 316 320.8 316 324Z" id="b2I9cLagFf"></path><path d="M235.56 332.22C235.56 330.62 235.56 317.82 235.56 316.22C233.37 317.27 217.64 324.59 188 332C121.69 348.58 108 372 108 436C108 437.6 108 450.4 108 452C108 388 121.69 364.58 188 348C217.63 340.59 233.37 333.27 235.56 332.22Z" id="axh5gD1c7"></path><path d="M108 500C180 500 220 500 228 500C228 500 220 494.34 220 484C212.53 484 175.2 484 108 484L108 500Z" id="a1G5Q7sVbk"></path><path d="M217.03 323.5C217.03 323.5 228 324 228 308C228 308 228 292 228 292C228 292 284 287.38 316 277.69C316 279.71 316 289.81 316 308L324 324L252 500L228 500L204 460L204 348C210.95 334.93 215.29 326.76 217.03 323.5Z" id="arnjSmrjD"></path><path d="M218.4 484L228 500L252 500L258.54 484L218.4 484Z" id="e1fJSsSXP0"></path><path d="M188 404C168.8 418.4 158.13 426.4 156 428C164 460 180 500 180 500C184.74 500 222.65 500 227.39 500C188 380 220 316 220 316C216 316.8 184 323.2 180 324C180 324 164 348 156 396C160.27 397.07 170.93 399.73 188 404Z" id="aaarFXPnbp"></path><path d="M214.06 333.49C217.06 321.97 220 316 220 316C216 316.8 184 323.2 180 324C180 324 175.45 330.88 170 344.5C178.81 342.3 205.25 335.69 214.06 333.49Z" id="c4z17pvCDU"></path><path d="M173.9 484C177.46 493.62 180 500 180 500C184.74 500 222.65 500 227.39 500C227.32 499.77 227.26 499.56 227.19 499.33C225.19 497.62 220 492.38 220 484C210.78 484 178.51 484 173.9 484Z" id="a1IOxJDTNW"></path><path d="M180 504C178.37 504 176.89 503.01 176.29 501.49C176.12 501.09 160.1 460.87 152.12 428.98C151.73 427.42 152.31 425.78 153.61 424.81C155.29 423.54 163.72 417.23 178.88 405.86C164.58 402.28 156.63 400.29 155.04 399.9C153.02 399.39 151.72 397.41 152.06 395.36C156.8 366.95 164.31 346.77 169.78 334.84C170.7 332.83 173.09 331.95 175.08 332.87C177.09 333.78 177.97 336.16 177.05 338.17C172.02 349.14 165.19 367.42 160.58 393.04C163.42 393.75 186.14 399.43 188.98 400.14C190.48 400.51 191.62 401.71 191.93 403.23C192.23 404.74 191.64 406.3 190.41 407.22C187.42 409.46 163.54 427.38 160.55 429.62C167.38 455.92 179.26 487.07 182.74 496.02C186.65 496.02 217.99 496.02 221.9 496.02C192 401.26 206.1 342.22 213.67 320.99C214.42 318.9 216.7 317.81 218.78 318.57C220.86 319.31 221.95 321.6 221.21 323.68C215.4 339.94 198.98 400.61 231.19 498.75C231.6 499.97 231.38 501.3 230.64 502.34C229.87 503.38 228.67 504 227.39 504C217.91 504 184.74 504 180 504Z" id="a1hIFlljBd"></path><path d="M452 500C452 500 452 494.34 452 484C432.8 484 279.2 484 260 484C260 493.74 252 500 252 500C292 500 432 500 452 500Z" id="g7wIbDv6IJ"></path><path d="M321.78 306.29C321.78 306.29 270.92 428 253.46 500C258.28 500 296.88 500 301.7 500C301.7 500 339.99 436 355.99 420C353.86 418.93 343.19 413.6 323.99 404L363.99 388L355.99 316C337.75 310.82 326.35 307.58 321.78 306.29Z" id="a5e8eEIQHc"></path><path d="M358.2 335.8L356 316C335.47 310.17 324.07 306.94 321.78 306.29C321.78 306.29 319.22 312.42 315.07 322.68C320.82 324.43 335.2 328.8 358.2 335.8Z" id="a1ZJaP5uYc"></path><path d="M260 484C260 490.66 256.29 495.63 253.92 498.15C253.77 498.76 253.6 499.4 253.46 500C258.28 500 296.88 500 301.7 500C301.7 500 305.64 493.42 311.49 484C301.19 484 270.3 484 260 484Z" id="a1la6gSYB9"></path><path d="M253.46 504C252.24 504 251.08 503.44 250.32 502.48C249.55 501.51 249.28 500.26 249.57 499.06C265.34 434.03 308.12 328.9 316.54 308.49C317.38 306.44 319.73 305.46 321.76 306.32C323.81 307.15 324.78 309.5 323.93 311.54C315.76 331.35 275.09 431.28 258.57 496.01C262.65 496.01 295.35 496.01 299.43 496.01C305.6 485.8 333.59 439.84 349.46 421.22C346.74 419.85 324.93 408.95 322.2 407.58C320.79 406.88 319.93 405.42 319.99 403.84C320.06 402.26 321.05 400.88 322.5 400.3C324.98 399.3 337.37 394.35 359.67 385.42C355.66 349.35 353.44 329.3 352.99 325.3C352.75 323.1 354.33 321.12 356.52 320.87C358.8 320.66 360.7 322.22 360.94 324.4C361.65 330.72 367.26 381.24 367.96 387.56C368.15 389.35 367.14 391.06 365.46 391.72C363.35 392.57 352.77 396.8 333.74 404.42C348.16 411.63 356.17 415.63 357.77 416.43C358.92 417.01 359.72 418.1 359.93 419.37C360.14 420.63 359.72 421.93 358.81 422.84C343.34 438.31 305.5 501.42 305.12 502.06C304.42 503.26 303.12 504 301.71 504C292.06 504 258.29 504 253.46 504Z" id="a3Q36JbF3"></path><path d="M368 500C368 490.4 368 413.6 368 404C368 401.79 369.79 400 372 400C374.21 400 376 401.79 376 404C376 413.6 376 490.4 376 500C376 502.21 374.21 504 372 504C369.79 504 368 502.21 368 500Z" id="a3dNzw4U"></path><path d="M136 500C136 490.4 136 413.6 136 404C136 401.79 137.79 400 140 400C142.21 400 144 401.79 144 404C144 413.6 144 490.4 144 500C144 502.21 142.21 504 140 504C137.79 504 136 502.21 136 500Z" id="e1Pxm44ku"></path><path d="M108 504C105.79 504 104 502.21 104 500C104 493.6 104 442.4 104 436C104 378.66 113.85 350.07 172.23 332.19C174.36 331.56 176.58 332.74 177.23 334.85C177.87 336.97 176.69 339.2 174.58 339.85C125.46 354.88 112 375.55 112 436C112 440 112 460 112 496L448 496C448 460 448 440 448 436C448.1 434.83 455.01 358.74 402.9 343.84C386.59 339.18 370.69 334.05 355.62 328.6C353.54 327.85 352.46 325.56 353.22 323.48C353.98 321.39 356.3 320.33 358.34 321.08C373.24 326.47 388.97 331.54 405.1 336.15C463.63 352.87 456.06 435.56 455.98 436.39C455.98 442.75 456 493.64 456 500C456 502.21 454.21 504 452 504C383.2 504 142.4 504 108 504Z" id="a4c97cjup"></path><path d="M231.55 291.15C231.55 289.64 231.55 277.52 231.55 276C231.55 273.79 233.34 272 235.55 272C237.76 272 239.55 273.79 239.55 276C239.55 277.52 239.55 289.64 239.55 291.15C239.55 293.36 237.77 295.15 235.55 295.15C233.34 295.15 231.55 293.36 231.55 291.15Z" id="auo0HQQYB"></path><path d="M171.74 340.12C169.73 339.2 168.86 336.82 169.78 334.82C173.68 326.31 176.55 321.97 176.67 321.78C177.26 320.9 178.18 320.29 179.22 320.08C183.22 319.28 215.22 312.88 219.22 312.08C220.66 311.76 222.24 312.35 223.17 313.58C224.1 314.78 224.26 316.42 223.58 317.78C223.52 317.91 222.55 319.89 221.2 323.68C220.46 325.76 218.18 326.88 216.09 326.1C214.14 325.41 213.06 323.34 213.55 321.37C210.45 321.99 185.59 326.96 182.49 327.58C181.42 329.38 179.44 332.91 177.03 338.15C176.37 339.62 174.92 340.49 173.41 340.49C172.85 340.49 172.28 340.37 171.74 340.12Z" id="cb5sW8lE"></path><path d="M353.01 325.29C352.96 324.88 352.73 322.82 352.32 319.12L324.12 311.1C324.01 311.36 323.96 311.51 323.94 311.54C323.53 312.55 322.71 313.35 321.69 313.74C320.67 314.15 319.53 314.1 318.54 313.62C318.11 313.42 314.72 311.82 314.3 311.62C312.89 310.95 312 309.54 312 308C312 305.5 312 285.49 312 282.99C284.27 290.44 244.3 294.52 232 295.66C232 296.9 232 306.77 232 308C232 314.9 230.17 320.16 226.56 323.6C222.36 327.62 217.42 327.62 216.85 327.49C214.64 327.39 212.94 325.52 213.03 323.32C213.14 321.14 215.1 319.76 217.14 319.5C217.31 319.5 219.38 319.46 221.12 317.72C223.01 315.86 224 312.5 224 308C224 306.4 224 293.6 224 292C224 289.92 225.59 288.18 227.67 288.02C228.22 287.97 283.62 283.32 314.84 273.86C316.02 273.5 317.36 273.73 318.38 274.48C319.39 275.23 320 276.43 320 277.7C320 280.2 320 300.2 320 302.7C320.86 302.27 321.86 302.15 322.87 302.43C326.29 303.4 353.67 311.18 357.09 312.15C358.65 312.6 359.79 313.95 359.97 315.56C360.07 316.44 360.85 323.52 360.95 324.4C361.19 326.59 359.62 328.58 357.42 328.82C357.27 328.83 357.13 328.84 356.98 328.84C354.97 328.84 353.23 327.33 353.01 325.29Z" id="d2s7HnZgrn"></path></defs><g><g><g><use xlink:href="#bGUQAwpT0" opacity="1" fill="#c88c5a" fill-opacity="1"></use><g><use xlink:href="#bGUQAwpT0" opacity="1" fill-opacity="0" stroke="#000000" stroke-width="1" stroke-opacity="0"></use></g></g><g><use xlink:href="#c16JrpdEvy" opacity="1" fill="#e678a0" fill-opacity="1"></use><g><use xlink:href="#c16JrpdEvy" opacity="1" fill-opacity="0" stroke="#000000" stroke-width="1" stroke-opacity="0"></use></g></g><g><use xlink:href="#a7m13oyjW8" opacity="1" fill="#826ec8" fill-opacity="1"></use><g><use xlink:href="#a7m13oyjW8" opacity="1" fill-opacity="0" stroke="#000000" stroke-width="1" stroke-opacity="0"></use></g></g><g><use xlink:href="#cpYb0r0it" opacity="1" fill="#8d7bd4" fill-opacity="1"></use><g><use xlink:href="#cpYb0r0it" opacity="1" fill-opacity="0" stroke="#000000" stroke-width="1" stroke-opacity="0"></use></g></g><g><use xlink:href="#c5NsUOCQ0J" opacity="1" fill="#8d7bd4" fill-opacity="1"></use><g><use xlink:href="#c5NsUOCQ0J" opacity="1" fill-opacity="0" stroke="#000000" stroke-width="1" stroke-opacity="0"></use></g></g><g><use xlink:href="#b6um4dxPq" opacity="1" fill="#785ae6" fill-opacity="1"></use><g><use xlink:href="#b6um4dxPq" opacity="1" fill-opacity="0" stroke="#000000" stroke-width="1" stroke-opacity="0"></use></g></g><g><use xlink:href="#c4sbEDX1HK" opacity="1" fill="#e1a271" fill-opacity="1"></use><g><use xlink:href="#c4sbEDX1HK" opacity="1" fill-opacity="0" stroke="#000000" stroke-width="1" stroke-opacity="0"></use></g></g><g><use xlink:href="#b1nMAAF0BC" opacity="1" fill="#826ec8" fill-opacity="1"></use><g><use xlink:href="#b1nMAAF0BC" opacity="1" fill-opacity="0" stroke="#000000" stroke-width="1" stroke-opacity="0"></use></g></g><g><use xlink:href="#g2HuqWwb1A" opacity="1" fill="#8d7bd4" fill-opacity="1"></use><g><use xlink:href="#g2HuqWwb1A" opacity="1" fill-opacity="0" stroke="#000000" stroke-width="1" stroke-opacity="0"></use></g></g><g><use xlink:href="#aKPbdGjfI" opacity="1" fill="#785ae6" fill-opacity="1"></use><g><use xlink:href="#aKPbdGjfI" opacity="1" fill-opacity="0" stroke="#000000" stroke-width="1" stroke-opacity="0"></use></g></g><g><use xlink:href="#djMlnIxC" opacity="1" fill="#785ae6" fill-opacity="1"></use><g><use xlink:href="#djMlnIxC" opacity="1" fill-opacity="0" stroke="#000000" stroke-width="1" stroke-opacity="0"></use></g></g><g><use xlink:href="#a19PXc8RP" opacity="1" fill="#785ae6" fill-opacity="1"></use><g><use xlink:href="#a19PXc8RP" opacity="1" fill-opacity="0" stroke="#000000" stroke-width="1" stroke-opacity="0"></use></g></g><g><use xlink:href="#b4WsC2kRu9" opacity="1" fill="#785ae6" fill-opacity="1"></use><g><use xlink:href="#b4WsC2kRu9" opacity="1" fill-opacity="0" stroke="#000000" stroke-width="1" stroke-opacity="0"></use></g></g><g><use xlink:href="#bMSsMkuLU" opacity="1" fill="#785ae6" fill-opacity="1"></use><g><use xlink:href="#bMSsMkuLU" opacity="1" fill-opacity="0" stroke="#000000" stroke-width="1" stroke-opacity="0"></use></g></g><g><use xlink:href="#a45LglJy5L" opacity="1" fill="#785ae6" fill-opacity="1"></use><g><use xlink:href="#a45LglJy5L" opacity="1" fill-opacity="0" stroke="#000000" stroke-width="1" stroke-opacity="0"></use></g></g><g><use xlink:href="#ajhkW8S3A" opacity="1" fill="#785ae6" fill-opacity="1"></use><g><use xlink:href="#ajhkW8S3A" opacity="1" fill-opacity="0" stroke="#000000" stroke-width="1" stroke-opacity="0"></use></g></g><g><use xlink:href="#b1ghJ9A4eC" opacity="1" fill="#8d7bd4" fill-opacity="1"></use><g><use xlink:href="#b1ghJ9A4eC" opacity="1" fill-opacity="0" stroke="#000000" stroke-width="1" stroke-opacity="0"></use></g></g><g><use xlink:href="#d1Gg2XgfXz" opacity="1" fill="#785ae6" fill-opacity="1"></use><g><use xlink:href="#d1Gg2XgfXz" opacity="1" fill-opacity="0" stroke="#000000" stroke-width="1" stroke-opacity="0"></use></g></g><g><use xlink:href="#b1szX5k4dy" opacity="1" fill="#785ae6" fill-opacity="1"></use><g><use xlink:href="#b1szX5k4dy" opacity="1" fill-opacity="0" stroke="#000000" stroke-width="1" stroke-opacity="0"></use></g></g><g><use xlink:href="#b2I9cLagFf" opacity="1" fill="#fa8cb4" fill-opacity="1"></use><g><use xlink:href="#b2I9cLagFf" opacity="1" fill-opacity="0" stroke="#000000" stroke-width="1" stroke-opacity="0"></use></g></g><g><use xlink:href="#axh5gD1c7" opacity="1" fill="#fa8cb4" fill-opacity="1"></use><g><use xlink:href="#axh5gD1c7" opacity="1" fill-opacity="0" stroke="#000000" stroke-width="1" stroke-opacity="0"></use></g></g><g><use xlink:href="#a1G5Q7sVbk" opacity="1" fill="#d2648c" fill-opacity="1"></use><g><use xlink:href="#a1G5Q7sVbk" opacity="1" fill-opacity="0" stroke="#000000" stroke-width="1" stroke-opacity="0"></use></g></g><g><use xlink:href="#arnjSmrjD" opacity="1" fill="#96aaf0" fill-opacity="1"></use><g><use xlink:href="#arnjSmrjD" opacity="1" fill-opacity="0" stroke="#000000" stroke-width="1" stroke-opacity="0"></use></g></g><g><use xlink:href="#e1fJSsSXP0" opacity="1" fill="#8296dc" fill-opacity="1"></use><g><use xlink:href="#e1fJSsSXP0" opacity="1" fill-opacity="0" stroke="#000000" stroke-width="1" stroke-opacity="0"></use></g></g><g><use xlink:href="#aaarFXPnbp" opacity="1" fill="#fa8cb4" fill-opacity="1"></use><g><use xlink:href="#aaarFXPnbp" opacity="1" fill-opacity="0" stroke="#000000" stroke-width="1" stroke-opacity="0"></use></g></g><g><use xlink:href="#c4z17pvCDU" opacity="1" fill="#ffa0c8" fill-opacity="1"></use><g><use xlink:href="#c4z17pvCDU" opacity="1" fill-opacity="0" stroke="#000000" stroke-width="1" stroke-opacity="0"></use></g></g><g><use xlink:href="#a1IOxJDTNW" opacity="1" fill="#e678a0" fill-opacity="1"></use><g><use xlink:href="#a1IOxJDTNW" opacity="1" fill-opacity="0" stroke="#000000" stroke-width="1" stroke-opacity="0"></use></g></g><g><use xlink:href="#a1hIFlljBd" opacity="1" fill="#d2648c" fill-opacity="1"></use><g><use xlink:href="#a1hIFlljBd" opacity="1" fill-opacity="0" stroke="#000000" stroke-width="1" stroke-opacity="0"></use></g></g><g><use xlink:href="#g7wIbDv6IJ" opacity="1" fill="#d2648c" fill-opacity="1"></use><g><use xlink:href="#g7wIbDv6IJ" opacity="1" fill-opacity="0" stroke="#000000" stroke-width="1" stroke-opacity="0"></use></g></g><g><use xlink:href="#a5e8eEIQHc" opacity="1" fill="#fa8cb4" fill-opacity="1"></use><g><use xlink:href="#a5e8eEIQHc" opacity="1" fill-opacity="0" stroke="#000000" stroke-width="1" stroke-opacity="0"></use></g></g><g><use xlink:href="#a1ZJaP5uYc" opacity="1" fill="#ffa0c8" fill-opacity="1"></use><g><use xlink:href="#a1ZJaP5uYc" opacity="1" fill-opacity="0" stroke="#000000" stroke-width="1" stroke-opacity="0"></use></g></g><g><use xlink:href="#a1la6gSYB9" opacity="1" fill="#e678a0" fill-opacity="1"></use><g><use xlink:href="#a1la6gSYB9" opacity="1" fill-opacity="0" stroke="#000000" stroke-width="1" stroke-opacity="0"></use></g></g><g><use xlink:href="#a3Q36JbF3" opacity="1" fill="#d2648c" fill-opacity="1"></use><g><use xlink:href="#a3Q36JbF3" opacity="1" fill-opacity="0" stroke="#000000" stroke-width="1" stroke-opacity="0"></use></g></g><g><use xlink:href="#a3dNzw4U" opacity="1" fill="#d2648c" fill-opacity="1"></use><g><use xlink:href="#a3dNzw4U" opacity="1" fill-opacity="0" stroke="#000000" stroke-width="1" stroke-opacity="0"></use></g></g><g><use xlink:href="#e1Pxm44ku" opacity="1" fill="#d2648c" fill-opacity="1"></use><g><use xlink:href="#e1Pxm44ku" opacity="1" fill-opacity="0" stroke="#000000" stroke-width="1" stroke-opacity="0"></use></g></g><g><use xlink:href="#a4c97cjup" opacity="1" fill="#785ae6" fill-opacity="1"></use><g><use xlink:href="#a4c97cjup" opacity="1" fill-opacity="0" stroke="#000000" stroke-width="1" stroke-opacity="0"></use></g></g><g><use xlink:href="#auo0HQQYB" opacity="1" fill="#785ae6" fill-opacity="1"></use><g><use xlink:href="#auo0HQQYB" opacity="1" fill-opacity="0" stroke="#000000" stroke-width="1" stroke-opacity="0"></use></g></g><g><use xlink:href="#cb5sW8lE" opacity="1" fill="#785ae6" fill-opacity="1"></use><g><use xlink:href="#cb5sW8lE" opacity="1" fill-opacity="0" stroke="#000000" stroke-width="1" stroke-opacity="0"></use></g></g><g><use xlink:href="#d2s7HnZgrn" opacity="1" fill="#785ae6" fill-opacity="1"></use><g><use xlink:href="#d2s7HnZgrn" opacity="1" fill-opacity="0" stroke="#000000" stroke-width="1" stroke-opacity="0"></use></g></g></g></g></svg>