<svg enable-background="new 0 0 64 64" height="512" viewBox="0 0 64 64" width="512" xmlns="http://www.w3.org/2000/svg"><path d="m39.5 32.5c4-5 4-10 4-10l1-10s1.361.703 2.399-.871-.009-3.934-2.399-2.922c.658-.997.751-3.352-.839-3.868s-2.794.731-2.794.731c.172-2.579-1.848-3.223-3.223-3.094s-2.106 1.418-2.106 1.418c-1.031-1.762-2.278-2.149-3.739-1.739s-1.848 1.309-1.848 1.309c-1.581-1.807-3.567-1.461-4.606-.645-1.038.817-.845 2.321-.845 2.321-1.454-1.891-3.875-.903-4.348.473-.473 1.375.516 2.45.516 2.45-1.805-.129-2.751 1.332-2.407 2.837.344 1.503 2.239 1.6 2.239 1.6l1 5z" fill="#826ec8"/><path d="m44.5 10.707c1.276-.541 2.164-.117 2.562.633.698-1.455-.186-3.325-2.145-2.779.102.787-.083 1.641-.417 2.146z" fill="#8d7bd4"/><path d="m24.5 7.14s-.193-1.504.846-2.321 3.024-1.162 4.606.645c0 0 .387-.9 1.848-1.309s2.708-.023 3.739 1.739c0 0 .731-1.289 2.106-1.418s3.395.516 3.223 3.094c0 0 1.203-1.246 2.794-.731.592.192.95.64 1.133 1.177.331-1.133.16-2.758-1.133-3.177-1.59-.516-2.794.731-2.794.731.172-2.579-1.848-3.223-3.223-3.094s-2.106 1.418-2.106 1.418c-1.031-1.762-2.278-2.149-3.739-1.739s-1.848 1.309-1.848 1.309c-1.581-1.807-3.567-1.461-4.606-.645s-.846 2.321-.846 2.321c-1.454-1.891-3.875-.903-4.348.473-.243.708-.099 1.333.098 1.776.642-1.251 2.876-2.035 4.25-.249z" fill="#8d7bd4"/><path d="m18.41 11.282c.357-.77 1.142-1.299 2.258-1.22 0 0-.766-.837-.623-1.977-1.394.208-2.085 1.494-1.784 2.814.033.144.091.264.149.383z" fill="#8d7bd4"/><path d="m29.5 36.361s-2 1.139-6 3.139c0 0-4 1-8 3s-4 8-4 12 0 8 0 8h47s0-3 0-8 0-9-4-12-11-5-11-5c-3-2-5-3-5-3z" fill="#96aaf0"/><g fill="#a2baff"><path d="m27.279 60.306c-.145 0-.289-.062-.388-.185-.466-.571-.92-1.147-1.361-1.728-.168-.219-.125-.533.095-.7.217-.167.531-.128.7.095.436.57.884 1.139 1.342 1.702.175.214.143.529-.072.703-.093.076-.204.113-.316.113z"/><path d="m24.037 56.001c-.157 0-.312-.074-.409-.213-.537-.767-1.052-1.533-1.547-2.294-.15-.231-.085-.541.146-.691.23-.149.54-.085.691.146.489.751.998 1.508 1.527 2.265.159.227.104.538-.122.696-.087.062-.186.091-.286.091z"/><path d="m20.277 50.12c-.171 0-.339-.089-.432-.247-1.408-2.406-2.739-4.926-3.956-7.488-.119-.25-.013-.548.236-.666.247-.12.548-.013.666.236 1.206 2.537 2.523 5.031 3.917 7.412.14.238.06.545-.179.685-.079.046-.166.068-.252.068z"/><path d="m19.468 62.86c-.137 0-.272-.056-.371-.165-2.798-3.096-5.483-6.702-7.982-10.721-.146-.234-.074-.542.161-.688.233-.144.543-.073.688.161 2.468 3.968 5.117 7.526 7.875 10.578.185.204.169.521-.036.706-.096.086-.215.129-.335.129z"/><path d="m17.375 52.827c-.133 0-.265-.053-.362-.156-.19-.2-.183-.517.019-.706 2.468-2.342 5.062-4.681 7.711-6.952.208-.178.524-.154.705.055.18.209.155.525-.055.705-2.636 2.261-5.218 4.588-7.674 6.917-.097.091-.22.137-.344.137z"/><path d="m11.5 58.647c-.125 0-.25-.046-.347-.14-.199-.191-.205-.508-.014-.707.747-.776 1.596-1.642 2.541-2.583.195-.193.512-.195.707.002.194.195.194.512-.002.707-.939.936-1.782 1.795-2.525 2.567-.098.103-.229.154-.36.154z"/><path d="m17.5 63c-.114 0-.229-.039-.323-.118-.211-.179-.236-.494-.059-.705.035-.041 3.606-4.243 10.038-10.332.201-.19.517-.18.707.02.189.2.181.517-.02.707-6.388 6.046-9.927 10.21-9.962 10.252-.098.115-.239.176-.381.176z"/><path d="m54.5 42.5c-4-3-11-5-11-5-.396-.264-.772-.509-1.131-.738.324.62.637 1.463.759 2.495 0 0-.001 0-.001-.001.126.083.243.157.374.244 0 0 7 2 11 5s4 7 4 12c0-.626 0-1.29 0-2-.001-5-.001-9-4.001-12z"/><path d="m25.218 38.631c.009-.005.018-.009.026-.013-.537.274-1.106.563-1.745.883 0 0-4 1-8 3s-4 8-4 12v2c0-4 0-10 4-12s8-3 8-3c.398-.199.761-.383 1.12-.565.128-.904.346-1.679.599-2.305z"/><path d="m39.513 62.91c-.136 0-.271-.056-.37-.164-1.688-1.863-3.348-3.928-4.933-6.136-.161-.225-.109-.537.114-.698.224-.162.536-.11.698.114 1.563 2.178 3.198 4.213 4.86 6.048.186.205.17.521-.034.706-.095.087-.215.13-.335.13z"/><path d="m49.5 62.896c-.136 0-.272-.056-.371-.164-3.811-4.212-7.363-9.296-10.56-15.109-.133-.242-.044-.546.197-.68.242-.132.545-.045.68.197 3.158 5.747 6.665 10.767 10.425 14.92.185.205.169.521-.035.707-.096.087-.216.129-.336.129z"/><path d="m58.499 61.763c-.141 0-.279-.059-.379-.174-.875-1.014-1.746-2.089-2.59-3.194-.168-.22-.125-.534.094-.701.22-.167.532-.126.701.094.832 1.091 1.69 2.15 2.553 3.149.18.209.157.524-.053.705-.094.081-.21.121-.326.121z"/><path d="m54.036 56c-.157 0-.312-.074-.41-.214-.688-.983-1.373-2.013-2.039-3.06-.148-.233-.079-.542.153-.69.231-.148.541-.079.69.153.658 1.035 1.336 2.052 2.016 3.024.158.226.103.538-.124.696-.087.062-.186.091-.286.091z"/><path d="m50.279 50.124c-.171 0-.339-.089-.432-.248-.814-1.393-1.609-2.834-2.363-4.284-.128-.245-.032-.547.213-.674.242-.13.546-.033.674.213.746 1.436 1.533 2.862 2.34 4.241.14.238.06.544-.18.684-.079.046-.166.068-.252.068z"/><path d="m46.985 44c-.184 0-.361-.103-.448-.278-.947-1.92-1.851-3.911-2.612-5.759-.105-.255.016-.548.271-.652.257-.106.548.016.652.271.525 1.273 1.4 3.297 2.585 5.696.122.248.021.548-.227.67-.07.035-.146.052-.221.052z"/><path d="m42.656 47.993c-.138 0-.275-.057-.374-.169-.184-.207-.164-.522.043-.705 2.714-2.401 5.548-4.781 8.424-7.073.215-.173.53-.137.702.079.173.216.137.53-.079.702-2.862 2.282-5.684 4.65-8.385 7.04-.094.085-.213.126-.331.126z"/><path d="m34.575 55.535c-.129 0-.258-.05-.355-.148-.194-.196-.192-.514.004-.707 1.836-1.813 3.763-3.64 5.728-5.43.204-.187.521-.172.706.032.187.204.172.521-.032.706-1.955 1.781-3.872 3.6-5.698 5.402-.099.097-.226.145-.353.145z"/><path d="m47.5 52.708c-.133 0-.265-.053-.363-.156-.189-.2-.181-.518.02-.707 2.833-2.681 5.808-5.339 8.842-7.901.211-.177.526-.151.704.06.179.211.151.526-.06.704-3.019 2.551-5.979 5.196-8.799 7.864-.097.091-.221.136-.344.136z"/><path d="m37.5 63c-.114 0-.229-.039-.323-.118-.211-.179-.236-.494-.059-.705.023-.027 2.347-2.764 6.595-6.99.195-.193.512-.195.707.002.194.195.194.513-.002.707-4.215 4.193-6.514 6.9-6.536 6.928-.099.115-.24.176-.382.176z"/><path d="m47.5 63c-.114 0-.229-.039-.323-.118-.211-.179-.237-.494-.059-.705.038-.045 3.921-4.614 10.891-11.134.202-.188.519-.179.707.023s.178.519-.023.707c-6.924 6.476-10.772 11.005-10.811 11.05-.099.116-.24.177-.382.177z"/></g><path d="m42.35 36.749c-2.35-1.499-3.85-2.249-3.85-2.249l-9 1.861s-1.414.805-4.243 2.251l-.019-.036c-.399.969-.738 2.277-.738 3.924 0 4 3 6 3 7s0 13 0 13h7.022s0-12 0-13 5.978-1 7.978-6c1.242-3.105.556-5.439-.143-6.762z" fill="#e678a0"/><path d="m27.5 62.5h7s0-.708 0-2h-7z" fill="#d2648c"/><path d="m29.5 36.361s-3 2.139-3 5.139 6 6 11 3 5-7 1-10z" fill="#c88c5a"/><path d="m34.5 62.5h24s0-.708 0-2h-24z" fill="#8296dc"/><path d="m35.522 61.5v-11.596c.23-.098.582-.22.882-.324 1.924-.668 5.505-1.911 7.024-5.708 1.036-2.591.871-4.716.365-6.284-.186-.057-.293-.088-.293-.088-.725-.484-1.389-.906-1.983-1.273-.175.29-.214.655-.044.978.641 1.213 1.178 3.225.099 5.923-1.18 2.951-3.974 3.92-5.823 4.562-1.244.432-2.226.773-2.226 1.81v12c0 .552.448 1 1 1s.999-.448.999-1z" fill="#8296dc"/><path d="m11.5 62.5h16s0-.708 0-2h-16z" fill="#8296dc"/><path d="m28.5 61.5v-12c0-.667-.432-1.242-.978-1.97-.854-1.138-2.022-2.696-2.022-5.03 0-1.283.223-2.475.663-3.543.11-.268.09-.554-.024-.798-.636.329-1.382.709-2.199 1.119-.29 1.012-.44 2.09-.44 3.222 0 3 1.516 5.021 2.422 6.229.241.322.542.723.578.771v12c0 .552.448 1 1 1s1-.448 1-1z" fill="#8296dc"/><path d="m49.5 63c-.276 0-.5-.224-.5-.5v-12c0-.276.224-.5.5-.5s.5.224.5.5v12c0 .276-.224.5-.5.5z" fill="#8296dc"/><path d="m15.5 63c-.276 0-.5-.224-.5-.5v-12c0-.276.224-.5.5-.5s.5.224.5.5v12c0 .276-.224.5-.5.5z" fill="#8296dc"/><path d="m58.5 63h-47c-.276 0-.5-.224-.5-.5v-8c0-4.105 0-10.309 4.276-12.447 3.799-1.899 7.536-2.893 8.048-3.024 3.907-1.954 5.908-3.09 5.929-3.102.045-.025.095-.045.146-.055l9-1.861c.111-.021.225-.009.325.042.082.041 2.034 1.022 4.989 2.988.812.237 7.237 2.172 11.087 5.059 4.2 3.15 4.2 7.436 4.2 12.4v8c0 .276-.224.5-.5.5zm-46.5-1h46v-7.5c0-4.889 0-8.75-3.8-11.6-3.879-2.909-10.769-4.899-10.838-4.92-.05-.014-.097-.036-.14-.064-2.473-1.648-4.276-2.62-4.795-2.891l-8.75 1.81c-.389.219-2.395 1.333-5.954 3.112-.032.017-.067.029-.103.038-.039.01-3.996 1.012-7.897 2.962-3.723 1.862-3.723 7.694-3.723 11.553zm11.5-22.5h.01z" fill="#785ae6"/><path d="m29.445 34.5v9l10.055-3v-13.76z" fill="#c88c5a"/><path d="m21.5 14.5v14c0 3.314 2.686 6 6 6h6c3.314 0 6-2.686 6-6h2c1.657 0 3-1.343 3-3v-2c0-1.657-1.343-3-3-3h-2l-3-6z" fill="#e1a271"/><path d="m23.5 25c-.276 0-.5-.224-.5-.5v-3c0-.276.224-.5.5-.5s.5.224.5.5v3c0 .276-.224.5-.5.5z" fill="#785ae6"/><path d="m30.5 25c-.276 0-.5-.224-.5-.5v-3c0-.276.224-.5.5-.5s.5.224.5.5v3c0 .276-.224.5-.5.5z" fill="#785ae6"/><path d="m39.5 39.412c-.276 0-.5-.224-.5-.5v-10.172c0-.276.224-.5.5-.5s.5.224.5.5v10.172c0 .276-.224.5-.5.5z" fill="#785ae6"/><path d="m29.5 42c-.276 0-.5-.224-.5-.5v-7c0-.276.224-.5.5-.5s.5.224.5.5v7c0 .276-.224.5-.5.5z" fill="#785ae6"/><path d="m32.5 35h-5c-3.584 0-6.5-2.916-6.5-6.5v-11c0-.276.224-.5.5-.5s.5.224.5.5v11c0 3.032 2.468 5.5 5.5 5.5h5c.276 0 .5.224.5.5s-.224.5-.5.5z" fill="#785ae6"/><path d="m40.5 15.5v7h-2c-1-2-2-3-2-3 1-3-1-5-1-5h-13l-1 3v-5.197h19z" fill="#826ec8"/><path d="m46.5 57c-.276 0-.5-.224-.5-.5v-1.5h-7v1.5c0 .276-.224.5-.5.5s-.5-.224-.5-.5v-2c0-.276.224-.5.5-.5h8c.276 0 .5.224.5.5v2c0 .276-.224.5-.5.5z" fill="#8296dc"/><path d="m28.5 20.5h6s-2.493-2.206-5-2.056-1 2.056-1 2.056z" fill="#826ec8"/><path d="m21.5 20.5h3s.733-1.61-.233-2.064-2.767 1.032-2.767 1.032z" fill="#826ec8"/><g fill="#785ae6"><path d="m34.5 21h-6c-.153 0-.298-.07-.393-.19-.086-.108-.832-1.092-.446-1.951.246-.55.854-.857 1.81-.914 2.667-.166 5.252 2.085 5.36 2.182.156.138.21.356.137.551-.074.193-.26.322-.468.322zm-5.735-1h4.18c-.896-.545-2.15-1.132-3.415-1.058-.521.031-.879.152-.956.325-.079.175.053.5.191.733z"/><path d="m24.5 21h-3c-.276 0-.5-.224-.5-.5v-1.032c0-.149.066-.291.182-.386.342-.282 2.105-1.661 3.299-1.098 1.115.522.823 1.958.475 2.723-.082.179-.26.293-.456.293zm-2.5-1h2.149c.112-.364.235-.956-.094-1.11-.407-.196-1.391.321-2.056.821v.289z"/><path d="m30.5 31h-5c-.276 0-.5-.224-.5-.5s.224-.5.5-.5h5c.402 0 .494-.275.5-.506.007-.271.229-.491.5-.491.002 0 .004 0 .006.001.274.003.494.223.494.496 0 .603-.399 1.5-1.5 1.5z"/><path d="m25.5 28c-1.153 0-2.5-.393-2.5-1.5 0-1.064 1.71-4.538 2.053-5.224.124-.247.425-.346.671-.224.247.124.347.424.224.671-.809 1.618-1.948 4.169-1.948 4.777 0 .301.902.5 1.5.5.276 0 .5.224.5.5s-.224.5-.5.5z"/><path d="m41.5 29h-2c-.276 0-.5-.224-.5-.5s.224-.5.5-.5h2c1.379 0 2.5-1.121 2.5-2.5v-2c0-1.379-1.121-2.5-2.5-2.5h-1c-.276 0-.5-.224-.5-.5s.224-.5.5-.5h1c1.93 0 3.5 1.57 3.5 3.5v2c0 1.93-1.57 3.5-3.5 3.5z"/><path d="m43.614 21.871c-.017 0-.034-.001-.051-.003-.274-.027-.476-.272-.447-.547l.887-8.871c.016-.165.113-.311.259-.39s.321-.08.468-.005c.097.046.997.443 1.753-.702.418-.635.419-1.492.002-1.994-.377-.451-1.013-.521-1.789-.192-.205.089-.438.029-.58-.141-.141-.169-.154-.411-.032-.595.323-.489.504-1.495.233-2.27-.153-.438-.426-.723-.81-.848-1.265-.413-2.241.563-2.281.604-.147.149-.373.19-.562.106-.19-.086-.309-.28-.295-.488.057-.843-.145-1.494-.598-1.936-.569-.554-1.448-.688-2.079-.628-1.091.102-1.713 1.157-1.72 1.168-.089.154-.254.251-.432.251-.001 0-.001 0-.001 0-.178 0-.343-.093-.433-.246-.845-1.444-1.791-1.897-3.173-1.511-1.185.332-1.513 1.005-1.526 1.033-.072.152-.218.263-.385.286-.174.019-.337-.036-.447-.162-1.504-1.718-3.223-1.13-3.92-.581-.797.627-.66 1.854-.659 1.867.026.224-.099.438-.308.523-.208.088-.447.021-.585-.157-.677-.881-1.503-.894-1.935-.825-.704.115-1.354.602-1.544 1.155-.371 1.081.403 1.94.411 1.948.139.151.171.371.082.556-.089.184-.28.295-.485.282-.656-.052-1.182.147-1.534.559-.361.422-.493 1.045-.351 1.668.254 1.111 1.717 1.209 1.779 1.213.227.013.418.178.463.401l1 5c.055.271-.121.534-.393.588-.259.055-.533-.12-.588-.393l-.93-4.649c-.672-.124-1.988-.544-2.307-1.938-.216-.944-.01-1.87.565-2.541.377-.44.881-.729 1.465-.851-.242-.532-.424-1.297-.124-2.168.312-.91 1.248-1.641 2.327-1.817.739-.124 1.452.032 2.062.428.114-.543.379-1.172.968-1.635 1.261-.989 3.258-1.161 4.857.269.325-.348.878-.771 1.771-1.022 1.604-.449 2.889-.004 3.905 1.361.41-.439 1.089-.969 2.028-1.057 1.103-.104 2.18.234 2.871.908.345.335.728.886.86 1.737.593-.322 1.469-.59 2.486-.26.688.224 1.188.731 1.445 1.469.224.641.238 1.44.071 2.146.77-.068 1.454.182 1.921.742.699.841.727 2.18.063 3.185-.734 1.114-1.684 1.321-2.378 1.238l-.828 8.278c-.021.262-.239.454-.492.454z"/><path d="m39.5 33c-.11 0-.22-.036-.313-.109-.216-.173-.25-.487-.078-.703.983-1.229 1.803-2.565 2.437-3.971.114-.253.412-.364.661-.251.252.113.364.41.251.661-.668 1.482-1.532 2.891-2.567 4.186-.099.123-.245.187-.391.187z"/></g></svg>