<svg enable-background="new 0 0 64 64" height="512" viewBox="0 0 64 64" width="512" xmlns="http://www.w3.org/2000/svg"><path d="m21.5 20.5s-3-1-2-3c0 0-1.692-1.198-.741-2.465s1.902-.898 1.902-.898-2.113-.792-1.426-2.43 2.266-1.321 2.266-1.321-1.791-1.373-.259-2.852 2.958-.317 2.958-.317-.516-1.902 1.3-2.641 2.661.792 2.661.792.347-1.69 2.339-1.849c1.992-.158 3 1.532 3 1.532s1.105-1.373 3.112-.898 1.888 2.166 1.888 2.166 2.232-1.215 3.764.158.528 2.8.528 2.8 2.324-.317 2.905 1.162-.37 2.271-.37 2.271 1.796.317 2.113 1.954-1.056 2.007-1.056 2.007 1.666 1.302 1.104 2.828-1.652 1.526-1.652 1.526.992 2.214-1.411 3.13l-2.925 2.345s.523 1.374-.099 2.152c0 0 .411 1.893-1.245 2.49s-1.656.598-1.656.598z" fill="#826ec8"/><path d="m21.241 9.534c1.532-1.479 2.958-.317 2.958-.317s-.515-1.902 1.301-2.641 2.661.792 2.661.792.347-1.69 2.339-1.849c1.992-.158 3 1.532 3 1.532s1.105-1.373 3.112-.898c2.007.476 1.888 2.166 1.888 2.166s2.232-1.215 3.764.158c.265.238.451.477.582.71.185-.328.727-1.537-.582-2.71-1.532-1.373-3.764-.158-3.764-.158s.119-1.69-1.888-2.166c-2.007-.475-3.112.898-3.112.898s-1.008-1.69-3-1.532c-1.992.159-2.339 1.849-2.339 1.849s-.845-1.532-2.661-.792-1.301 2.641-1.301 2.641-1.426-1.162-2.958.317c-.93.898-.635 1.755-.26 2.291.074-.096.159-.193.26-.291z" fill="#8d7bd4"/><path d="m43.5 37.5s5 2 9 5 4 7 4 12 0 8 0 8h-43s0-4 0-8 0-10 4-12 6-3 6-3z" fill="#ffe885"/><path d="m52.5 42.5c-4-3-9-5-9-5l-20 2s-2 1-6 3-4 8-4 12v2c0-4 0-10 4-12s6-3 6-3l20-2s5 2 9 5 4 7 4 12c0-.626 0-1.29 0-2 0-5 0-9-4-12z" fill="#fffa96"/><path d="m13.5 62.5h43s0-.708 0-2h-43z" fill="#f0dc78"/><path d="m29.5 38.5-4 2 2.008 7.09 3.992.91 5.027-1.676 7.973-8.324-5-1z" fill="#c88c5a"/><path d="m31.5 47.5c-1.122 0-2.231-.313-3-.59v15.59h6v-14-1.59c-.769.277-1.878.59-3 .59z" fill="#b4aaf0"/><path d="m29.445 34.5v9h10.055v-16.76z" fill="#c88c5a"/><path d="m39.5 44c-.276 0-.5-.224-.5-.5v-11.76c0-.276.224-.5.5-.5s.5.224.5.5v11.76c0 .276-.224.5-.5.5z" fill="#785ae6"/><path d="m29.444 44c-.276 0-.5-.224-.5-.5v-9c0-.276.224-.5.5-.5s.5.224.5.5v9c0 .276-.223.5-.5.5z" fill="#785ae6"/><path d="m46.5 63c-.276 0-.5-.224-.5-.5v-12c0-.276.224-.5.5-.5s.5.224.5.5v12c0 .276-.224.5-.5.5z" fill="#f0dc78"/><path d="m17.5 63c-.276 0-.5-.224-.5-.5v-12c0-.276.224-.5.5-.5s.5.224.5.5v12c0 .276-.224.5-.5.5z" fill="#f0dc78"/><path d="m34.5 63c-.276 0-.5-.224-.5-.5v-14c0-.276.224-.5.5-.5s.5.224.5.5v14c0 .276-.224.5-.5.5z" fill="#785ae6"/><path d="m28.5 63c-.276 0-.5-.224-.5-.5v-14c0-.276.224-.5.5-.5s.5.224.5.5v14c0 .276-.224.5-.5.5z" fill="#785ae6"/><path d="m34.5 48.5s1-2 6-3 10-2 9-6-6-7-10-7v8.236s-5 2.764-5 7.764z" fill="#ffe885"/><path d="m49.476 41.424c.186-.552.208-1.187.024-1.924-1-4-6-7-10-7v2c3.974 0 8.932 2.963 9.976 6.924z" fill="#fffa96"/><path d="m29.5 38.5s-3 2-2 5 1 5 1 5c-3-4-6-5-5-9s5-7 6-7z" fill="#ffe885"/><path d="m34.5 48.996c-.04 0-.081-.005-.121-.015-.222-.056-.379-.252-.379-.481 0-4.622 3.932-7.383 5-8.048v-7.952c0-.276.224-.5.5-.5 4.087 0 9.398 3.03 10.485 7.379.277 1.108.15 2.092-.376 2.924-1.365 2.158-5.079 2.901-9.012 3.687-4.626.925-5.645 2.722-5.654 2.74-.089.166-.261.266-.443.266zm5.5-15.979v7.72c0 .182-.099.349-.258.438-.042.023-3.815 2.163-4.601 5.943.911-.7 2.517-1.558 5.261-2.107 3.552-.71 7.226-1.445 8.362-3.241.38-.6.462-1.303.25-2.147-.905-3.623-5.381-6.37-9.014-6.606z" fill="#785ae6"/><path d="m28.5 49c-.154 0-.304-.072-.4-.2-.868-1.157-1.743-2.066-2.517-2.868-1.866-1.937-3.34-3.466-2.568-6.553 1.027-4.107 5.177-7.379 6.485-7.379.276 0 .5.224.5.5v6c0 .167-.084.323-.222.416-.109.074-2.669 1.832-1.804 4.426 1.014 3.042 1.026 5.073 1.026 5.158 0 .215-.138.406-.342.474-.052.018-.105.026-.158.026zm.5-15.814c-1.266.678-4.193 3.148-5.015 6.435-.638 2.549.475 3.704 2.318 5.617.478.496.994 1.032 1.527 1.644-.135-.827-.375-1.932-.806-3.223-.831-2.494.819-4.54 1.975-5.416v-5.057zm.5 5.314h.01z" fill="#785ae6"/><path d="m39.5 31.879c-.204 0-.396-.126-.47-.329-.095-.26.039-.546.299-.641l.576-.208c1.276-.46 1.037-1.794 1.006-1.945-.03-.146.006-.3.099-.417.363-.453.133-1.375.023-1.662-.078-.203-.016-.432.154-.568l2.926-2.343c.04-.033.086-.059.134-.077.6-.229.994-.564 1.174-.998.286-.692-.038-1.454-.041-1.461-.069-.155-.056-.334.036-.477.093-.142.25-.228.42-.228.021-.001.759-.047 1.184-1.199.428-1.161-.931-2.251-.944-2.262-.148-.117-.219-.308-.181-.493.038-.186.177-.333.359-.383.149-.044.909-.327.695-1.429-.248-1.286-1.693-1.555-1.708-1.558-.191-.034-.346-.175-.396-.364-.05-.188.014-.388.163-.512.063-.056.651-.618.224-1.705-.426-1.083-2.352-.852-2.372-.849-.193.026-.392-.065-.494-.236-.104-.17-.097-.385.018-.548.073-.107.697-1.108-.453-2.139-1.256-1.125-3.173-.102-3.19-.092-.161.087-.356.08-.51-.019s-.241-.273-.229-.456c.007-.126.021-1.283-1.504-1.644-1.651-.389-2.571.682-2.609.728-.104.125-.262.196-.425.181-.162-.013-.31-.102-.393-.241-.034-.056-.871-1.423-2.53-1.289-1.6.127-1.887 1.438-1.889 1.451-.043.205-.208.362-.415.394-.212.032-.411-.069-.513-.252-.065-.113-.688-1.117-2.035-.571-1.39.566-1.022 1.987-1.007 2.048.057.209-.028.432-.21.55-.181.118-.42.106-.588-.032-.111-.086-1.134-.833-2.295.289-.332.32-.484.634-.466.959.035.624.675 1.131.682 1.136.185.142.247.392.15.604-.096.211-.319.331-.554.284-.115-.021-1.199-.184-1.706 1.024-.122.291-.13.551-.024.794.269.623 1.156.97 1.165.974.002.001.004.002.005.002.257.1.385.387.286.644-.098.257-.386.385-.643.29-.002-.001-.004-.001-.006-.002-.017-.006-.631-.187-1.319.732-.158.21-.216.412-.181.634.079.504.625.992.811 1.123.201.143.269.411.158.632-.172.344-.196.654-.075.948.3.722 1.391 1.223 1.786 1.354.262.087.403.37.316.632-.088.263-.371.404-.633.316-.075-.025-1.86-.633-2.394-1.92-.184-.445-.199-.923-.049-1.402-.327-.302-.802-.845-.909-1.528-.076-.486.052-.966.368-1.389.318-.423.643-.697.949-.87-.221-.209-.422-.466-.555-.773-.213-.493-.206-1.039.021-1.578.395-.941 1.068-1.382 1.696-1.558-.177-.291-.322-.645-.345-1.045-.036-.625.223-1.209.769-1.736.98-.946 1.995-1.002 2.742-.79.062-.816.466-1.779 1.676-2.271 1.204-.492 2.125-.148 2.706.33.403-.645 1.168-1.32 2.442-1.422 1.568-.122 2.595.723 3.102 1.291.564-.438 1.642-1.005 3.166-.645 1.38.327 1.978 1.199 2.185 1.935.869-.303 2.445-.609 3.686.504 1.013.908 1.124 1.91.953 2.648.86.039 2.143.308 2.612 1.503.381.971.214 1.71-.028 2.191.656.285 1.559.893 1.797 2.123.216 1.115-.216 1.823-.713 2.218.524.598 1.189 1.662.738 2.884-.391 1.061-1.021 1.515-1.492 1.708.092.435.14 1.065-.12 1.693-.28.677-.841 1.188-1.666 1.52l-2.601 2.083c.129.494.268 1.387-.151 2.091.108.857-.105 2.304-1.602 2.844l-.654.236c-.056.022-.113.031-.17.031z" fill="#785ae6"/><path d="m21.5 13.5v15c0 3.314 2.686 6 6 6h5c3.866 0 7-3.134 7-7v-1h2c1.657 0 3-1.343 3-3v-2c0-1.657-1.343-3-3-3h-2l-3-5z" fill="#e1a271"/><path d="m23.5 24c-.276 0-.5-.224-.5-.5v-3c0-.276.224-.5.5-.5s.5.224.5.5v3c0 .276-.224.5-.5.5z" fill="#785ae6"/><path d="m37.696 32.5s-1.196 0-1.196-1-.098-1.911-1-3c-1.028-1.242-3.5-1-9-1-4 0-5 3-4 5 0 0 1 3 6 3 10 0 9.196-3 9.196-3zm-6.196 0c-2 0-2-1-3-1s-1 0-2 0-1 1-2 1-1-3.733 2-3.733c2 0 7-.522 7 1.233 0 1 0 2.5-2 2.5z" fill="#826ec8"/><path d="m40.5 17.5s-1 4-2 4-1-3-1-3c-3-2-4-5-4-5-7-1-10 0-10 0-1 3-2 4-2 4v-6h19z" fill="#826ec8"/><g fill="#785ae6"><path d="m22.118 31.656c-.184 0-.361-.102-.448-.279-.444-.9-.67-1.868-.67-2.877v-11c0-.276.224-.5.5-.5s.5.224.5.5v11c0 .854.19 1.673.566 2.435.122.248.021.547-.227.669-.07.035-.146.052-.221.052z"/><path d="m41.5 27h-2c-.276 0-.5-.224-.5-.5s.224-.5.5-.5h2c1.379 0 2.5-1.122 2.5-2.5v-2c0-1.378-1.121-2.5-2.5-2.5h-1c-.276 0-.5-.224-.5-.5s.224-.5.5-.5h1c1.93 0 3.5 1.57 3.5 3.5v2c0 1.93-1.57 3.5-3.5 3.5z"/><path d="m30.5 31h-5c-.276 0-.5-.224-.5-.5s.224-.5.5-.5h5c.402 0 .494-.275.5-.506.007-.273.245-.452.506-.491.274.004.494.224.494.497 0 .603-.399 1.5-1.5 1.5z"/><path d="m25.5 27c-1.153 0-2.5-.393-2.5-1.5 0-1.064 1.71-4.538 2.053-5.224.124-.247.425-.345.671-.224.247.124.347.424.224.671-.809 1.618-1.948 4.169-1.948 4.777 0 .301.902.5 1.5.5.276 0 .5.224.5.5s-.224.5-.5.5z"/><path d="m30.5 24c-.276 0-.5-.224-.5-.5v-3c0-.276.224-.5.5-.5s.5.224.5.5v3c0 .276-.224.5-.5.5z"/><path d="m33.5 20c-.128 0-.256-.049-.354-.146-2.586-2.585-4.228-1.062-4.296-.997-.197.192-.513.188-.706-.008-.191-.196-.192-.508.002-.702.023-.023 2.394-2.314 5.707 1 .195.195.195.512 0 .707-.097.097-.225.146-.353.146z"/><path d="m24.5 19c-.127 0-.254-.048-.352-.145-.112-.109-1.126-1.035-2.344-.083-.215.169-.532.132-.701-.086-.171-.217-.132-.532.086-.702 1.556-1.216 3.077-.425 3.664.162.195.195.195.512 0 .707-.097.098-.225.147-.353.147z"/><path d="m39.5 41.236c-.183 0-.359-.101-.447-.276-.123-.247-.023-.547.224-.671 1.956-.978 3.94-2.202 3.961-2.214.235-.146.543-.073.688.163.145.235.072.543-.163.688-.02.013-2.042 1.26-4.039 2.258-.073.035-.149.052-.224.052z"/><path d="m28.5 36c-5.3 0-6.429-3.206-6.475-3.342-.204-.399-.345-.918-.378-1.436-.018-.276.191-.514.467-.531.249-.014.514.19.531.467.024.386.129.773.302 1.119.065.17 1.012 2.723 5.553 2.723 1.315 0 2.511-.053 3.556-.158.251-.023.52.172.547.448.028.274-.172.52-.447.547-1.078.108-2.307.163-3.656.163z"/><path d="m56.5 63h-43c-.276 0-.5-.224-.5-.5v-8c0-4.105 0-10.309 4.276-12.447l6-3c.248-.123.547-.024.671.224.123.247.023.547-.224.671l-6 3c-3.723 1.861-3.723 7.693-3.723 11.552v7.5h42v-7.5c0-4.889 0-8.75-3.8-11.6-.84-.629-1.791-1.264-2.828-1.886-.237-.142-.314-.449-.172-.686.144-.237.452-.312.686-.171 1.066.64 2.047 1.293 2.914 1.943 4.2 3.15 4.2 7.437 4.2 12.4v8c0 .276-.224.5-.5.5z"/></g><path d="m37.5 51c-.827 0-1.5-.673-1.5-1.5s.673-1.5 1.5-1.5 1.5.673 1.5 1.5-.673 1.5-1.5 1.5zm0-2c-.275 0-.5.224-.5.5s.225.5.5.5.5-.224.5-.5-.225-.5-.5-.5z" fill="#f0dc78"/><path d="m25.5 51c-.827 0-1.5-.673-1.5-1.5s.673-1.5 1.5-1.5 1.5.673 1.5 1.5-.673 1.5-1.5 1.5zm0-2c-.275 0-.5.224-.5.5s.225.5.5.5.5-.224.5-.5-.225-.5-.5-.5z" fill="#f0dc78"/><g fill="#f0f0e6"><path d="m37.5 59c-.276 0-.5-.224-.5-.5v-9c0-.276.224-.5.5-.5s.5.224.5.5v9c0 .276-.224.5-.5.5z"/><circle cx="37.5" cy="59" r="1"/><path d="m25.5 59c-.276 0-.5-.224-.5-.5v-9c0-.276.224-.5.5-.5s.5.224.5.5v9c0 .276-.224.5-.5.5z"/><circle cx="25.5" cy="59" r="1"/></g></svg>