<?xml version="1.0" encoding="UTF-8" standalone="no"?>
<!DOCTYPE svg PUBLIC "-//W3C//DTD SVG 1.1//EN" "http://www.w3.org/Graphics/SVG/1.1/DTD/svg11.dtd">
<svg version="1.1" xmlns="http://www.w3.org/2000/svg" xmlns:xlink="http://www.w3.org/1999/xlink" preserveAspectRatio="xMidYMid meet" viewBox="0 0 512 512" width="512" height="512"><defs><path d="M235.56 276L235.56 286.44C207.02 304.18 191.17 314.03 188 316C188 316 172 324 140 340C140 340 124.37 355.71 115.59 378.73C108.56 397.18 108 421.76 108 436C108 436 108 500 108 500C142.4 500 417.6 500 452 500C452 500 452 476 452 436C452 436 452 364 420 340C420 340 348 300 348 300C345.33 298.09 332 288.52 308 271.3L308 228L235.56 276Z" id="cvNgbub0A"></path><path d="M348 300C345.33 298.09 332 288.52 308 271.3L308 287.3C332 304.52 345.33 314.09 348 316C348 316 388 332 420 356C420 356 452 412 452 452C452 446.99 452 441.68 452 436C452 396 452 364 420 340C388 316 362.4 308 348 300Z" id="asCBZS44V"></path><path d="M172 324C164.18 327.91 153.63 333.18 140 340C108 356 108 404 108 436C108 437.6 108 450.4 108 452C108 420 108 372 140 356C153.63 349.18 164.18 343.91 172 340C172 336.8 172 327.2 172 324Z" id="c47DS0i9vy"></path><path d="M108 500C314.4 500 429.07 500 452 500C452 500 452 494.34 452 484C429.07 484 314.4 484 108 484L108 500Z" id="a1QX52NNxF"></path><path d="M338.5 334.25C323.82 351.46 295.05 364 260 364C225.66 364 209.36 351.96 203.74 336.66C202.69 338.49 197.45 347.6 188 364L188 500L340 500C339.2 411.6 338.7 356.35 338.5 334.25Z" id="b1QUF9mnw"></path><path d="M188 484L188 500L340 500L339.86 484L188 484Z" id="eDNRCNRdE"></path><path d="M308 255.7L243.87 270.5L227.56 276L227.56 286.44C213.42 298.21 205.57 304.75 204 306.06C196 332 204 364 260 364C316 364 356 332 348 300C345.33 298.09 332 288.52 308 271.3L308 255.7Z" id="a4P0376aUF"></path><path d="M196.24 339.42C194.72 335.27 196.84 330.68 200.99 329.16C205.14 327.64 209.74 329.76 211.26 333.91C217.96 352.17 241.46 356.01 260 356.01C290.5 356.01 318.25 345.69 332.4 329.07C335.26 325.7 340.32 325.3 343.68 328.17C347.04 331.03 347.45 336.09 344.58 339.45C327.22 359.83 295.59 372 260 372C217.18 372 201.7 354.28 196.24 339.42Z" id="ecOspA1nU"></path><path d="M235.56 276L235.56 340L308 340L308 213.92L235.56 276Z" id="gaF6TiD4e"></path><path d="M172.03 156C172.03 156 148.03 148 156.03 132C156.03 132 142.5 122.42 150.11 112.28C157.71 102.14 165.32 105.1 165.32 105.1C165.32 105.1 148.42 98.76 153.91 85.66C159.41 72.55 172.03 75.09 172.03 75.09C172.03 75.09 157.71 64.1 169.96 52.27C182.22 40.44 193.63 49.74 193.63 49.74C193.63 49.74 189.51 34.52 204.03 28.61C218.56 22.7 225.32 34.94 225.32 34.94C225.32 34.94 228.1 21.42 244.03 20.15C259.97 18.89 268.03 32.41 268.03 32.41C268.03 32.41 276.87 21.42 292.93 25.22C308.99 29.02 308.03 42.55 308.03 42.55C308.03 42.55 325.89 32.83 338.15 43.82C350.4 54.8 342.37 66.22 342.37 66.22C342.37 66.22 360.96 63.68 365.61 75.51C370.26 87.34 362.65 93.68 362.65 93.68C362.65 93.68 377.02 96.22 379.55 109.31C382.09 122.41 371.11 125.37 371.11 125.37C371.11 125.37 384.43 135.78 379.94 147.99C375.44 160.2 366.72 160.2 366.72 160.2C366.72 160.2 374.66 177.91 355.43 185.24C353.09 187.12 334.37 202.12 332.03 204C332.03 204 336.22 214.99 331.24 221.22C331.24 221.22 334.53 236.36 321.28 241.14C308.03 245.91 308.03 245.92 308.03 245.92C280.83 227.94 199.23 173.98 172.03 156Z" id="cWAE59UtI"></path><path d="M193.59 65.74C193.59 65.74 189.47 50.52 204 44.61C218.53 38.7 225.29 50.94 225.29 50.94C225.29 50.94 228.06 37.42 244 36.15C259.94 34.89 268 48.41 268 48.41C268 48.41 276.84 37.42 292.9 41.22C308.95 45.03 308 58.55 308 58.55C308 58.55 325.86 48.83 338.11 59.82C340.23 61.72 341.72 63.63 342.77 65.5C344.25 62.87 348.58 53.2 338.11 43.82C325.86 32.83 308 42.55 308 42.55C308 42.55 308.95 29.03 292.9 25.22C276.84 21.42 268 32.41 268 32.41C268 32.41 259.94 18.89 244 20.15C228.06 21.42 225.29 34.94 225.29 34.94C225.29 34.94 218.53 22.69 204 28.61C189.47 34.53 193.59 49.74 193.59 49.74C193.59 49.74 182.18 40.44 169.93 52.27C162.49 59.46 164.85 66.31 167.85 70.6C168.44 69.83 169.12 69.06 169.93 68.27C182.18 56.44 188.86 66.24 193.59 65.74Z" id="l59MfDsUkK"></path><path d="M172 100C172 172 172 212 172 220C172 246.51 193.49 268 220 268C224 268 256 268 260 268C290.93 268 316 242.93 316 212C316 211.47 316 208.8 316 204C325.6 204 330.93 204 332 204C345.26 204 356 193.26 356 180C356 178.4 356 165.6 356 164C356 150.74 345.26 140 332 140C330.93 140 325.6 140 316 140L292 100L172 100Z" id="aKV5TXedo"></path><path d="M292 244C292 244 291.22 228.71 284 220C275.78 210.06 256 212 212 212C180 212 172 236 180 252C180 252 188 276 228 276C308 276 301.57 252 301.57 252C299.65 250.4 292 252 292 244ZM228 244C220 244 220 244 212 244C204 244 204 252 196 252C188 252 188 222.14 212 222.14C228 222.14 268 217.96 268 232C268 240 268 252 252 252C236 252 236 244 228 244Z" id="esAXMNukj"></path><path d="M176.21 253.26C174.58 250.1 173.46 245.94 173.18 241.77C173.04 239.57 174.71 237.66 176.91 237.52C179.24 237.29 181.02 239.05 181.17 241.26C181.37 244.36 182.2 247.46 183.58 250.21C184.09 251.58 191.67 272 228 272C238.5 272 248.06 271.57 256.45 270.74C258.62 270.5 260.61 272.12 260.82 274.31C261.04 276.5 259.44 278.47 257.24 278.69C248.6 279.56 238.77 280 228 280C185.61 280 176.57 254.36 176.21 253.26Z" id="idXOtX7T"></path><path d="M324 132C324 132 316 164 308 164C308 164 300 140 300 140C276 124 268 100 268 100C212 92 188 100 188 100C180 124 172 132 172 132C172 129.9 170.04 132.32 169.25 119.24C168.84 112.35 168.84 100.6 169.25 84L324 84C324 109.6 324 125.6 324 132Z" id="a4wyw0UYPr"></path><path d="M173.36 243.02C169.81 235.82 168 228.08 168 220C168 211.2 168 140.8 168 132C168 129.79 169.79 128 172 128C174.21 128 176 129.79 176 132C176 140.8 176 211.2 176 220C176 226.83 177.52 233.39 180.53 239.47C181.51 241.46 180.7 243.86 178.71 244.83C178.15 245.11 177.54 245.24 176.95 245.24C175.48 245.24 174.06 244.42 173.36 243.02Z" id="b8Ix3f5kr"></path><path d="M316 208C313.79 208 312 206.21 312 204C312 201.79 313.79 200 316 200C317.6 200 330.4 200 332 200C343.02 200 352 191.03 352 180C352 178.4 352 165.6 352 164C352 152.97 343.02 144 332 144C331.2 144 324.8 144 324 144C321.79 144 320 142.21 320 140C320 137.79 321.79 136 324 136C324.8 136 331.2 136 332 136C347.44 136 360 148.56 360 164C360 165.6 360 178.4 360 180C360 195.44 347.44 208 332 208C328.8 208 317.6 208 316 208Z" id="fVKah6lO6"></path><path d="M204 240C201.79 240 200 238.21 200 236C200 233.79 201.79 232 204 232C208 232 240 232 244 232C247.22 232 247.95 229.8 248 227.95C248.06 225.78 249.83 224.02 252 224.02C252.02 224.02 252.03 224.02 252.05 224.03C254.24 224.06 256 225.82 256 228C256 232.82 252.81 240 244 240C236 240 208 240 204 240Z" id="h5GWa4UM1"></path><path d="M184 196C184 187.49 197.68 159.7 200.42 154.21C201.42 152.24 203.81 151.42 205.79 152.42C207.77 153.41 208.57 155.81 207.58 157.78C201.11 170.73 192 191.14 192 196C192 198.41 199.22 200 204 200C206.21 200 208 201.79 208 204C208 206.21 206.21 208 204 208C194.78 208 184 204.86 184 196Z" id="c214So1xoy"></path><path d="M240 180C240 177.6 240 158.4 240 156C240 153.79 241.79 152 244 152C246.21 152 248 153.79 248 156C248 158.4 248 177.6 248 180C248 182.21 246.21 184 244 184C241.79 184 240 182.21 240 180Z" id="amLHP6K3Y"></path><path d="M184 180C184 177.6 184 158.4 184 156C184 153.79 185.79 152 188 152C190.21 152 192 153.79 192 156C192 158.4 192 177.6 192 180C192 182.21 190.21 184 188 184C185.79 184 184 182.21 184 180Z" id="daEcy2cGn"></path><path d="M265.17 150.83C244.46 130.14 231.34 142.33 230.8 142.86C229.22 144.37 226.69 144.36 225.15 142.79C223.62 141.23 223.62 138.73 225.16 137.18C225.34 136.99 244.29 118.65 270.82 145.18C272.38 146.74 272.38 149.27 270.82 150.83C270.05 151.61 269.02 152 268 152C266.98 152 265.95 151.61 265.17 150.83Z" id="a1C7hdU59k"></path><path d="M193.18 142.84C192.3 141.98 184.2 134.58 174.44 142.18C172.7 143.55 170.18 143.22 168.82 141.49C167.46 139.74 167.78 137.24 169.51 135.88C181.94 126.14 194.12 132.47 198.82 137.17C200.38 138.73 200.38 141.26 198.82 142.82C198.05 143.61 197.02 144 196 144C194.98 144 193.97 143.62 193.18 142.84Z" id="a4yPBquZmJ"></path><path d="M368 500C368 490.4 368 413.6 368 404C368 401.79 369.79 400 372 400C374.21 400 376 401.79 376 404C376 413.6 376 490.4 376 500C376 502.21 374.21 504 372 504C369.79 504 368 502.21 368 500Z" id="b7lDk4WWjU"></path><path d="M136 500C136 490.4 136 413.6 136 404C136 401.79 137.79 400 140 400C142.21 400 144 401.79 144 404C144 413.6 144 490.4 144 500C144 502.21 142.21 504 140 504C137.79 504 136 502.21 136 500Z" id="bEd01Fn9U"></path><path d="M351.67 186.67C350.89 184.61 351.92 182.3 353.98 181.51C358.75 179.69 361.9 177.02 363.34 173.59C365.68 168.03 363.06 161.89 363.03 161.82C362.5 160.59 362.61 159.15 363.35 158.02C364.09 156.89 365.34 156.2 366.69 156.2C366.86 156.19 372.75 155.82 376.15 146.61C379.58 137.32 368.71 128.6 368.6 128.51C367.42 127.58 366.86 126.04 367.16 124.56C367.46 123.08 368.58 121.9 370.03 121.5C371.22 121.15 377.3 118.9 375.59 110.06C373.62 99.9 362.38 97.7 361.9 97.61C360.38 97.33 359.14 96.18 358.75 94.69C358.36 93.18 358.86 91.59 360.05 90.6C360.55 90.14 365.26 85.65 361.85 76.96C358.45 68.3 343.04 70.14 342.87 70.16C341.3 70.4 339.74 69.64 338.91 68.28C338.09 66.92 338.14 65.2 339.06 63.9C339.64 63.05 344.63 55.03 335.43 46.78C325.41 37.79 310.06 45.95 309.9 46.05C308.62 46.74 307.06 46.68 305.83 45.9C304.6 45.1 303.9 43.7 304.01 42.25C304.06 41.24 304.18 31.98 291.98 29.09C278.73 25.96 271.4 34.54 271.1 34.92C270.26 35.93 268.98 36.46 267.7 36.37C266.41 36.26 265.23 35.55 264.56 34.44C264.29 33.99 257.42 23.16 244.31 24.12C231.7 25.13 229.29 35.32 229.19 35.76C228.83 37.38 227.5 38.62 225.86 38.87C224.22 39.04 222.58 38.32 221.78 36.86C221.27 35.96 216.26 27.95 205.51 32.3C194.7 36.7 197.15 47.47 197.46 48.7C197.9 50.37 197.21 52.14 195.75 53.08C194.3 54 192.42 53.91 191.07 52.82C190.2 52.14 182.02 46.18 172.71 55.14C170.06 57.7 168.84 60.22 168.99 62.82C169.28 67.81 174.39 71.87 174.44 71.91C175.92 73.05 176.42 75.05 175.65 76.74C174.88 78.43 173.04 79.4 171.22 79.01C170.26 78.84 161.6 77.55 157.56 87.2C156.58 89.53 156.52 91.61 157.37 93.56C159.52 98.54 166.62 101.32 166.69 101.35C166.71 101.36 166.73 101.36 166.74 101.37C168.78 102.17 169.81 104.47 169.02 106.53C168.24 108.59 165.93 109.64 163.88 108.84C163.86 108.84 163.85 108.83 163.83 108.82C163.66 108.77 158.77 107.35 153.27 114.67C152.01 116.36 151.55 117.97 151.83 119.75C152.47 123.79 156.83 127.69 158.32 128.74C159.93 129.88 160.47 132.02 159.58 133.79C158.21 136.54 158.01 139.02 158.98 141.37C161.38 147.15 170.11 151.15 173.27 152.2C175.37 152.9 176.5 155.17 175.8 157.26C175.1 159.35 172.86 160.48 170.74 159.79C170.14 159.59 155.86 154.73 151.59 144.42C150.12 140.87 149.99 137.04 151.21 133.22C148.58 130.8 144.79 126.46 143.94 120.99C143.33 117.1 144.34 113.26 146.88 109.87C149.42 106.48 152.02 104.3 154.46 102.92C152.7 101.24 151.09 99.18 150.02 96.74C148.32 92.79 148.38 88.42 150.19 84.11C153.35 76.59 158.74 73.05 163.77 71.65C162.35 69.32 161.19 66.48 161.01 63.28C160.73 58.28 162.8 53.61 167.17 49.4C174.99 41.83 183.11 41.35 189.1 43.08C189.6 36.55 192.82 28.85 202.5 24.91C212.13 20.98 219.5 23.73 224.14 27.55C227.38 22.38 233.49 16.98 243.7 16.18C256.27 15.22 264.46 21.97 268.51 26.5C273.02 23 281.63 18.42 293.84 21.34C304.89 23.95 309.66 30.93 311.32 36.82C318.29 34.38 330.88 31.95 340.81 40.85C348.91 48.1 349.81 56.13 348.44 62.03C355.32 62.34 365.58 64.5 369.33 74.06C372.38 81.82 371.04 87.74 369.1 91.58C374.36 93.86 381.58 98.72 383.48 108.56C385.21 117.48 381.76 123.14 377.78 126.31C381.98 131.1 387.3 139.6 383.7 149.38C380.57 157.87 375.53 161.5 371.75 163.06C372.49 166.53 372.87 171.58 370.79 176.59C368.48 182.18 363.79 186.34 356.86 188.98C356.36 189.17 355.88 189.25 355.41 189.25C353.8 189.25 352.28 188.27 351.67 186.67Z" id="e1Xw0O1FAc"></path><path d="M304 268C304 265.6 304 246.4 304 244C304 241.98 305.51 240.27 307.52 240.03C308.02 239.97 310.54 239.67 315.07 239.12C317.96 238.08 319.57 237.5 319.89 237.38C329.72 233.83 327.4 222.55 327.3 222.06C327.04 220.9 327.33 219.66 328.08 218.72C330.98 215.1 329.14 207.72 328.26 205.42C327.47 203.36 328.5 201.05 330.57 200.26C332.62 199.45 334.94 200.5 335.74 202.58C336.22 203.83 340.02 214.41 335.42 222.14C336.27 228.99 334.58 240.58 322.6 244.9C322.07 245.09 317.87 246.6 317.34 246.79C317.06 246.9 316.78 246.96 316.48 246.99C316.18 247.03 314.69 247.21 312 247.54C312 259.82 312 266.64 312 268C312 270.21 310.21 272 308 272C305.79 272 304 270.21 304 268Z" id="bD9VLg2K7"></path><path d="M108 504C105.79 504 104 502.21 104 500C104 493.6 104 442.4 104 436C104 403.16 104 353.53 138.21 336.42C141.29 334.88 165.97 322.54 169.06 321C171.03 320 173.43 320.82 174.42 322.79C175.42 324.77 174.61 327.18 172.63 328.16C169.55 329.7 144.87 342.04 141.78 343.58C112 358.47 112 405.13 112 436C112 440 112 460 112 496L448 496C448 460 448 440 448 436C448 396.89 448 366 417.6 343.2C399.7 329.78 379.16 318.86 365.08 312.05C363.09 311.09 362.26 308.7 363.22 306.7C364.18 304.72 366.58 303.87 368.55 304.85C382.95 311.8 403.99 322.99 422.39 336.79C456 362 456 396.29 456 436C456 442.4 456 493.6 456 500C456 502.21 454.21 504 452 504C383.2 504 142.4 504 108 504Z" id="b3kqWOTnfR"></path><path d="M340 356C340 356 336.53 385.9 328.17 417.12C317.52 456.86 301.42 500 301.42 500C305.28 500 336.14 500 340 500C340 500 372 476 388 428C384.8 424.8 359.2 399.2 356 396C356 396 372 396 404 380C404 380 372 324 364 300C364 300 340 268 308 268C314.4 285.6 340 300 340 356Z" id="e3vcTaGdDl"></path><path d="M307.99 484C304.09 493.92 301.42 500 301.42 500C305.28 500 336.14 500 340 500C340 500 347.1 494.62 356.27 484C346.62 484 312.82 484 307.99 484Z" id="dWboeGR7B"></path><path d="M364 300C364 300 340 268 308 268C308 268 314.28 274.3 321.28 286.17C348.29 294.42 372 324 372 324C377.38 340.13 372 324 364 300Z" id="a12PxtEYOh"></path><path d="M301.43 504C300.08 504 298.82 503.32 298.09 502.18C297.35 501.05 297.23 499.63 297.77 498.38C298.15 497.52 336 410.5 336 356C336 302.46 305.48 271.14 305.17 270.83C304.02 269.68 303.69 267.97 304.31 266.47C304.94 264.98 306.38 264 308 264C341.62 264 366.17 296.22 367.2 297.6C367.46 297.94 367.66 298.33 367.79 298.74C375.58 322.09 407.15 377.46 407.47 378.02C408.02 378.97 408.14 380.11 407.82 381.16C407.5 382.22 406.77 383.09 405.78 383.58C386.35 393.3 372.6 397.26 364.54 398.89C367.16 401.52 388.2 422.55 390.82 425.18C391.9 426.25 392.27 427.83 391.79 429.27C375.58 477.9 343.74 502.19 342.4 503.21C341.7 503.72 340.86 504 340 504C332.29 504 305.29 504 301.43 504ZM338.6 496C343.95 491.58 369.41 469.05 383.42 429.06C380.39 426.04 356.2 401.86 353.18 398.83C352.03 397.69 351.69 395.97 352.31 394.47C352.92 392.98 354.38 392 356 392C356.13 392 370.44 391.7 398.42 378.27C391.18 365.41 367.62 322.94 360.42 301.93C357.7 298.5 340.36 277.78 317.39 272.99C327.09 285.92 344 314.44 344 356C344 404.66 316.01 475.54 307.48 496C313.7 496 335.49 496 338.6 496Z" id="aSq9CE2rc"></path><path d="M195.75 380C195.75 380 201.37 495.33 201.37 495.33C197.88 495.33 175.49 500 172 500C172 500 148 473.07 140 418.54C143.2 416.28 168.8 398.25 172 396C172 396 156 396 140 380C140 380 162.7 325.3 188 300C204 284 235.56 278.44 235.56 278.44C227.65 298.75 203.75 300 195.75 380Z" id="c10KOImYVw"></path><path d="M161.31 484C167.27 494.66 172 500 172 500C175.49 500 203.4 500 206.89 500C206.89 500 204.38 494.62 201.58 484C193.52 484 169.36 484 161.31 484Z" id="a2SylSMUFg"></path><path d="M235.56 278.44C235.56 278.44 204 284 188 300C182.05 305.95 176.26 313.56 170.85 321.67C185 313.78 204.21 305.9 218.02 300.64C227.21 284.22 232.05 282.88 235.56 278.44Z" id="ekge7jeFN"></path><path d="M172 504C170.86 504 169.78 503.51 169.02 502.66C168 501.52 144.13 474.2 136.04 419.12C135.82 417.62 136.46 416.14 137.7 415.27C140.12 413.56 159.53 399.9 161.95 398.19C155.32 396.17 146.22 391.89 137.18 382.83C136.03 381.69 135.69 379.97 136.31 378.47C137.26 376.21 159.62 322.74 185.18 297.18C201.87 280.47 233.53 274.74 234.86 274.51C236.74 274.22 238.55 275.2 239.26 276.94C239.98 278.68 239.38 280.68 237.83 281.74C237.53 281.95 207.66 303.7 199.98 380.41C192.18 458.4 210.32 497.91 210.5 498.3C211.09 499.54 211 500.99 210.26 502.14C209.53 503.3 208.26 504 206.89 504C199.91 504 175.49 504 172 504ZM201 496C196.11 482.22 185.62 443.65 192.02 379.6C197.26 327.15 212.48 299.19 222.9 285.77C212.83 288.89 199.33 294.32 190.82 302.83C169.42 324.23 149.53 368.1 144.77 379.03C158.6 391.7 171.88 392 172.02 392C173.75 392.02 175.29 393.16 175.81 394.82C176.33 396.47 175.72 398.28 174.3 399.28C171.31 401.39 147.33 418.28 144.33 420.39C151.34 464.82 169.29 490.1 173.9 496C179.32 496 198.29 496 201 496Z" id="b1cfJQcxL3"></path><path d="M305.17 430.83C304.29 429.95 299.9 425.56 292 417.66C284.1 425.56 279.71 429.95 278.83 430.82C277.27 432.38 274.74 432.38 273.18 430.82C272.3 429.95 267.91 425.56 260 417.66C252.1 425.56 247.71 429.95 246.83 430.82C245.27 432.38 242.74 432.38 241.18 430.82C240.3 429.95 235.91 425.56 228 417.66C220.1 425.56 215.71 429.95 214.83 430.82C213.27 432.38 210.74 432.38 209.18 430.82C207.62 429.26 207.62 426.73 209.18 425.17C210.78 423.57 223.58 410.77 225.18 409.17C226.74 407.61 229.27 407.61 230.83 409.17C231.71 410.05 236.1 414.44 244 422.34C251.9 414.44 256.29 410.05 257.17 409.17C258.73 407.61 261.26 407.61 262.82 409.17C263.7 410.05 268.09 414.44 275.99 422.34C283.89 414.44 288.28 410.05 289.16 409.17C290.72 407.61 293.26 407.61 294.82 409.17C296.42 410.77 309.22 423.57 310.82 425.17C312.38 426.73 312.38 429.26 310.82 430.82C310.05 431.61 309.02 432 308 432C306.98 432 305.95 431.61 305.17 430.83Z" id="a6s3Upaml"></path><path d="M305.17 462.83C304.29 461.95 299.9 457.56 292 449.66C284.1 457.56 279.71 461.95 278.83 462.82C277.27 464.38 274.74 464.38 273.18 462.82C272.3 461.95 267.91 457.56 260 449.66C252.1 457.56 247.71 461.95 246.83 462.82C245.27 464.38 242.74 464.38 241.18 462.82C240.3 461.95 235.91 457.56 228 449.66C220.1 457.56 215.71 461.95 214.83 462.82C213.27 464.38 210.74 464.38 209.18 462.82C207.62 461.26 207.62 458.73 209.18 457.17C210.78 455.57 223.58 442.77 225.18 441.17C226.74 439.61 229.27 439.61 230.83 441.17C231.71 442.05 236.1 446.44 244 454.34C251.9 446.44 256.29 442.05 257.17 441.17C258.73 439.61 261.26 439.61 262.82 441.17C263.7 442.05 268.09 446.44 275.99 454.34C283.89 446.44 288.28 442.05 289.16 441.17C290.72 439.61 293.26 439.61 294.82 441.17C296.42 442.77 309.22 455.57 310.82 457.17C312.38 458.73 312.38 461.26 310.82 462.82C310.05 463.61 309.02 464 308 464C306.98 464 305.95 463.61 305.17 462.83Z" id="k372Y4oBm7"></path><path d="M108 504C105.79 504 104 502.21 104 500C104 493.6 104 442.4 104 436C104 403.16 104 353.53 138.21 336.42C140.91 335.07 162.57 324.24 165.27 322.89C172.19 312.11 178.88 303.46 185.17 297.18C201.86 280.47 233.52 274.74 234.86 274.51C237.02 274.03 239.1 275.58 239.49 277.75C239.87 279.92 238.42 282 236.25 282.38C235.94 282.44 205.73 287.93 190.82 302.83C184.78 308.89 178.25 317.39 171.42 328.12C171.03 328.73 170.49 329.22 169.84 329.55C167.03 330.96 144.59 342.18 141.78 343.58C112 358.47 112 405.13 112 436C112 440 112 460 112 496L448 496C448 460 448 440 448 436C448 396.89 448 366 417.6 343.2C399.83 329.87 379.52 319.05 365.61 312.32C364.73 311.89 364.04 311.16 363.66 310.26C362.4 307.25 361.28 304.42 360.42 301.93C357.34 298.06 335.51 272 308 272C305.79 272 304 270.21 304 268C304 265.79 305.79 264 308 264C341.62 264 366.17 296.22 367.2 297.6C367.46 297.94 367.66 298.33 367.8 298.74C368.5 300.85 369.42 303.24 370.47 305.78C384.64 312.71 404.7 323.53 422.4 336.8C456 362 456 396.29 456 436C456 442.4 456 493.6 456 500C456 502.21 454.21 504 452 504C383.2 504 142.4 504 108 504Z" id="bkIuXdULz"></path><path d="M232 332C232 326.4 232 281.6 232 276C232 273.79 233.79 272 236 272C238.21 272 240 273.79 240 276C240 281.6 240 326.4 240 332C240 334.21 238.21 336 236 336C233.79 336 232 334.21 232 332Z" id="a5PVUMDlyE"></path></defs><g><g><g><use xlink:href="#cvNgbub0A" opacity="1" fill="#aad2ff" fill-opacity="1"></use><g><use xlink:href="#cvNgbub0A" opacity="1" fill-opacity="0" stroke="#000000" stroke-width="1" stroke-opacity="0"></use></g></g><g><use xlink:href="#asCBZS44V" opacity="1" fill="#bee6ff" fill-opacity="1"></use><g><use xlink:href="#asCBZS44V" opacity="1" fill-opacity="0" stroke="#000000" stroke-width="1" stroke-opacity="0"></use></g></g><g><use xlink:href="#c47DS0i9vy" opacity="1" fill="#bee6ff" fill-opacity="1"></use><g><use xlink:href="#c47DS0i9vy" opacity="1" fill-opacity="0" stroke="#000000" stroke-width="1" stroke-opacity="0"></use></g></g><g><use xlink:href="#a1QX52NNxF" opacity="1" fill="#96bef0" fill-opacity="1"></use><g><use xlink:href="#a1QX52NNxF" opacity="1" fill-opacity="0" stroke="#000000" stroke-width="1" stroke-opacity="0"></use></g></g><g><use xlink:href="#b1QUF9mnw" opacity="1" fill="#f0f0e6" fill-opacity="1"></use><g><use xlink:href="#b1QUF9mnw" opacity="1" fill-opacity="0" stroke="#000000" stroke-width="1" stroke-opacity="0"></use></g></g><g><use xlink:href="#eDNRCNRdE" opacity="1" fill="#dcdcd2" fill-opacity="1"></use><g><use xlink:href="#eDNRCNRdE" opacity="1" fill-opacity="0" stroke="#000000" stroke-width="1" stroke-opacity="0"></use></g></g><g><use xlink:href="#a4P0376aUF" opacity="1" fill="#c88c5a" fill-opacity="1"></use><g><use xlink:href="#a4P0376aUF" opacity="1" fill-opacity="0" stroke="#000000" stroke-width="1" stroke-opacity="0"></use></g></g><g><use xlink:href="#ecOspA1nU" opacity="1" fill="#f0dc78" fill-opacity="1"></use><g><use xlink:href="#ecOspA1nU" opacity="1" fill-opacity="0" stroke="#000000" stroke-width="1" stroke-opacity="0"></use></g></g><g><use xlink:href="#gaF6TiD4e" opacity="1" fill="#c88c5a" fill-opacity="1"></use><g><use xlink:href="#gaF6TiD4e" opacity="1" fill-opacity="0" stroke="#000000" stroke-width="1" stroke-opacity="0"></use></g></g><g><use xlink:href="#cWAE59UtI" opacity="1" fill="#826ec8" fill-opacity="1"></use><g><use xlink:href="#cWAE59UtI" opacity="1" fill-opacity="0" stroke="#000000" stroke-width="1" stroke-opacity="0"></use></g></g><g><use xlink:href="#l59MfDsUkK" opacity="1" fill="#8d7bd4" fill-opacity="1"></use><g><use xlink:href="#l59MfDsUkK" opacity="1" fill-opacity="0" stroke="#000000" stroke-width="1" stroke-opacity="0"></use></g></g><g><use xlink:href="#aKV5TXedo" opacity="1" fill="#e1a271" fill-opacity="1"></use><g><use xlink:href="#aKV5TXedo" opacity="1" fill-opacity="0" stroke="#000000" stroke-width="1" stroke-opacity="0"></use></g></g><g><use xlink:href="#esAXMNukj" opacity="1" fill="#826ec8" fill-opacity="1"></use><g><use xlink:href="#esAXMNukj" opacity="1" fill-opacity="0" stroke="#000000" stroke-width="1" stroke-opacity="0"></use></g></g><g><use xlink:href="#idXOtX7T" opacity="1" fill="#785ae6" fill-opacity="1"></use><g><use xlink:href="#idXOtX7T" opacity="1" fill-opacity="0" stroke="#000000" stroke-width="1" stroke-opacity="0"></use></g></g><g><use xlink:href="#a4wyw0UYPr" opacity="1" fill="#826ec8" fill-opacity="1"></use><g><use xlink:href="#a4wyw0UYPr" opacity="1" fill-opacity="0" stroke="#000000" stroke-width="1" stroke-opacity="0"></use></g></g><g><use xlink:href="#b8Ix3f5kr" opacity="1" fill="#785ae6" fill-opacity="1"></use><g><use xlink:href="#b8Ix3f5kr" opacity="1" fill-opacity="0" stroke="#000000" stroke-width="1" stroke-opacity="0"></use></g></g><g><use xlink:href="#fVKah6lO6" opacity="1" fill="#785ae6" fill-opacity="1"></use><g><use xlink:href="#fVKah6lO6" opacity="1" fill-opacity="0" stroke="#000000" stroke-width="1" stroke-opacity="0"></use></g></g><g><use xlink:href="#h5GWa4UM1" opacity="1" fill="#785ae6" fill-opacity="1"></use><g><use xlink:href="#h5GWa4UM1" opacity="1" fill-opacity="0" stroke="#000000" stroke-width="1" stroke-opacity="0"></use></g></g><g><use xlink:href="#c214So1xoy" opacity="1" fill="#785ae6" fill-opacity="1"></use><g><use xlink:href="#c214So1xoy" opacity="1" fill-opacity="0" stroke="#000000" stroke-width="1" stroke-opacity="0"></use></g></g><g><use xlink:href="#amLHP6K3Y" opacity="1" fill="#785ae6" fill-opacity="1"></use><g><use xlink:href="#amLHP6K3Y" opacity="1" fill-opacity="0" stroke="#000000" stroke-width="1" stroke-opacity="0"></use></g></g><g><use xlink:href="#daEcy2cGn" opacity="1" fill="#785ae6" fill-opacity="1"></use><g><use xlink:href="#daEcy2cGn" opacity="1" fill-opacity="0" stroke="#000000" stroke-width="1" stroke-opacity="0"></use></g></g><g><use xlink:href="#a1C7hdU59k" opacity="1" fill="#785ae6" fill-opacity="1"></use><g><use xlink:href="#a1C7hdU59k" opacity="1" fill-opacity="0" stroke="#000000" stroke-width="1" stroke-opacity="0"></use></g></g><g><use xlink:href="#a4yPBquZmJ" opacity="1" fill="#785ae6" fill-opacity="1"></use><g><use xlink:href="#a4yPBquZmJ" opacity="1" fill-opacity="0" stroke="#000000" stroke-width="1" stroke-opacity="0"></use></g></g><g><use xlink:href="#b7lDk4WWjU" opacity="1" fill="#82aadc" fill-opacity="1"></use><g><use xlink:href="#b7lDk4WWjU" opacity="1" fill-opacity="0" stroke="#000000" stroke-width="1" stroke-opacity="0"></use></g></g><g><use xlink:href="#bEd01Fn9U" opacity="1" fill="#82aadc" fill-opacity="1"></use><g><use xlink:href="#bEd01Fn9U" opacity="1" fill-opacity="0" stroke="#000000" stroke-width="1" stroke-opacity="0"></use></g></g><g><use xlink:href="#e1Xw0O1FAc" opacity="1" fill="#785ae6" fill-opacity="1"></use><g><use xlink:href="#e1Xw0O1FAc" opacity="1" fill-opacity="0" stroke="#000000" stroke-width="1" stroke-opacity="0"></use></g></g><g><use xlink:href="#bD9VLg2K7" opacity="1" fill="#785ae6" fill-opacity="1"></use><g><use xlink:href="#bD9VLg2K7" opacity="1" fill-opacity="0" stroke="#000000" stroke-width="1" stroke-opacity="0"></use></g></g><g><use xlink:href="#b3kqWOTnfR" opacity="1" fill="#785ae6" fill-opacity="1"></use><g><use xlink:href="#b3kqWOTnfR" opacity="1" fill-opacity="0" stroke="#000000" stroke-width="1" stroke-opacity="0"></use></g></g><g><use xlink:href="#e3vcTaGdDl" opacity="1" fill="#aad2ff" fill-opacity="1"></use><g><use xlink:href="#e3vcTaGdDl" opacity="1" fill-opacity="0" stroke="#000000" stroke-width="1" stroke-opacity="0"></use></g></g><g><use xlink:href="#dWboeGR7B" opacity="1" fill="#96bef0" fill-opacity="1"></use><g><use xlink:href="#dWboeGR7B" opacity="1" fill-opacity="0" stroke="#000000" stroke-width="1" stroke-opacity="0"></use></g></g><g><use xlink:href="#a12PxtEYOh" opacity="1" fill="#bee6ff" fill-opacity="1"></use><g><use xlink:href="#a12PxtEYOh" opacity="1" fill-opacity="0" stroke="#000000" stroke-width="1" stroke-opacity="0"></use></g></g><g><use xlink:href="#aSq9CE2rc" opacity="1" fill="#82aadc" fill-opacity="1"></use><g><use xlink:href="#aSq9CE2rc" opacity="1" fill-opacity="0" stroke="#000000" stroke-width="1" stroke-opacity="0"></use></g></g><g><use xlink:href="#c10KOImYVw" opacity="1" fill="#aad2ff" fill-opacity="1"></use><g><use xlink:href="#c10KOImYVw" opacity="1" fill-opacity="0" stroke="#000000" stroke-width="1" stroke-opacity="0"></use></g></g><g><use xlink:href="#a2SylSMUFg" opacity="1" fill="#96bef0" fill-opacity="1"></use><g><use xlink:href="#a2SylSMUFg" opacity="1" fill-opacity="0" stroke="#000000" stroke-width="1" stroke-opacity="0"></use></g></g><g><use xlink:href="#ekge7jeFN" opacity="1" fill="#bee6ff" fill-opacity="1"></use><g><use xlink:href="#ekge7jeFN" opacity="1" fill-opacity="0" stroke="#000000" stroke-width="1" stroke-opacity="0"></use></g></g><g><use xlink:href="#b1cfJQcxL3" opacity="1" fill="#82aadc" fill-opacity="1"></use><g><use xlink:href="#b1cfJQcxL3" opacity="1" fill-opacity="0" stroke="#000000" stroke-width="1" stroke-opacity="0"></use></g></g><g><use xlink:href="#a6s3Upaml" opacity="1" fill="#f0dc78" fill-opacity="1"></use><g><use xlink:href="#a6s3Upaml" opacity="1" fill-opacity="0" stroke="#000000" stroke-width="1" stroke-opacity="0"></use></g></g><g><use xlink:href="#k372Y4oBm7" opacity="1" fill="#f0dc78" fill-opacity="1"></use><g><use xlink:href="#k372Y4oBm7" opacity="1" fill-opacity="0" stroke="#000000" stroke-width="1" stroke-opacity="0"></use></g></g><g><use xlink:href="#bkIuXdULz" opacity="1" fill="#785ae6" fill-opacity="1"></use><g><use xlink:href="#bkIuXdULz" opacity="1" fill-opacity="0" stroke="#000000" stroke-width="1" stroke-opacity="0"></use></g></g><g><use xlink:href="#a5PVUMDlyE" opacity="1" fill="#785ae6" fill-opacity="1"></use><g><use xlink:href="#a5PVUMDlyE" opacity="1" fill-opacity="0" stroke="#000000" stroke-width="1" stroke-opacity="0"></use></g></g></g></g></svg>