<?xml version="1.0" encoding="UTF-8" standalone="no"?>
<!DOCTYPE svg PUBLIC "-//W3C//DTD SVG 1.1//EN" "http://www.w3.org/Graphics/SVG/1.1/DTD/svg11.dtd">
<svg version="1.1" xmlns="http://www.w3.org/2000/svg" xmlns:xlink="http://www.w3.org/1999/xlink" preserveAspectRatio="xMidYMid meet" viewBox="0 0 352 480" width="352" height="480"><defs><path d="M68 140C68 140 44 132 52 116C52 116 38.46 106.42 46.07 96.28C53.68 86.14 61.29 89.1 61.29 89.1C61.29 89.1 44.38 82.76 49.88 69.66C55.38 56.55 68.01 59.09 68.01 59.09C68.01 59.09 53.68 48.1 65.94 36.27C78.19 24.44 89.6 33.74 89.6 33.74C89.6 33.74 85.47 18.52 100 12.61C114.53 6.7 121.29 18.94 121.29 18.94C121.29 18.94 124.06 5.42 140 4.15C155.94 2.89 164 16.41 164 16.41C164 16.41 172.84 5.42 188.9 9.22C204.95 13.02 204 26.55 204 26.55C204 26.55 221.86 16.83 234.11 27.82C246.37 38.8 238.34 50.22 238.34 50.22C238.34 50.22 256.93 47.68 261.58 59.51C266.22 71.34 258.62 77.68 258.62 77.68C258.62 77.68 272.98 80.22 275.52 93.31C278.06 106.41 267.07 109.37 267.07 109.37C267.07 109.37 280.4 119.78 275.9 131.99C271.41 144.2 262.69 144.2 262.69 144.2C262.69 144.2 270.62 161.91 251.4 169.24C249.06 171.12 230.34 186.12 228 188C228 188 232.18 198.99 227.21 205.22C227.21 205.22 230.5 220.36 217.25 225.14C204 229.91 204 229.92 204 229.92C176.8 211.94 95.2 157.98 68 140Z" id="aeXM7GVhm"></path><path d="M89.59 49.74C89.59 49.74 85.47 34.52 100 28.61C114.53 22.7 121.29 34.94 121.29 34.94C121.29 34.94 124.06 21.42 140 20.15C155.94 18.89 164 32.41 164 32.41C164 32.41 172.84 21.42 188.9 25.22C204.95 29.03 204 42.55 204 42.55C204 42.55 221.86 32.83 234.11 43.82C236.23 45.72 237.72 47.63 238.77 49.5C240.25 46.87 244.58 37.2 234.11 27.82C221.86 16.83 204 26.55 204 26.55C204 26.55 204.95 13.03 188.9 9.22C172.84 5.42 164 16.41 164 16.41C164 16.41 155.94 2.89 140 4.15C124.06 5.42 121.29 18.94 121.29 18.94C121.29 18.94 114.53 6.69 100 12.61C85.47 18.53 89.59 33.74 89.59 33.74C89.59 33.74 78.18 24.44 65.93 36.27C58.49 43.46 60.85 50.31 63.85 54.6C64.44 53.83 65.12 53.06 65.93 52.27C78.18 40.44 84.86 50.24 89.59 49.74Z" id="a81RvJkCrx"></path><path d="M244 276C244 276 284 292 316 316C316 316 348 372 348 412C348 412 348 476 348 476C313.6 476 38.4 476 4 476C4 476 4 444 4 412C4 412 4 332 36 316C36 316 84 292 84 292C116 288.8 212 279.2 244 276Z" id="amgukrvl3"></path><path d="M244 276C228 277.6 100 290.4 84 292C84 292 68 300 36 316C36 316 4 380 4 412C4 413.6 4 426.4 4 428C4 396 4 348 36 332C68 316 84 308 84 308C100 306.4 228 293.6 244 292C244 292 284 308 316 332C316 332 348 388 348 428C348 422.99 348 417.68 348 412C348 372 348 340 316 316C284 292 258.4 284 244 276Z" id="eHXlxRvEN"></path><path d="M4 476C210.4 476 325.07 476 348 476C348 476 348 470.34 348 460C325.07 460 210.4 460 4 460L4 476Z" id="boF3gQdSA"></path><path d="M132 284L100 300L116.06 356.72L148 364L188.22 350.59L252 284L212 276L132 284Z" id="a4a44DK3lA"></path><path d="M124 351.28C124 359.59 124 401.17 124 476L172 476L172 364C172 356.37 172 352.13 172 351.28C165.85 353.5 156.98 356 148 356C139.02 356 130.15 353.5 124 351.28Z" id="aoUQrkXwd"></path><path d="M131.56 252L131.56 324L212 324L212 189.92L131.56 252Z" id="b1TwHlgOWc"></path><path d="M208 324C208 314.59 208 239.33 208 229.92C208 227.71 209.79 225.92 212 225.92C214.21 225.92 216 227.71 216 229.92C216 239.33 216 314.59 216 324C216 326.21 214.21 328 212 328C209.79 328 208 326.21 208 324Z" id="aLJO5yyv7"></path><path d="M127.55 324C127.55 316.8 127.55 259.2 127.55 252C127.55 249.79 129.34 248 131.55 248C133.76 248 135.55 249.79 135.55 252C135.55 259.2 135.55 316.8 135.55 324C135.55 326.21 133.77 328 131.55 328C129.34 328 127.55 326.21 127.55 324Z" id="a1QlfvFsG2"></path><path d="M264 476C264 466.4 264 389.6 264 380C264 377.79 265.79 376 268 376C270.21 376 272 377.79 272 380C272 389.6 272 466.4 272 476C272 478.21 270.21 480 268 480C265.79 480 264 478.21 264 476Z" id="a2O1ofmXLw"></path><path d="M32 476C32 466.4 32 389.6 32 380C32 377.79 33.79 376 36 376C38.21 376 40 377.79 40 380C40 389.6 40 466.4 40 476C40 478.21 38.21 480 36 480C33.79 480 32 478.21 32 476Z" id="d3mrlIG39"></path><path d="M168 476C168 464.8 168 375.2 168 364C168 361.79 169.79 360 172 360C174.21 360 176 361.79 176 364C176 375.2 176 464.8 176 476C176 478.21 174.21 480 172 480C169.79 480 168 478.21 168 476Z" id="cgVZmOp71"></path><path d="M120 476C120 464.8 120 375.2 120 364C120 361.79 121.79 360 124 360C126.21 360 128 361.79 128 364C128 375.2 128 464.8 128 476C128 478.21 126.21 480 124 480C121.79 480 120 478.21 120 476Z" id="e12KnuIxlR"></path><path d="M220 340C220 340 300 324 292 292C292 292 244 236 212 236C212 242.59 212 295.3 212 301.89C212 301.89 172 324 172 364C172 364 180 348 220 340Z" id="b73cw3cGb7"></path><path d="M292 292C284 260 244 236 212 236C212 237.6 212 250.4 212 252C243.79 252 283.46 275.7 291.81 307.39C293.3 302.98 293.47 297.9 292 292Z" id="d4jD6iXSR"></path><path d="M132 284C132 284 108 300 116 324C116 324 124 364 124 364C100 332 76 324 84 292C92 260 124 236 132 236C132 245.6 132 274.4 132 284Z" id="bnNRRVYO"></path><path d="M171.03 367.85C169.26 367.4 168 365.83 168 364C168 327.02 199.46 304.94 208 299.62C208 293.25 208 242.36 208 236C208 233.79 209.79 232 212 232C244.7 232 287.18 256.24 295.88 291.03C298.1 299.9 297.08 307.77 292.87 314.42C281.95 331.69 252.24 337.63 220.78 343.92C183.77 351.32 175.62 365.7 175.54 365.84C174.83 367.17 173.46 367.97 172 367.97C171.68 367.97 171.35 367.93 171.03 367.85ZM216 301.9C216 303.35 215.21 304.69 213.94 305.4C213.6 305.58 183.42 322.7 177.13 352.94C184.42 347.34 197.26 340.48 219.22 336.09C247.63 330.41 277.02 324.53 286.11 310.16C289.15 305.36 289.81 299.74 288.11 292.98C280.87 264 245.06 242.02 216 240.14C216 252.49 216 295.72 216 301.9Z" id="beiEyVyOI"></path><path d="M120.8 366.4C113.86 357.14 106.86 349.87 100.66 343.46C85.74 327.96 73.94 315.73 80.12 291.03C88.34 258.18 121.54 232 132 232C134.21 232 136 233.79 136 236C136 240.8 136 279.2 136 284C136 285.34 135.33 286.58 134.22 287.33C133.35 287.92 112.87 301.98 119.79 322.74C127.9 347.07 128 363.32 128 364C128 365.72 126.9 367.25 125.26 367.79C124.85 367.94 124.42 368 124 368C122.77 368 121.57 367.42 120.8 366.4ZM87.88 292.97C82.78 313.36 91.68 322.6 106.42 337.9C110.25 341.87 114.38 346.16 118.64 351.06C117.56 344.44 115.64 335.6 112.19 325.27C105.54 305.32 118.74 288.95 127.99 281.94C127.99 279.25 127.99 265.76 127.99 241.49C105.63 258.28 92.26 275.44 87.88 292.97ZM132 284L132.08 284L132 284Z" id="cKCqu4PXn"></path><path d="M208.24 228.4C207.48 226.32 208.55 224.03 210.63 223.27C211.09 223.11 214.78 221.77 215.24 221.61C225.45 217.93 223.54 207.26 223.29 206.05C223.05 204.88 223.34 203.65 224.08 202.71C226.98 199.09 225.14 191.71 224.26 189.42C223.64 187.79 224.14 185.96 225.5 184.87C227.84 183 246.56 168 248.9 166.13C249.22 165.86 249.59 165.66 249.98 165.51C254.78 163.68 257.93 161 259.37 157.53C261.66 151.99 259.06 145.9 259.04 145.84C258.49 144.6 258.59 143.17 259.33 142.02C260.07 140.89 261.33 140.2 262.69 140.2C262.86 140.19 268.76 139.82 272.16 130.61C275.58 121.32 264.71 112.6 264.61 112.51C263.42 111.58 262.86 110.05 263.16 108.57C263.46 107.08 264.58 105.9 266.03 105.5C267.22 105.15 273.3 102.89 271.59 94.07C269.61 83.78 258.05 81.63 257.93 81.61C256.4 81.34 255.16 80.21 254.76 78.7C254.36 77.19 254.87 75.59 256.06 74.6C256.57 74.15 261.27 69.66 257.86 60.96C254.45 52.3 239.04 54.14 238.88 54.17C237.34 54.38 235.74 53.65 234.93 52.28C234.1 50.92 234.15 49.2 235.07 47.9C235.66 47.04 240.65 39.03 231.45 30.78C221.4 21.78 206.06 29.97 205.93 30.05C204.64 30.74 203.08 30.69 201.85 29.9C200.62 29.1 199.92 27.71 200.02 26.25C200.07 25.24 200.18 15.98 187.98 13.1C174.78 9.98 167.42 18.55 167.11 18.92C166.28 19.92 165.02 20.49 163.71 20.37C162.42 20.26 161.23 19.55 160.57 18.44C160.3 17.99 153.6 7.06 140.33 8.13C127.53 9.14 125.23 19.63 125.22 19.74C124.87 21.38 123.55 22.63 121.9 22.89C120.2 23.14 118.61 22.34 117.79 20.87C117.27 19.97 112.29 11.94 101.51 16.3C90.39 20.83 93.34 32.2 93.46 32.69C93.91 34.36 93.23 36.14 91.78 37.09C90.33 38.03 88.42 37.94 87.07 36.83C86.18 36.14 78 30.17 68.71 39.14C66.06 41.7 64.84 44.22 64.98 46.82C65.26 51.81 70.38 55.86 70.44 55.9C71.92 57.04 72.42 59.04 71.64 60.74C70.87 62.42 69.09 63.38 67.21 63.01C66.29 62.84 57.62 61.54 53.56 71.2C52.58 73.53 52.52 75.61 53.37 77.55C55.52 82.54 62.62 85.31 62.69 85.34C62.7 85.35 62.72 85.36 62.73 85.36C64.78 86.16 65.81 88.46 65.02 90.51C64.23 92.57 61.93 93.59 59.87 92.83C59.86 92.82 59.84 92.82 59.82 92.82C59.69 92.77 54.78 91.32 49.27 98.67C48.01 100.35 47.54 101.97 47.82 103.74C48.46 107.78 52.82 111.68 54.31 112.73C55.92 113.87 56.46 116.02 55.58 117.78C54.2 120.54 54.01 123.02 54.98 125.37C57.38 131.14 66.1 135.15 69.26 136.2C71.36 136.9 72.49 139.16 71.79 141.26C71.09 143.36 68.82 144.49 66.73 143.78C66.13 143.58 51.85 138.72 47.58 128.42C46.1 124.86 45.98 121.04 47.18 117.21C44.57 114.79 40.77 110.45 39.91 104.98C39.3 101.1 40.33 97.26 42.86 93.87C45.4 90.49 48 88.3 50.45 86.91C48.68 85.24 47.07 83.18 46.01 80.73C44.3 76.78 44.36 72.42 46.18 68.1C49.34 60.58 54.72 57.05 59.74 55.64C58.33 53.31 57.17 50.48 56.98 47.28C56.7 42.28 58.77 37.61 63.14 33.39C70.98 25.82 79.1 25.38 85.07 27.07C85.57 20.54 88.8 12.84 98.48 8.9C108.11 4.97 115.48 7.72 120.13 11.54C123.35 6.38 129.47 0.98 139.66 0.17C152.21 -0.81 160.42 5.95 164.48 10.5C168.99 6.99 177.62 2.46 189.81 5.34C200.85 7.95 205.63 14.93 207.29 20.82C214.24 18.39 226.85 15.94 236.78 24.85C244.88 32.11 245.77 40.13 244.4 46.03C251.28 46.34 261.54 48.5 265.3 58.06C268.34 65.82 267.01 71.74 265.07 75.58C270.32 77.86 277.54 82.73 279.45 92.57C281.18 101.49 277.72 107.15 273.74 110.31C277.94 115.1 283.26 123.61 279.65 133.38C276.52 141.87 271.48 145.5 267.71 147.05C268.45 150.53 268.83 155.57 266.75 160.59C264.51 166.01 260.02 170.1 253.42 172.75C251.34 174.42 234.7 187.75 232.62 189.42C233.65 193.37 234.76 200.51 231.41 206.14C232.27 213 230.57 224.58 218.59 228.9C218.07 229.08 213.88 230.6 213.36 230.78C212.91 230.96 212.46 231.03 212 231.03C210.37 231.03 208.83 230.02 208.24 228.4Z" id="ddeXfjS2I"></path><path d="M68 84C68 156 68 196 68 204C68 230.51 89.49 252 116 252C120 252 152 252 156 252C186.93 252 212 226.93 212 196C212 195.47 212 192.8 212 188C221.6 188 226.93 188 228 188C241.26 188 252 177.26 252 164C252 162.4 252 149.6 252 148C252 134.74 241.26 124 228 124C226.93 124 221.6 124 212 124L188 84L68 84Z" id="bpd70cyju"></path><path d="M80 164C80 161.6 80 142.4 80 140C80 137.79 81.79 136 84 136C86.21 136 88 137.79 88 140C88 142.4 88 161.6 88 164C88 166.21 86.21 168 84 168C81.79 168 80 166.21 80 164Z" id="gEqPj2EZc"></path><path d="M188 228C188 228 187.22 212.71 180 204C171.78 194.06 152 196 108 196C76 196 68 220 76 236C76 236 84 260 124 260C204 260 197.57 236 197.57 236C195.65 234.4 188 236 188 228ZM124 228C116 228 116 228 108 228C100 228 100 236 92 236C84 236 84 206.14 108 206.14C124 206.14 164 201.96 164 216C164 224 164 236 148 236C132 236 132 228 124 228Z" id="aGFVR1SfV"></path><path d="M220 116C220 116 212 148 204 148C204 148 196 124 196 124C172 108 164 84 164 84C108 76 84 84 84 84C76 108 68 116 68 116C68 114.43 66 109.79 66 102.08C66 96.42 64.91 91.47 65.57 82.5C65.85 78.75 66.66 73.91 68 68L220 68C220 93.6 220 109.6 220 116Z" id="berSnTMWK"></path><path d="M69.36 227.02C65.81 219.82 64 212.07 64 204C64 195.2 64 124.8 64 116C64 113.79 65.79 112 68 112C70.21 112 72 113.79 72 116C72 124.8 72 195.2 72 204C72 210.83 73.52 217.38 76.53 223.48C77.5 225.46 76.7 227.86 74.71 228.83C74.15 229.11 73.54 229.25 72.94 229.25C71.47 229.25 70.06 228.43 69.36 227.02Z" id="a4GNy2pu14"></path><path d="M212 192C209.79 192 208 190.21 208 188C208 185.79 209.79 184 212 184C213.6 184 226.4 184 228 184C239.03 184 248 175.02 248 164C248 162.4 248 149.6 248 148C248 136.98 239.03 128 228 128C227.2 128 220.8 128 220 128C217.79 128 216 126.21 216 124C216 121.79 217.79 120 220 120C220.8 120 227.2 120 228 120C243.44 120 256 132.56 256 148C256 149.6 256 162.4 256 164C256 179.44 243.44 192 228 192C224.8 192 213.6 192 212 192Z" id="akhYiUK0w"></path><path d="M100 224C97.79 224 96 222.21 96 220C96 217.79 97.79 216 100 216C104 216 136 216 140 216C143.22 216 143.95 213.8 144 211.95C144.06 209.77 145.96 208.34 148.05 208.02C150.24 208.06 152 209.82 152 212C152 216.82 148.81 224 140 224C132 224 104 224 100 224Z" id="c38TBUXoUP"></path><path d="M80 180C80 171.49 93.68 143.7 96.42 138.21C97.42 136.23 99.82 135.45 101.79 136.42C103.77 137.41 104.57 139.81 103.58 141.78C97.11 154.73 88 175.14 88 180C88 182.41 95.22 184 100 184C102.21 184 104 185.79 104 188C104 190.21 102.21 192 100 192C90.78 192 80 188.86 80 180Z" id="e1d7AYUfqE"></path><path d="M136 164C136 161.6 136 142.4 136 140C136 137.79 137.79 136 140 136C142.21 136 144 137.79 144 140C144 142.4 144 161.6 144 164C144 166.21 142.21 168 140 168C137.79 168 136 166.21 136 164Z" id="c7zGlVavpB"></path><path d="M161.17 134.83C140.48 114.15 127.34 126.34 126.8 126.86C125.22 128.39 122.7 128.36 121.15 126.79C119.62 125.22 119.62 122.73 121.17 121.18C121.35 120.99 140.32 102.66 166.82 129.18C168.38 130.74 168.38 133.27 166.82 134.83C166.05 135.61 165.02 136 164 136C162.98 136 161.95 135.61 161.17 134.83Z" id="aSDv5ed8F"></path><path d="M89.18 126.84C88.29 125.97 80.18 118.56 70.43 126.18C68.71 127.53 66.18 127.23 64.82 125.49C63.46 123.75 63.77 121.23 65.51 119.87C77.96 110.14 90.13 116.47 94.82 121.17C96.38 122.73 96.38 125.26 94.82 126.82C94.05 127.61 93.02 128 92 128C90.98 128 89.97 127.62 89.18 126.84Z" id="f1ZB6hGlc"></path><path d="M208.42 303.68C207.44 301.7 208.24 299.3 210.22 298.31C225.86 290.49 241.74 280.7 241.9 280.6C243.78 279.43 246.25 280.02 247.41 281.9C248.57 283.78 247.98 286.25 246.1 287.41C245.94 287.51 229.77 297.49 213.79 305.47C213.21 305.75 212.6 305.89 212 305.89C210.54 305.89 209.13 305.08 208.42 303.68Z" id="a3OnKX9MKt"></path><path d="M72.2 237.26C70.57 234.07 69.44 229.92 69.18 225.78C69.03 223.57 70.7 221.66 72.91 221.53C74.9 221.42 77.02 223.05 77.16 225.26C77.35 228.35 78.19 231.45 79.58 234.22C80.1 235.58 87.67 256 124 256C134.52 256 144.09 255.58 152.45 254.74C154.46 254.55 156.61 256.11 156.82 258.32C157.05 260.51 155.45 262.48 153.25 262.7C144.62 263.56 134.79 264 124 264C81.6 264 72.57 238.35 72.2 237.26Z" id="a4mdShm68"></path><path d="M4 480C1.79 480 0 478.21 0 476C0 469.6 0 418.4 0 412C0 379.16 0 329.53 34.21 312.42C39.01 310.02 77.41 290.82 82.21 288.42C84.19 287.44 86.58 288.23 87.58 290.22C88.56 292.19 87.76 294.59 85.78 295.58C80.98 297.98 42.58 317.18 37.78 319.58C8 334.47 8 381.13 8 412C8 416 8 436 8 472L344 472C344 436 344 416 344 412C344 372.89 344 342 313.6 319.2C306.88 314.17 299.27 309.09 290.98 304.11C289.08 302.98 288.46 300.52 289.6 298.62C290.75 296.73 293.22 296.13 295.09 297.26C303.62 302.38 311.46 307.6 318.4 312.8C352 338 352 372.3 352 412C352 418.4 352 469.6 352 476C352 478.21 350.21 480 348 480C279.2 480 38.4 480 4 480Z" id="a1oATJg9Bl"></path><path d="M184 372C184 365.38 189.38 360 196 360C202.62 360 208 365.38 208 372C208 378.62 202.62 384 196 384C189.38 384 184 378.62 184 372ZM192 372C192 374.21 193.8 376 196 376C198.2 376 200 374.21 200 372C200 369.79 198.2 368 196 368C193.8 368 192 369.79 192 372Z" id="d29ypT9WSe"></path><path d="M88 372C88 365.38 93.38 360 100 360C106.62 360 112 365.38 112 372C112 378.62 106.62 384 100 384C93.38 384 88 378.62 88 372ZM96 372C96 374.21 97.8 376 100 376C102.2 376 104 374.21 104 372C104 369.79 102.2 368 100 368C97.8 368 96 369.79 96 372Z" id="b1l0DmovCZ"></path><path d="M192 444C192 436.8 192 379.2 192 372C192 369.79 193.79 368 196 368C198.21 368 200 369.79 200 372C200 379.2 200 436.8 200 444C200 446.21 198.21 448 196 448C193.79 448 192 446.21 192 444Z" id="a1m0XLhmr4"></path><path d="M196 440C191.58 440 188 443.58 188 448C188 452.42 191.58 456 196 456C200.42 456 204 452.42 204 448C204 443.58 200.42 440 196 440Z" id="enGM42GAw"></path><path d="M96 444C96 436.8 96 379.2 96 372C96 369.79 97.79 368 100 368C102.21 368 104 369.79 104 372C104 379.2 104 436.8 104 444C104 446.21 102.21 448 100 448C97.79 448 96 446.21 96 444Z" id="c1LYy5NooQ"></path><path d="M100 440C95.58 440 92 443.58 92 448C92 452.42 95.58 456 100 456C104.42 456 108 452.42 108 448C108 443.58 104.42 440 100 440Z" id="e1FMEL2IY2"></path></defs><g><g><g><use xlink:href="#aeXM7GVhm" opacity="1" fill="#826ec8" fill-opacity="1"></use><g><use xlink:href="#aeXM7GVhm" opacity="1" fill-opacity="0" stroke="#000000" stroke-width="1" stroke-opacity="0"></use></g></g><g><use xlink:href="#a81RvJkCrx" opacity="1" fill="#8d7bd4" fill-opacity="1"></use><g><use xlink:href="#a81RvJkCrx" opacity="1" fill-opacity="0" stroke="#000000" stroke-width="1" stroke-opacity="0"></use></g></g><g><use xlink:href="#amgukrvl3" opacity="1" fill="#ffe885" fill-opacity="1"></use><g><use xlink:href="#amgukrvl3" opacity="1" fill-opacity="0" stroke="#000000" stroke-width="1" stroke-opacity="0"></use></g></g><g><use xlink:href="#eHXlxRvEN" opacity="1" fill="#fffa96" fill-opacity="1"></use><g><use xlink:href="#eHXlxRvEN" opacity="1" fill-opacity="0" stroke="#000000" stroke-width="1" stroke-opacity="0"></use></g></g><g><use xlink:href="#boF3gQdSA" opacity="1" fill="#f0dc78" fill-opacity="1"></use><g><use xlink:href="#boF3gQdSA" opacity="1" fill-opacity="0" stroke="#000000" stroke-width="1" stroke-opacity="0"></use></g></g><g><use xlink:href="#a4a44DK3lA" opacity="1" fill="#c88c5a" fill-opacity="1"></use><g><use xlink:href="#a4a44DK3lA" opacity="1" fill-opacity="0" stroke="#000000" stroke-width="1" stroke-opacity="0"></use></g></g><g><use xlink:href="#aoUQrkXwd" opacity="1" fill="#b4aaf0" fill-opacity="1"></use><g><use xlink:href="#aoUQrkXwd" opacity="1" fill-opacity="0" stroke="#000000" stroke-width="1" stroke-opacity="0"></use></g></g><g><use xlink:href="#b1TwHlgOWc" opacity="1" fill="#c88c5a" fill-opacity="1"></use><g><use xlink:href="#b1TwHlgOWc" opacity="1" fill-opacity="0" stroke="#000000" stroke-width="1" stroke-opacity="0"></use></g></g><g><use xlink:href="#aLJO5yyv7" opacity="1" fill="#785ae6" fill-opacity="1"></use><g><use xlink:href="#aLJO5yyv7" opacity="1" fill-opacity="0" stroke="#000000" stroke-width="1" stroke-opacity="0"></use></g></g><g><use xlink:href="#a1QlfvFsG2" opacity="1" fill="#785ae6" fill-opacity="1"></use><g><use xlink:href="#a1QlfvFsG2" opacity="1" fill-opacity="0" stroke="#000000" stroke-width="1" stroke-opacity="0"></use></g></g><g><use xlink:href="#a2O1ofmXLw" opacity="1" fill="#f0dc78" fill-opacity="1"></use><g><use xlink:href="#a2O1ofmXLw" opacity="1" fill-opacity="0" stroke="#000000" stroke-width="1" stroke-opacity="0"></use></g></g><g><use xlink:href="#d3mrlIG39" opacity="1" fill="#f0dc78" fill-opacity="1"></use><g><use xlink:href="#d3mrlIG39" opacity="1" fill-opacity="0" stroke="#000000" stroke-width="1" stroke-opacity="0"></use></g></g><g><use xlink:href="#cgVZmOp71" opacity="1" fill="#785ae6" fill-opacity="1"></use><g><use xlink:href="#cgVZmOp71" opacity="1" fill-opacity="0" stroke="#000000" stroke-width="1" stroke-opacity="0"></use></g></g><g><use xlink:href="#e12KnuIxlR" opacity="1" fill="#785ae6" fill-opacity="1"></use><g><use xlink:href="#e12KnuIxlR" opacity="1" fill-opacity="0" stroke="#000000" stroke-width="1" stroke-opacity="0"></use></g></g><g><use xlink:href="#b73cw3cGb7" opacity="1" fill="#ffe885" fill-opacity="1"></use><g><use xlink:href="#b73cw3cGb7" opacity="1" fill-opacity="0" stroke="#000000" stroke-width="1" stroke-opacity="0"></use></g></g><g><use xlink:href="#d4jD6iXSR" opacity="1" fill="#fffa96" fill-opacity="1"></use><g><use xlink:href="#d4jD6iXSR" opacity="1" fill-opacity="0" stroke="#000000" stroke-width="1" stroke-opacity="0"></use></g></g><g><use xlink:href="#bnNRRVYO" opacity="1" fill="#ffe885" fill-opacity="1"></use><g><use xlink:href="#bnNRRVYO" opacity="1" fill-opacity="0" stroke="#000000" stroke-width="1" stroke-opacity="0"></use></g></g><g><use xlink:href="#beiEyVyOI" opacity="1" fill="#785ae6" fill-opacity="1"></use><g><use xlink:href="#beiEyVyOI" opacity="1" fill-opacity="0" stroke="#000000" stroke-width="1" stroke-opacity="0"></use></g></g><g><use xlink:href="#cKCqu4PXn" opacity="1" fill="#785ae6" fill-opacity="1"></use><g><use xlink:href="#cKCqu4PXn" opacity="1" fill-opacity="0" stroke="#000000" stroke-width="1" stroke-opacity="0"></use></g></g><g><use xlink:href="#ddeXfjS2I" opacity="1" fill="#785ae6" fill-opacity="1"></use><g><use xlink:href="#ddeXfjS2I" opacity="1" fill-opacity="0" stroke="#000000" stroke-width="1" stroke-opacity="0"></use></g></g><g><use xlink:href="#bpd70cyju" opacity="1" fill="#e1a271" fill-opacity="1"></use><g><use xlink:href="#bpd70cyju" opacity="1" fill-opacity="0" stroke="#000000" stroke-width="1" stroke-opacity="0"></use></g></g><g><use xlink:href="#gEqPj2EZc" opacity="1" fill="#785ae6" fill-opacity="1"></use><g><use xlink:href="#gEqPj2EZc" opacity="1" fill-opacity="0" stroke="#000000" stroke-width="1" stroke-opacity="0"></use></g></g><g><use xlink:href="#aGFVR1SfV" opacity="1" fill="#826ec8" fill-opacity="1"></use><g><use xlink:href="#aGFVR1SfV" opacity="1" fill-opacity="0" stroke="#000000" stroke-width="1" stroke-opacity="0"></use></g></g><g><use xlink:href="#berSnTMWK" opacity="1" fill="#826ec8" fill-opacity="1"></use><g><use xlink:href="#berSnTMWK" opacity="1" fill-opacity="0" stroke="#000000" stroke-width="1" stroke-opacity="0"></use></g></g><g><use xlink:href="#a4GNy2pu14" opacity="1" fill="#785ae6" fill-opacity="1"></use><g><use xlink:href="#a4GNy2pu14" opacity="1" fill-opacity="0" stroke="#000000" stroke-width="1" stroke-opacity="0"></use></g></g><g><use xlink:href="#akhYiUK0w" opacity="1" fill="#785ae6" fill-opacity="1"></use><g><use xlink:href="#akhYiUK0w" opacity="1" fill-opacity="0" stroke="#000000" stroke-width="1" stroke-opacity="0"></use></g></g><g><use xlink:href="#c38TBUXoUP" opacity="1" fill="#785ae6" fill-opacity="1"></use><g><use xlink:href="#c38TBUXoUP" opacity="1" fill-opacity="0" stroke="#000000" stroke-width="1" stroke-opacity="0"></use></g></g><g><use xlink:href="#e1d7AYUfqE" opacity="1" fill="#785ae6" fill-opacity="1"></use><g><use xlink:href="#e1d7AYUfqE" opacity="1" fill-opacity="0" stroke="#000000" stroke-width="1" stroke-opacity="0"></use></g></g><g><use xlink:href="#c7zGlVavpB" opacity="1" fill="#785ae6" fill-opacity="1"></use><g><use xlink:href="#c7zGlVavpB" opacity="1" fill-opacity="0" stroke="#000000" stroke-width="1" stroke-opacity="0"></use></g></g><g><use xlink:href="#aSDv5ed8F" opacity="1" fill="#785ae6" fill-opacity="1"></use><g><use xlink:href="#aSDv5ed8F" opacity="1" fill-opacity="0" stroke="#000000" stroke-width="1" stroke-opacity="0"></use></g></g><g><use xlink:href="#f1ZB6hGlc" opacity="1" fill="#785ae6" fill-opacity="1"></use><g><use xlink:href="#f1ZB6hGlc" opacity="1" fill-opacity="0" stroke="#000000" stroke-width="1" stroke-opacity="0"></use></g></g><g><use xlink:href="#a3OnKX9MKt" opacity="1" fill="#785ae6" fill-opacity="1"></use><g><use xlink:href="#a3OnKX9MKt" opacity="1" fill-opacity="0" stroke="#000000" stroke-width="1" stroke-opacity="0"></use></g></g><g><use xlink:href="#a4mdShm68" opacity="1" fill="#785ae6" fill-opacity="1"></use><g><use xlink:href="#a4mdShm68" opacity="1" fill-opacity="0" stroke="#000000" stroke-width="1" stroke-opacity="0"></use></g></g><g><use xlink:href="#a1oATJg9Bl" opacity="1" fill="#785ae6" fill-opacity="1"></use><g><use xlink:href="#a1oATJg9Bl" opacity="1" fill-opacity="0" stroke="#000000" stroke-width="1" stroke-opacity="0"></use></g></g><g><use xlink:href="#d29ypT9WSe" opacity="1" fill="#f0dc78" fill-opacity="1"></use><g><use xlink:href="#d29ypT9WSe" opacity="1" fill-opacity="0" stroke="#000000" stroke-width="1" stroke-opacity="0"></use></g></g><g><use xlink:href="#b1l0DmovCZ" opacity="1" fill="#f0dc78" fill-opacity="1"></use><g><use xlink:href="#b1l0DmovCZ" opacity="1" fill-opacity="0" stroke="#000000" stroke-width="1" stroke-opacity="0"></use></g></g><g><use xlink:href="#a1m0XLhmr4" opacity="1" fill="#f0f0e6" fill-opacity="1"></use><g><use xlink:href="#a1m0XLhmr4" opacity="1" fill-opacity="0" stroke="#000000" stroke-width="1" stroke-opacity="0"></use></g></g><g><use xlink:href="#enGM42GAw" opacity="1" fill="#f0f0e6" fill-opacity="1"></use><g><use xlink:href="#enGM42GAw" opacity="1" fill-opacity="0" stroke="#000000" stroke-width="1" stroke-opacity="0"></use></g></g><g><use xlink:href="#c1LYy5NooQ" opacity="1" fill="#f0f0e6" fill-opacity="1"></use><g><use xlink:href="#c1LYy5NooQ" opacity="1" fill-opacity="0" stroke="#000000" stroke-width="1" stroke-opacity="0"></use></g></g><g><use xlink:href="#e1FMEL2IY2" opacity="1" fill="#f0f0e6" fill-opacity="1"></use><g><use xlink:href="#e1FMEL2IY2" opacity="1" fill-opacity="0" stroke="#000000" stroke-width="1" stroke-opacity="0"></use></g></g></g></g></svg>