<?xml version="1.0" encoding="UTF-8" standalone="no"?>
<!DOCTYPE svg PUBLIC "-//W3C//DTD SVG 1.1//EN" "http://www.w3.org/Graphics/SVG/1.1/DTD/svg11.dtd">
<svg version="1.1" xmlns="http://www.w3.org/2000/svg" xmlns:xlink="http://www.w3.org/1999/xlink" preserveAspectRatio="xMidYMid meet" viewBox="0 0 512 512" width="512" height="512"><defs><path d="M348 300C348 300 388 316 420 340C420 340 452 396 452 436C452 436 452 500 452 500C417.6 500 142.4 500 108 500C108 500 108 468 108 436C108 436 108 356 140 340C140 340 188 316 188 316C220 312.8 316 303.2 348 300Z" id="e5EoWL7M3"></path><path d="M308 287.3L308 269.92L235.56 292L235.56 302.44L180 324C187.82 359.2 192.17 378.76 193.04 382.67C194.37 388.64 201.62 390.98 206.18 386.9C209.09 384.31 223.59 371.34 249.7 348L252 348C285.62 373.21 304.3 387.22 308.04 390.02C312.13 393.09 318.01 391.59 320.12 386.94C322.51 381.67 334.47 355.36 356 308L308 287.3Z" id="a2JQ4vpk7P"></path><path d="M228 348L236 396L276 396L287.16 353.98L252 332L228 348Z" id="e7SyhYppH"></path><path d="M287.16 353.98L252 332L228 348L230.82 364.88L249.7 348L252 348L282.64 370.98L287.16 353.98Z" id="c3McAb0Ao"></path><path d="M348 300C332 301.6 204 314.4 188 316C188 316 172 324 140 340C140 340 108 404 108 436C108 437.6 108 450.4 108 452C108 420 108 372 140 356C172 340 196 332 196 332C210.4 330.4 325.6 317.6 340 316C340 316 388 332 420 356C420 356 452 412 452 452C452 446.99 452 441.68 452 436C452 396 452 364 420 340C388 316 362.4 308 348 300Z" id="b1tfVhAvVx"></path><path d="M205 314.3L180 324C181.71 331.72 182.67 336.01 182.86 336.87C191.11 333.63 196 332 196 332C210.4 330.4 325.6 317.6 340 316C340 316 344.1 317.38 350.61 319.87C350.97 319.08 352.76 315.12 356 308L339.44 300.86L205 314.3Z" id="e4XoQ2yMZe"></path><path d="M172 156C172 156 148 148 156 132C156 132 142.46 122.42 150.07 112.28C157.68 102.14 165.29 105.1 165.29 105.1C165.29 105.1 148.38 98.76 153.88 85.66C159.38 72.55 172 75.09 172 75.09C172 75.09 157.67 64.1 169.93 52.27C182.18 40.44 193.59 49.74 193.59 49.74C193.59 49.74 189.47 34.52 204 28.61C218.53 22.7 225.29 34.94 225.29 34.94C225.29 34.94 228.06 21.42 244 20.15C259.94 18.89 268 32.41 268 32.41C268 32.41 276.84 21.42 292.9 25.22C308.95 29.02 308 42.55 308 42.55C308 42.55 325.86 32.83 338.11 43.82C350.37 54.8 342.34 66.22 342.34 66.22C342.34 66.22 360.93 63.68 365.58 75.51C370.22 87.34 362.62 93.68 362.62 93.68C362.62 93.68 376.98 96.22 379.52 109.31C382.06 122.41 371.07 125.37 371.07 125.37C371.07 125.37 384.4 135.78 379.9 147.99C375.41 160.2 366.69 160.2 366.69 160.2C366.69 160.2 374.62 177.91 355.4 185.24C353.06 187.12 334.34 202.12 332 204C332 204 336.18 214.99 331.21 221.22C331.21 221.22 334.5 236.36 321.25 241.14C308 245.91 308 245.92 308 245.92C280.8 227.94 199.2 173.98 172 156Z" id="c8Ys65Te7"></path><path d="M193.59 65.74C193.59 65.74 189.47 50.52 204 44.61C218.53 38.7 225.29 50.94 225.29 50.94C225.29 50.94 228.06 37.42 244 36.15C259.94 34.89 268 48.41 268 48.41C268 48.41 276.84 37.42 292.9 41.22C308.95 45.03 308 58.55 308 58.55C308 58.55 325.86 48.83 338.11 59.82C340.23 61.72 341.72 63.63 342.77 65.5C344.25 62.87 348.58 53.2 338.11 43.82C325.86 32.83 308 42.55 308 42.55C308 42.55 308.95 29.03 292.9 25.22C276.84 21.42 268 32.41 268 32.41C268 32.41 259.94 18.89 244 20.15C228.06 21.42 225.29 34.94 225.29 34.94C225.29 34.94 218.53 22.69 204 28.61C189.47 34.53 193.59 49.74 193.59 49.74C193.59 49.74 182.18 40.44 169.93 52.27C162.49 59.46 164.85 66.31 167.85 70.6C168.44 69.83 169.12 69.06 169.93 68.27C182.18 56.44 188.86 66.24 193.59 65.74Z" id="a44NpvmKnz"></path><path d="M235.56 268L235.56 332L316 332L316 205.92L235.56 268Z" id="a3gUTwNLTD"></path><path d="M312 276C312 272.7 312 246.33 312 243.03C312 240.82 313.79 239.03 316 239.03C318.21 239.03 320 240.82 320 243.03C320 246.33 320 272.7 320 276C320 278.21 318.21 280 316 280C313.79 280 312 278.21 312 276Z" id="aaJggM1oI"></path><path d="M312.24 244.39C311.49 242.31 312.56 240.02 314.64 239.26C315.17 239.07 319.37 237.56 319.9 237.37C329.73 233.82 327.41 222.54 327.3 222.06C327.05 220.88 327.34 219.65 328.1 218.71C330.99 215.09 329.14 207.71 328.27 205.42C327.66 203.79 328.15 201.96 329.51 200.87C331.85 199 350.58 184 352.92 182.13C353.25 181.86 353.61 181.66 353.99 181.51C358.76 179.7 361.91 177.02 363.35 173.58C365.69 168.02 363.06 161.89 363.04 161.82C362.5 160.58 362.62 159.15 363.36 158.02C364.1 156.9 365.35 156.21 366.7 156.21C366.86 156.2 372.76 155.83 376.16 146.62C379.58 137.33 368.72 128.61 368.61 128.52C367.42 127.58 366.86 126.06 367.17 124.58C367.47 123.09 368.58 121.91 370.04 121.51C371.23 121.16 377.31 118.9 375.6 110.08C373.61 99.79 362.05 97.64 361.93 97.62C360.4 97.34 359.16 96.21 358.76 94.7C358.36 93.2 358.87 91.6 360.06 90.6C360.57 90.15 365.27 85.66 361.86 76.96C358.42 68.22 343.04 70.14 342.88 70.17C341.3 70.38 339.75 69.63 338.93 68.27C338.1 66.91 338.16 65.2 339.08 63.9C339.66 63.05 344.65 55.04 335.45 46.78C325.42 37.78 310.07 45.97 309.92 46.05C308.64 46.75 307.07 46.69 305.85 45.9C304.62 45.1 303.92 43.71 304.02 42.25C304.07 41.24 304.18 31.98 291.99 29.1C278.57 25.94 271.21 34.81 271.14 34.9C270.32 35.91 269.06 36.48 267.74 36.38C266.43 36.29 265.25 35.56 264.58 34.43C264.31 33.98 257.47 23.04 244.34 24.12C231.73 25.12 229.31 35.32 229.22 35.76C228.86 37.38 227.53 38.63 225.88 38.86C224.24 39.07 222.61 38.31 221.81 36.86C221.3 35.95 216.29 27.92 205.54 32.3C194.42 36.82 197.35 48.19 197.48 48.67C197.94 50.35 197.26 52.13 195.8 53.07C194.34 54.02 192.45 53.91 191.1 52.82C190.22 52.12 182.05 46.14 172.74 55.13C170.08 57.69 168.86 60.2 169.02 62.8C169.3 67.79 174.42 71.85 174.46 71.89C175.94 73.02 176.44 75.02 175.67 76.72C174.9 78.41 173.09 79.38 171.25 78.99C170.3 78.82 161.64 77.53 157.59 87.18C156.62 89.5 156.55 91.57 157.38 93.52C159.17 97.69 164.74 100.58 166.73 101.34C166.74 101.34 166.75 101.34 166.76 101.35C168.81 102.15 169.83 104.45 169.05 106.5C168.26 108.56 165.97 109.58 163.9 108.82C163.9 108.82 163.88 108.82 163.86 108.81C163.7 108.76 158.8 107.33 153.3 114.66C152.04 116.34 151.58 117.95 151.85 119.72C152.46 123.73 156.74 127.58 158.34 128.73C159.94 129.87 160.48 132.02 159.6 133.78C158.22 136.53 158.02 139.01 159 141.36C161.39 147.14 170.13 151.14 173.29 152.19C175.38 152.89 176.51 155.15 175.82 157.25C175.12 159.34 172.88 160.49 170.76 159.78C170.15 159.58 155.88 154.71 151.61 144.42C150.14 140.86 150.01 137.03 151.22 133.2C148.6 130.78 144.81 126.44 143.95 120.98C143.34 117.09 144.36 113.24 146.9 109.86C149.43 106.47 152.04 104.29 154.48 102.9C152.72 101.22 151.1 99.17 150.04 96.71C148.34 92.77 148.4 88.41 150.21 84.1C153.37 76.57 158.76 73.04 163.78 71.63C162.37 69.3 161.21 66.46 161.02 63.27C160.74 58.27 162.82 53.6 167.18 49.38C175.02 41.82 183.15 41.37 189.11 43.06C189.62 36.54 192.84 28.83 202.52 24.9C212.14 20.97 219.52 23.71 224.17 27.54C227.4 22.38 233.51 16.98 243.71 16.16C256.29 15.16 264.47 21.94 268.53 26.49C273.02 22.98 281.62 18.43 293.86 21.33C304.9 23.94 309.68 30.92 311.34 36.81C318.3 34.38 330.9 31.94 340.82 40.84C348.92 48.1 349.82 56.12 348.45 62.02C355.33 62.34 365.58 64.49 369.34 74.05C372.39 81.82 371.05 87.73 369.11 91.58C374.37 93.86 381.58 98.72 383.49 108.56C385.22 117.48 381.77 123.14 377.79 126.31C381.98 131.1 387.3 139.61 383.7 149.38C380.58 157.87 375.54 161.5 371.76 163.05C372.5 166.52 372.88 171.57 370.8 176.59C368.56 182.01 364.07 186.1 357.47 188.75C355.39 190.42 338.74 203.75 336.66 205.42C337.7 209.37 338.8 216.51 335.46 222.14C336.32 229 334.62 240.58 322.64 244.9C322.11 245.09 317.89 246.61 317.36 246.8C316.91 246.96 316.46 247.03 316 247.03C314.36 247.03 312.83 246.02 312.24 244.39Z" id="b3LfMoFYy9"></path><path d="M172 100C172 172 172 212 172 220C172 246.51 193.49 268 220 268C224 268 256 268 260 268C290.93 268 316 242.93 316 212C316 211.47 316 208.8 316 204C325.6 204 330.93 204 332 204C345.26 204 356 193.26 356 180C356 178.4 356 165.6 356 164C356 150.74 345.26 140 332 140C330.93 140 325.6 140 316 140L292 100L172 100Z" id="bhUXovjac"></path><path d="M292 244C292 244 291.22 228.71 284 220C275.78 210.06 256 212 212 212C180 212 172 236 180 252C180 252 188 276 228 276C308 276 301.57 252 301.57 252C299.65 250.4 292 252 292 244ZM228 244C220 244 220 244 212 244C204 244 204 252 196 252C188 252 188 222.14 212 222.14C228 222.14 268 217.96 268 232C268 240 268 252 252 252C236 252 236 244 228 244Z" id="m5i0zYHUT"></path><path d="M176.21 253.26C174.58 250.09 173.46 245.93 173.18 241.78C173.04 239.57 174.71 237.66 176.91 237.52C179.24 237.45 181.02 239.05 181.17 241.25C181.37 244.35 182.21 247.44 183.58 250.2C184.09 251.58 191.67 272 228 272C238.52 272 248.1 271.58 256.45 270.74C258.62 270.54 260.61 272.12 260.82 274.32C261.04 276.52 259.44 278.48 257.24 278.7C248.63 279.56 238.79 280 228 280C185.61 280 176.57 254.35 176.21 253.26Z" id="h3CCFmoRTy"></path><path d="M324 132C324 132 316 164 308 164C308 164 300 140 300 140C276 124 268 100 268 100C212 92 188 100 188 100C180 124 172 132 172 132C172 128.8 172 112.8 172 84L324 84C324 109.6 324 125.6 324 132Z" id="d1fNCHhZo6"></path><path d="M173.36 243.02C169.81 235.82 168 228.07 168 220C168 211.2 168 140.8 168 132C168 129.79 169.79 128 172 128C174.21 128 176 129.79 176 132C176 140.8 176 211.2 176 220C176 226.83 177.52 233.38 180.53 239.48C181.51 241.46 180.7 243.86 178.71 244.83C178.15 245.11 177.54 245.25 176.95 245.25C175.47 245.25 174.06 244.43 173.36 243.02Z" id="a34RViK2b"></path><path d="M316 208C313.79 208 312 206.21 312 204C312 201.79 313.79 200 316 200C317.6 200 330.4 200 332 200C343.02 200 352 191.02 352 180C352 178.4 352 165.6 352 164C352 152.98 343.02 144 332 144C331.2 144 324.8 144 324 144C321.79 144 320 142.21 320 140C320 137.79 321.79 136 324 136C324.8 136 331.2 136 332 136C347.44 136 360 148.56 360 164C360 165.6 360 178.4 360 180C360 195.44 347.44 208 332 208C328.8 208 317.6 208 316 208Z" id="g1mw0KYH5c"></path><path d="M204 240C201.79 240 200 238.21 200 236C200 233.79 201.79 232 204 232C208 232 240 232 244 232C247.22 232 247.95 229.8 248 227.95C248.06 225.78 249.83 224.02 252 224.02C252 224.02 252.04 224.02 252.05 224.02C254.24 224.06 256 225.82 256 228C256 232.82 252.81 240 244 240C236 240 208 240 204 240Z" id="c23ZCiEiIt"></path><path d="M184 196C184 187.49 197.68 159.7 200.42 154.21C201.42 152.23 203.81 151.43 205.79 152.42C207.77 153.41 208.57 155.81 207.58 157.78C201.11 170.73 192 191.14 192 196C192 198.41 199.22 200 204 200C206.21 200 208 201.79 208 204C208 206.21 206.21 208 204 208C194.78 208 184 204.86 184 196Z" id="d1l801MfKC"></path><path d="M240 180C240 177.6 240 158.4 240 156C240 153.79 241.79 152 244 152C246.21 152 248 153.79 248 156C248 158.4 248 177.6 248 180C248 182.21 246.21 184 244 184C241.79 184 240 182.21 240 180Z" id="fWdUNAtLy"></path><path d="M184 180C184 177.6 184 158.4 184 156C184 153.79 185.79 152 188 152C190.21 152 192 153.79 192 156C192 158.4 192 177.6 192 180C192 182.21 190.21 184 188 184C185.79 184 184 182.21 184 180Z" id="b4lvMgOLTe"></path><path d="M265.17 150.83C244.46 130.14 231.34 142.34 230.8 142.86C229.22 144.38 226.69 144.36 225.15 142.79C223.62 141.22 223.62 138.73 225.16 137.18C225.34 136.98 244.29 118.66 270.82 145.18C272.38 146.74 272.38 149.27 270.82 150.83C270.05 151.61 269.02 152 268 152C266.98 152 265.95 151.61 265.17 150.83Z" id="b1nC1rjD96"></path><path d="M193.18 142.84C192.25 141.94 184.16 134.58 174.44 142.18C172.68 143.54 170.18 143.22 168.82 141.5C167.46 139.75 167.78 137.24 169.51 135.88C181.95 126.15 194.13 132.47 198.82 137.18C200.38 138.74 200.38 141.27 198.82 142.83C198.05 143.61 197.02 144 196 144C194.98 144 193.96 143.62 193.18 142.84Z" id="b2dqJHA20s"></path><path d="M231.55 284C231.55 283.2 231.55 276.8 231.55 276C231.55 273.79 233.34 272 235.55 272C237.76 272 239.55 273.79 239.55 276C239.55 276.8 239.55 283.2 239.55 284C239.55 286.21 237.77 288 235.55 288C233.34 288 231.55 286.21 231.55 284Z" id="a7roRheO5T"></path><path d="M108 500C314.4 500 429.07 500 452 500C452 500 452 494.34 452 484C429.07 484 314.4 484 108 484L108 500Z" id="a29XS8OOnK"></path><path d="M236 396L219.78 500L292 500L276 396L236 396Z" id="c3OOQqZzrh"></path><path d="M222.27 484L219.78 500L292 500L289.54 484L222.27 484Z" id="b2xcUGLHIl"></path><path d="M368 500C368 490.4 368 413.6 368 404C368 401.79 369.79 400 372 400C374.21 400 376 401.79 376 404C376 413.6 376 490.4 376 500C376 502.21 374.21 504 372 504C369.79 504 368 502.21 368 500Z" id="b72dzCDRX"></path><path d="M136 500C136 491.2 136 420.8 136 412C136 409.79 137.79 408 140 408C142.21 408 144 409.79 144 412C144 420.8 144 491.2 144 500C144 502.21 142.21 504 140 504C137.79 504 136 502.21 136 500Z" id="evL864e9M"></path><path d="M231.55 284C231.55 283.2 231.55 276.8 231.55 276C231.55 273.79 233.34 272 235.55 272C237.76 272 239.55 273.79 239.55 276C239.55 276.8 239.55 283.2 239.55 284C239.55 286.21 237.77 288 235.55 288C233.34 288 231.55 286.21 231.55 284Z" id="cdrR8Knk"></path><path d="M252 332L316 372L348 300L316 271.3L252 332Z" id="dhUUVT62"></path><path d="M316 271.3L297.06 283.16L340 316L348 300L316 271.3Z" id="d14An83N7R"></path><path d="M252 332L235.56 286.44L188 316L204 372L252 332Z" id="a2uczCeV1J"></path><path d="M240.78 300.81L235.56 286.44L188 316L191.91 329.69L240.78 300.81Z" id="c15nu4a68T"></path><path d="M108 504C105.79 504 104 502.21 104 500C104 493.6 104 442.4 104 436C104 403.16 104 353.53 138.21 336.42C141.41 334.82 157.41 326.82 186.21 312.42C214.55 294.8 230.29 285.01 233.44 283.05C235.33 281.89 237.78 282.46 238.95 284.34C240.12 286.22 239.54 288.68 237.66 289.85C234.49 291.82 218.64 301.67 190.11 319.41C161.12 333.91 145.01 341.97 141.78 343.58C112 358.47 112 405.13 112 436C112 440 112 460 112 496L448 496C448 460 448 440 448 436C448 396.89 448 366 417.6 343.2C386.42 319.81 346.91 303.87 346.51 303.71C346.07 303.54 345.67 303.29 345.33 302.98C343.37 301.22 333.58 292.44 315.97 276.64C292.83 296.86 279.97 308.09 277.4 310.34C275.74 311.79 273.2 311.62 271.75 309.96C270.3 308.3 270.46 305.77 272.13 304.31C276.25 300.71 309.24 271.88 313.37 268.28C314.89 266.94 317.16 266.96 318.67 268.31C321.82 271.14 347 293.73 350.15 296.55C355.7 298.82 392.22 314.16 422.4 336.8C456 362 456 396.3 456 436C456 442.4 456 493.6 456 500C456 502.21 454.21 504 452 504C383.2 504 142.4 504 108 504Z" id="b306ccOlx1"></path><path d="M278.46 412L276 396L236 396L233.5 412L278.46 412Z" id="brm6aETmP"></path><path d="M208 336C203.58 336 200 339.58 200 344C200 348.42 203.58 352 208 352C212.42 352 216 348.42 216 344C216 339.58 212.42 336 208 336Z" id="crZWOkE6t"></path><path d="M312 336C307.58 336 304 339.58 304 344C304 348.42 307.58 352 312 352C316.42 352 320 348.42 320 344C320 339.58 316.42 336 312 336Z" id="baeWggGv6"></path></defs><g><g><g><use xlink:href="#e5EoWL7M3" opacity="1" fill="#fa8cb4" fill-opacity="1"></use><g><use xlink:href="#e5EoWL7M3" opacity="1" fill-opacity="0" stroke="#000000" stroke-width="1" stroke-opacity="0"></use></g></g><g><use xlink:href="#a2JQ4vpk7P" opacity="1" fill="#e678a0" fill-opacity="1"></use><g><use xlink:href="#a2JQ4vpk7P" opacity="1" fill-opacity="0" stroke="#000000" stroke-width="1" stroke-opacity="0"></use></g></g><g><use xlink:href="#e7SyhYppH" opacity="1" fill="#aad2ff" fill-opacity="1"></use><g><use xlink:href="#e7SyhYppH" opacity="1" fill-opacity="0" stroke="#000000" stroke-width="1" stroke-opacity="0"></use></g></g><g><use xlink:href="#c3McAb0Ao" opacity="1" fill="#96bef0" fill-opacity="1"></use><g><use xlink:href="#c3McAb0Ao" opacity="1" fill-opacity="0" stroke="#000000" stroke-width="1" stroke-opacity="0"></use></g></g><g><use xlink:href="#b1tfVhAvVx" opacity="1" fill="#ffa0c8" fill-opacity="1"></use><g><use xlink:href="#b1tfVhAvVx" opacity="1" fill-opacity="0" stroke="#000000" stroke-width="1" stroke-opacity="0"></use></g></g><g><use xlink:href="#e4XoQ2yMZe" opacity="1" fill="#fa8cb4" fill-opacity="1"></use><g><use xlink:href="#e4XoQ2yMZe" opacity="1" fill-opacity="0" stroke="#000000" stroke-width="1" stroke-opacity="0"></use></g></g><g><use xlink:href="#c8Ys65Te7" opacity="1" fill="#826ec8" fill-opacity="1"></use><g><use xlink:href="#c8Ys65Te7" opacity="1" fill-opacity="0" stroke="#000000" stroke-width="1" stroke-opacity="0"></use></g></g><g><use xlink:href="#a44NpvmKnz" opacity="1" fill="#8d7bd4" fill-opacity="1"></use><g><use xlink:href="#a44NpvmKnz" opacity="1" fill-opacity="0" stroke="#000000" stroke-width="1" stroke-opacity="0"></use></g></g><g><use xlink:href="#a3gUTwNLTD" opacity="1" fill="#c88c5a" fill-opacity="1"></use><g><use xlink:href="#a3gUTwNLTD" opacity="1" fill-opacity="0" stroke="#000000" stroke-width="1" stroke-opacity="0"></use></g></g><g><use xlink:href="#aaJggM1oI" opacity="1" fill="#785ae6" fill-opacity="1"></use><g><use xlink:href="#aaJggM1oI" opacity="1" fill-opacity="0" stroke="#000000" stroke-width="1" stroke-opacity="0"></use></g></g><g><use xlink:href="#b3LfMoFYy9" opacity="1" fill="#785ae6" fill-opacity="1"></use><g><use xlink:href="#b3LfMoFYy9" opacity="1" fill-opacity="0" stroke="#000000" stroke-width="1" stroke-opacity="0"></use></g></g><g><use xlink:href="#bhUXovjac" opacity="1" fill="#e1a271" fill-opacity="1"></use><g><use xlink:href="#bhUXovjac" opacity="1" fill-opacity="0" stroke="#000000" stroke-width="1" stroke-opacity="0"></use></g></g><g><use xlink:href="#m5i0zYHUT" opacity="1" fill="#826ec8" fill-opacity="1"></use><g><use xlink:href="#m5i0zYHUT" opacity="1" fill-opacity="0" stroke="#000000" stroke-width="1" stroke-opacity="0"></use></g></g><g><use xlink:href="#h3CCFmoRTy" opacity="1" fill="#785ae6" fill-opacity="1"></use><g><use xlink:href="#h3CCFmoRTy" opacity="1" fill-opacity="0" stroke="#000000" stroke-width="1" stroke-opacity="0"></use></g></g><g><use xlink:href="#d1fNCHhZo6" opacity="1" fill="#826ec8" fill-opacity="1"></use><g><use xlink:href="#d1fNCHhZo6" opacity="1" fill-opacity="0" stroke="#000000" stroke-width="1" stroke-opacity="0"></use></g></g><g><use xlink:href="#a34RViK2b" opacity="1" fill="#785ae6" fill-opacity="1"></use><g><use xlink:href="#a34RViK2b" opacity="1" fill-opacity="0" stroke="#000000" stroke-width="1" stroke-opacity="0"></use></g></g><g><use xlink:href="#g1mw0KYH5c" opacity="1" fill="#785ae6" fill-opacity="1"></use><g><use xlink:href="#g1mw0KYH5c" opacity="1" fill-opacity="0" stroke="#000000" stroke-width="1" stroke-opacity="0"></use></g></g><g><use xlink:href="#c23ZCiEiIt" opacity="1" fill="#785ae6" fill-opacity="1"></use><g><use xlink:href="#c23ZCiEiIt" opacity="1" fill-opacity="0" stroke="#000000" stroke-width="1" stroke-opacity="0"></use></g></g><g><use xlink:href="#d1l801MfKC" opacity="1" fill="#785ae6" fill-opacity="1"></use><g><use xlink:href="#d1l801MfKC" opacity="1" fill-opacity="0" stroke="#000000" stroke-width="1" stroke-opacity="0"></use></g></g><g><use xlink:href="#fWdUNAtLy" opacity="1" fill="#785ae6" fill-opacity="1"></use><g><use xlink:href="#fWdUNAtLy" opacity="1" fill-opacity="0" stroke="#000000" stroke-width="1" stroke-opacity="0"></use></g></g><g><use xlink:href="#b4lvMgOLTe" opacity="1" fill="#785ae6" fill-opacity="1"></use><g><use xlink:href="#b4lvMgOLTe" opacity="1" fill-opacity="0" stroke="#000000" stroke-width="1" stroke-opacity="0"></use></g></g><g><use xlink:href="#b1nC1rjD96" opacity="1" fill="#785ae6" fill-opacity="1"></use><g><use xlink:href="#b1nC1rjD96" opacity="1" fill-opacity="0" stroke="#000000" stroke-width="1" stroke-opacity="0"></use></g></g><g><use xlink:href="#b2dqJHA20s" opacity="1" fill="#785ae6" fill-opacity="1"></use><g><use xlink:href="#b2dqJHA20s" opacity="1" fill-opacity="0" stroke="#000000" stroke-width="1" stroke-opacity="0"></use></g></g><g><use xlink:href="#a7roRheO5T" opacity="1" fill="#785ae6" fill-opacity="1"></use><g><use xlink:href="#a7roRheO5T" opacity="1" fill-opacity="0" stroke="#000000" stroke-width="1" stroke-opacity="0"></use></g></g><g><use xlink:href="#a29XS8OOnK" opacity="1" fill="#e678a0" fill-opacity="1"></use><g><use xlink:href="#a29XS8OOnK" opacity="1" fill-opacity="0" stroke="#000000" stroke-width="1" stroke-opacity="0"></use></g></g><g><use xlink:href="#c3OOQqZzrh" opacity="1" fill="#aad2ff" fill-opacity="1"></use><g><use xlink:href="#c3OOQqZzrh" opacity="1" fill-opacity="0" stroke="#000000" stroke-width="1" stroke-opacity="0"></use></g></g><g><use xlink:href="#b2xcUGLHIl" opacity="1" fill="#96bef0" fill-opacity="1"></use><g><use xlink:href="#b2xcUGLHIl" opacity="1" fill-opacity="0" stroke="#000000" stroke-width="1" stroke-opacity="0"></use></g></g><g><use xlink:href="#b72dzCDRX" opacity="1" fill="#e678a0" fill-opacity="1"></use><g><use xlink:href="#b72dzCDRX" opacity="1" fill-opacity="0" stroke="#000000" stroke-width="1" stroke-opacity="0"></use></g></g><g><use xlink:href="#evL864e9M" opacity="1" fill="#e678a0" fill-opacity="1"></use><g><use xlink:href="#evL864e9M" opacity="1" fill-opacity="0" stroke="#000000" stroke-width="1" stroke-opacity="0"></use></g></g><g><use xlink:href="#cdrR8Knk" opacity="1" fill="#785ae6" fill-opacity="1"></use><g><use xlink:href="#cdrR8Knk" opacity="1" fill-opacity="0" stroke="#000000" stroke-width="1" stroke-opacity="0"></use></g></g><g><use xlink:href="#dhUUVT62" opacity="1" fill="#fa8cb4" fill-opacity="1"></use><g><use xlink:href="#dhUUVT62" opacity="1" fill-opacity="0" stroke="#000000" stroke-width="1" stroke-opacity="0"></use></g></g><g><use xlink:href="#d14An83N7R" opacity="1" fill="#ffa0c8" fill-opacity="1"></use><g><use xlink:href="#d14An83N7R" opacity="1" fill-opacity="0" stroke="#000000" stroke-width="1" stroke-opacity="0"></use></g></g><g><use xlink:href="#a2uczCeV1J" opacity="1" fill="#fa8cb4" fill-opacity="1"></use><g><use xlink:href="#a2uczCeV1J" opacity="1" fill-opacity="0" stroke="#000000" stroke-width="1" stroke-opacity="0"></use></g></g><g><use xlink:href="#c15nu4a68T" opacity="1" fill="#ffa0c8" fill-opacity="1"></use><g><use xlink:href="#c15nu4a68T" opacity="1" fill-opacity="0" stroke="#000000" stroke-width="1" stroke-opacity="0"></use></g></g><g><use xlink:href="#b306ccOlx1" opacity="1" fill="#785ae6" fill-opacity="1"></use><g><use xlink:href="#b306ccOlx1" opacity="1" fill-opacity="0" stroke="#000000" stroke-width="1" stroke-opacity="0"></use></g></g><g><use xlink:href="#brm6aETmP" opacity="1" fill="#96bef0" fill-opacity="1"></use><g><use xlink:href="#brm6aETmP" opacity="1" fill-opacity="0" stroke="#000000" stroke-width="1" stroke-opacity="0"></use></g></g><g><use xlink:href="#crZWOkE6t" opacity="1" fill="#ffe885" fill-opacity="1"></use><g><use xlink:href="#crZWOkE6t" opacity="1" fill-opacity="0" stroke="#000000" stroke-width="1" stroke-opacity="0"></use></g></g><g><use xlink:href="#baeWggGv6" opacity="1" fill="#ffe885" fill-opacity="1"></use><g><use xlink:href="#baeWggGv6" opacity="1" fill-opacity="0" stroke="#000000" stroke-width="1" stroke-opacity="0"></use></g></g></g></g></svg>